{"asset":{"version":"2.0","generator":"VECTARY"},"nodes":[{"translation":[0,0,0],"scale":[14.645913509,14.650798847,14.647885018000002],"rotation":[0,0,0,1],"name":"3ds","children":[1,6,7,8,9,10,11,12,13,14,15,16,17,20]},{"translation":[0.25319450863283854,0.008866616907518337,-0.001497499999999874],"scale":[0.239987,0.013179999999999996,0.426083],"rotation":[0,0,0.1026481456048369,0.994717727902689],"name":"Cube.001","children":[2,3,5]},{"translation":[0,0,0],"scale":[1,1,1],"rotation":[0,0,0,1],"name":"Cube.001","mesh":0},{"translation":[0.017698,0.087802,-1],"scale":[1,1,1],"rotation":[0,0,0,1],"name":"Simplify","children":[4]},{"translation":[0,0,0],"scale":[1,1,1],"rotation":[0,0,0,1],"name":"Cube.001","mesh":1},{"translation":[0,0,0],"scale":[1,1,1],"rotation":[0,0,0,1],"name":"Cube.001","mesh":2},{"translation":[-0.25073349136716133,-0.043948383092481655,0.001497500000000096],"scale":[0.239987,0.026372,0.426083],"rotation":[0,0,0,1],"name":"Cube.002","mesh":3},{"translation":[-0.006978491367161401,-0.026428383092481623,-0.001497499999999874],"scale":[0.022722,0.027641,0.351664],"rotation":[0,0,0.8988969965768291,0.4381600045019584],"name":"Cube.003","mesh":4},{"translation":[0.21465250863283858,0.011399616907518345,0.0003655000000001296],"scale":[0.177688,0.435943,0.260387],"rotation":[0,0,0.10264814560483687,0.994717727902689],"name":"Plan","mesh":5},{"translation":[-0.4058594913671613,-0.01307938309248168,0.25655350000000016],"scale":[0.019175,0.003633,0.019175],"rotation":[0,0,0,1],"name":"Cube.004","mesh":6},{"translation":[-0.31850449136716136,-0.013989383092481647,-0.3267544999999999],"scale":[-0.055615,0.006597,0.01731599999999999],"rotation":[-8.523190606533686e-20,0.7078024100100869,8.523190606533685e-20,0.7064104673516048],"name":"Cube.006","mesh":7},{"translation":[-0.15281249136716138,-0.020703383092481643,-0.3164664999999999],"scale":[0.051997,0.051997,0.051997],"rotation":[0,0,0,1],"name":"Cercle.001","mesh":8},{"translation":[-0.10209549136716138,-0.021186383092481654,0.32143150000000015],"scale":[0.02626,0.02626,0.02626],"rotation":[0,0,0,1],"name":"Cercle","mesh":9},{"translation":[-0.15361549136716138,-0.019912383092481657,0.27154850000000014],"scale":[0.02626,0.02626,0.02626],"rotation":[0,0,0,1],"name":"Cercle.002","mesh":10},{"translation":[-0.24772949136716138,-0.018634383092481655,-0.0005734999999998935],"scale":[0.184865,0.180386,0.202092],"rotation":[0,0,0,1],"name":"Plan.001","mesh":11},{"translation":[-0.18641149136716137,-0.04514738309248166,-0.002531499999999909],"scale":[0.006345,0.006345,0.006345],"rotation":[0,0,-0.7071068305519119,0.7071067318211797],"name":"Cylindre.002","mesh":12},{"translation":[0.15980650863283857,-0.009955383092481665,0.41403950000000017],"scale":[0.006872,0.011614999999999999,0.006325],"rotation":[0,0,-0.6131815916010767,0.7899419825035068],"name":"Cylindre.004","mesh":13},{"translation":[0.42458950863283856,0.061616616907518296,0.010603500000000099],"scale":[-0.008422999999999998,0.008422999999999996,0.008422999999999996],"rotation":[0.9943204635318834,0.1064275143078162,6.516805736913816e-18,-6.088456864955168e-17],"name":"Cercle.004","children":[18,19]},{"translation":[0,0,0],"scale":[1,1,1],"rotation":[0,0,0,1],"name":"Cercle.004","mesh":14},{"translation":[0,0,0],"scale":[1,1,1],"rotation":[0,0,0,1],"name":"Cercle.004","mesh":15},{"translation":[0.017873508632838597,0.12390761690751827,-0.38708549999999986],"scale":[-0.040316000000000005,0.185064,0.020645],"rotation":[0.7063932585363604,-0.03175808622444215,-0.7063932419078653,-0.031758086224451025],"name":"Cube.005","mesh":16}],"materials":[{"pbrMetallicRoughness":{"baseColorFactor":[0.7969165429079781,0.02201299491933654,0.026548682828472916,1],"metallicFactor":1,"roughnessFactor":0.28899083000000003},"name":"glossy red","emissiveFactor":[0,0,0],"extensions":{"KHR_materials_clearcoat":{"clearcoatFactor":0.15246038138866425,"clearcoatRoughnessFactor":0.029999999329447746}},"alphaMode":"OPAQUE","doubleSided":true},{"pbrMetallicRoughness":{"baseColorFactor":[0,0,0,1],"metallicFactor":0,"roughnessFactor":0.5},"name":"Matériau 1","emissiveFactor":[0,0,0],"extensions":{"KHR_materials_clearcoat":{"clearcoatFactor":0.39449542760849,"clearcoatRoughnessFactor":0.029999999329447746}},"alphaMode":"OPAQUE","doubleSided":true},{"pbrMetallicRoughness":{"baseColorFactor":[0,0,0,1],"metallicFactor":0,"roughnessFactor":0.5},"name":"Matériau 2","emissiveFactor":[0,0,0],"extensions":{"KHR_materials_clearcoat":{"clearcoatFactor":0.39449542760849,"clearcoatRoughnessFactor":0.029999999329447746}},"alphaMode":"OPAQUE","doubleSided":true},{"pbrMetallicRoughness":{"baseColorFactor":[0.7969165429079781,0.02201299491933654,0.026548682828472916,1],"metallicFactor":1,"roughnessFactor":0.28899083000000003},"name":"glossy red 1","emissiveFactor":[0,0,0],"extensions":{"KHR_materials_clearcoat":{"clearcoatFactor":0.15246038138866425,"clearcoatRoughnessFactor":0.029999999329447746}},"alphaMode":"OPAQUE","doubleSided":true},{"pbrMetallicRoughness":{"baseColorFactor":[0.7969165429079781,0.02201299491933654,0.026548682828472916,1],"metallicFactor":1,"roughnessFactor":0.28899083000000003},"name":"glossy red 2","emissiveFactor":[0,0,0],"extensions":{"KHR_materials_clearcoat":{"clearcoatFactor":0.15246038138866425,"clearcoatRoughnessFactor":0.029999999329447746}},"alphaMode":"OPAQUE","doubleSided":true},{"pbrMetallicRoughness":{"baseColorFactor":[0.10871114997903854,0.10871114997903854,0.10871114997903854,1],"metallicFactor":0,"roughnessFactor":0.25229359},"name":"glossy turn off 2","emissiveFactor":[0,0,0],"extensions":{"KHR_materials_clearcoat":{"clearcoatFactor":0.2568807303905487,"clearcoatRoughnessFactor":0.029999999329447746}},"alphaMode":"OPAQUE","doubleSided":true},{"pbrMetallicRoughness":{"baseColorFactor":[0.7969165429079781,0.02201299491933654,0.026548682828472916,1],"metallicFactor":1,"roughnessFactor":0.28899083000000003},"name":"glossy red 3","emissiveFactor":[0,0,0],"extensions":{"KHR_materials_clearcoat":{"clearcoatFactor":0.15246038138866425,"clearcoatRoughnessFactor":0.029999999329447746}},"alphaMode":"OPAQUE","doubleSided":true},{"pbrMetallicRoughness":{"baseColorFactor":[0.7969165429079781,0.02201299491933654,0.026548682828472916,1],"metallicFactor":1,"roughnessFactor":0.28899083000000003},"name":"glossy red 4","emissiveFactor":[0,0,0],"extensions":{"KHR_materials_clearcoat":{"clearcoatFactor":0.15246038138866425,"clearcoatRoughnessFactor":0.029999999329447746}},"alphaMode":"OPAQUE","doubleSided":true},{"pbrMetallicRoughness":{"baseColorFactor":[0.5542270877660852,0.5113978188848795,0.5356416093153108,1],"metallicFactor":0,"roughnessFactor":0.5},"name":"opaque white","emissiveFactor":[0,0,0],"extensions":{},"alphaMode":"OPAQUE","doubleSided":true},{"pbrMetallicRoughness":{"baseColorFactor":[0.7969165429079781,0.02201299491933654,0.026548682828472916,1],"metallicFactor":1,"roughnessFactor":0.28899083000000003},"name":"glossy red 5","emissiveFactor":[0,0,0],"extensions":{"KHR_materials_clearcoat":{"clearcoatFactor":0.15246038138866425,"clearcoatRoughnessFactor":0.029999999329447746}},"alphaMode":"OPAQUE","doubleSided":true},{"pbrMetallicRoughness":{"baseColorFactor":[0.7969165429079781,0.02201299491933654,0.026548682828472916,1],"metallicFactor":1,"roughnessFactor":0.28899083000000003},"name":"glossy red 6","emissiveFactor":[0,0,0],"extensions":{"KHR_materials_clearcoat":{"clearcoatFactor":0.15246038138866425,"clearcoatRoughnessFactor":0.029999999329447746}},"alphaMode":"OPAQUE","doubleSided":true},{"pbrMetallicRoughness":{"baseColorFactor":[0.10871114997903854,0.10871114997903854,0.10871114997903854,1],"metallicFactor":0,"roughnessFactor":0.25229359},"name":"glossy turn off 3","emissiveFactor":[0,0,0],"extensions":{"KHR_materials_clearcoat":{"clearcoatFactor":0.2568807303905487,"clearcoatRoughnessFactor":0.029999999329447746}},"alphaMode":"OPAQUE","doubleSided":true},{"pbrMetallicRoughness":{"baseColorFactor":[0,0,0,1],"metallicFactor":0,"roughnessFactor":0.19266055999999998},"name":"glossy black","emissiveFactor":[0,0,0],"extensions":{"KHR_materials_clearcoat":{"clearcoatFactor":0.47706422209739685,"clearcoatRoughnessFactor":0.029999999329447746}},"alphaMode":"OPAQUE","doubleSided":true},{"pbrMetallicRoughness":{"baseColorFactor":[0.4590798924241601,0.4590798924241601,0.4590798924241601,1],"metallicFactor":0,"roughnessFactor":0.07798164},"name":"metallic grey","emissiveFactor":[0,0,0],"extensions":{"KHR_materials_clearcoat":{"clearcoatFactor":0.4220183491706848,"clearcoatRoughnessFactor":0.029999999329447746}},"alphaMode":"OPAQUE","doubleSided":true},{"pbrMetallicRoughness":{"baseColorFactor":[0,0,0,1],"metallicFactor":0,"roughnessFactor":0.5},"name":"black.001","emissiveFactor":[0,0,0],"extensions":{},"alphaMode":"OPAQUE","doubleSided":true},{"pbrMetallicRoughness":{"baseColorFactor":[0.011881334434813665,0.011881334434813665,0.011881334434813665,1],"metallicFactor":0,"roughnessFactor":0.5},"name":"greyish black","emissiveFactor":[0,0,0],"extensions":{},"alphaMode":"OPAQUE","doubleSided":true},{"pbrMetallicRoughness":{"baseColorFactor":[0.7969165429079781,0.02201299491933654,0.026548682828472916,1],"metallicFactor":1,"roughnessFactor":0.28899083000000003},"name":"glossy red 7","emissiveFactor":[0,0,0],"extensions":{"KHR_materials_clearcoat":{"clearcoatFactor":0.15246038138866425,"clearcoatRoughnessFactor":0.029999999329447746}},"alphaMode":"OPAQUE","doubleSided":true}],"meshes":[{"primitives":[{"mode":4,"attributes":{"POSITION":1,"NORMAL":2,"TEXCOORD_0":3},"material":0,"indices":0}]},{"primitives":[{"mode":4,"attributes":{"POSITION":5,"NORMAL":6,"TEXCOORD_0":7},"material":1,"indices":4}]},{"primitives":[{"mode":4,"attributes":{"POSITION":9,"NORMAL":10,"TEXCOORD_0":11},"material":2,"indices":8}]},{"primitives":[{"mode":4,"attributes":{"POSITION":13,"NORMAL":14,"TEXCOORD_0":15},"material":3,"indices":12}]},{"primitives":[{"mode":4,"attributes":{"POSITION":17,"NORMAL":18,"TEXCOORD_0":19},"material":4,"indices":16}]},{"primitives":[{"mode":4,"attributes":{"POSITION":21,"NORMAL":22,"TEXCOORD_0":23},"material":5,"indices":20}]},{"primitives":[{"mode":4,"attributes":{"POSITION":25,"NORMAL":26,"TEXCOORD_0":27},"material":6,"indices":24}]},{"primitives":[{"mode":4,"attributes":{"POSITION":29,"NORMAL":30,"TEXCOORD_0":31},"material":7,"indices":28}]},{"primitives":[{"mode":4,"attributes":{"POSITION":33,"NORMAL":34,"TEXCOORD_0":35},"material":8,"indices":32}]},{"primitives":[{"mode":4,"attributes":{"POSITION":37,"NORMAL":38,"TEXCOORD_0":39},"material":9,"indices":36}]},{"primitives":[{"mode":4,"attributes":{"POSITION":41,"NORMAL":42,"TEXCOORD_0":43},"material":10,"indices":40}]},{"primitives":[{"mode":4,"attributes":{"POSITION":45,"NORMAL":46,"TEXCOORD_0":47},"material":11,"indices":44}]},{"primitives":[{"mode":4,"attributes":{"POSITION":49,"NORMAL":50,"TEXCOORD_0":51},"material":12,"indices":48}]},{"primitives":[{"mode":4,"attributes":{"POSITION":53,"NORMAL":54,"TEXCOORD_0":55},"material":13,"indices":52}]},{"primitives":[{"mode":4,"attributes":{"POSITION":57,"NORMAL":58,"TEXCOORD_0":59},"material":14,"indices":56}]},{"primitives":[{"mode":4,"attributes":{"POSITION":61,"NORMAL":62,"TEXCOORD_0":63},"material":15,"indices":60}]},{"primitives":[{"mode":4,"attributes":{"POSITION":65,"NORMAL":66,"TEXCOORD_0":67},"material":16,"indices":64}]}],"accessors":[{"bufferView":0,"byteOffset":0,"componentType":5125,"count":1602,"type":"SCALAR"},{"bufferView":1,"byteOffset":0,"componentType":5126,"count":966,"max":[1.0000005960464478,0.9999994039535522,1],"min":[-1.0000005960464478,-1.0000005960464478,-1],"type":"VEC3"},{"bufferView":2,"byteOffset":0,"componentType":5126,"count":966,"type":"VEC3"},{"bufferView":3,"byteOffset":0,"componentType":5126,"count":966,"type":"VEC2"},{"bufferView":4,"byteOffset":0,"componentType":5125,"count":2001,"type":"SCALAR"},{"bufferView":5,"byteOffset":0,"componentType":5126,"count":650,"max":[0.9823026061058044,0.9121974110603333,2],"min":[-0.9823015928268433,-0.9121968150138855,0],"type":"VEC3"},{"bufferView":6,"byteOffset":0,"componentType":5126,"count":650,"type":"VEC3"},{"bufferView":7,"byteOffset":0,"componentType":5126,"count":650,"type":"VEC2"},{"bufferView":8,"byteOffset":0,"componentType":5125,"count":1134,"type":"SCALAR"},{"bufferView":9,"byteOffset":0,"componentType":5126,"count":642,"max":[-0.06825418770313263,0.7101210355758667,0.8160969614982605],"min":[-0.08933103084564209,-0.7999173402786255,-0.816096842288971],"type":"VEC3"},{"bufferView":10,"byteOffset":0,"componentType":5126,"count":642,"type":"VEC3"},{"bufferView":11,"byteOffset":0,"componentType":5126,"count":642,"type":"VEC2"},{"bufferView":12,"byteOffset":0,"componentType":5125,"count":1530,"type":"SCALAR"},{"bufferView":13,"byteOffset":0,"componentType":5126,"count":519,"max":[0.9999996423721313,1.1635156869888306,1],"min":[-1.0000003576278687,-1,-1],"type":"VEC3"},{"bufferView":14,"byteOffset":0,"componentType":5126,"count":519,"type":"VEC3"},{"bufferView":15,"byteOffset":0,"componentType":5126,"count":519,"type":"VEC2"},{"bufferView":16,"byteOffset":0,"componentType":5125,"count":84,"type":"SCALAR"},{"bufferView":17,"byteOffset":0,"componentType":5126,"count":48,"max":[1,1,1],"min":[-1,-1,-1],"type":"VEC3"},{"bufferView":18,"byteOffset":0,"componentType":5126,"count":48,"type":"VEC3"},{"bufferView":19,"byteOffset":0,"componentType":5126,"count":48,"type":"VEC2"},{"bufferView":20,"byteOffset":0,"componentType":5125,"count":6,"type":"SCALAR"},{"bufferView":21,"byteOffset":0,"componentType":5126,"count":4,"max":[1,0,1],"min":[-1,0,-1],"type":"VEC3"},{"bufferView":22,"byteOffset":0,"componentType":5126,"count":4,"type":"VEC3"},{"bufferView":23,"byteOffset":0,"componentType":5126,"count":4,"type":"VEC2"},{"bufferView":24,"byteOffset":0,"componentType":5125,"count":2292,"type":"SCALAR"},{"bufferView":25,"byteOffset":0,"componentType":5126,"count":445,"max":[1,1,1],"min":[-1,-1,-1],"type":"VEC3"},{"bufferView":26,"byteOffset":0,"componentType":5126,"count":445,"type":"VEC3"},{"bufferView":27,"byteOffset":0,"componentType":5126,"count":445,"type":"VEC2"},{"bufferView":28,"byteOffset":0,"componentType":5125,"count":1800,"type":"SCALAR"},{"bufferView":29,"byteOffset":0,"componentType":5126,"count":380,"max":[1,1.089276671409607,3.0165133476257324],"min":[-1,-1,-3.408118724822998],"type":"VEC3"},{"bufferView":30,"byteOffset":0,"componentType":5126,"count":380,"type":"VEC3"},{"bufferView":31,"byteOffset":0,"componentType":5126,"count":380,"type":"VEC2"},{"bufferView":32,"byteOffset":0,"componentType":5125,"count":756,"type":"SCALAR"},{"bufferView":33,"byteOffset":0,"componentType":5126,"count":256,"max":[1,0.14030097424983978,1],"min":[-1,0,-1],"type":"VEC3"},{"bufferView":34,"byteOffset":0,"componentType":5126,"count":256,"type":"VEC3"},{"bufferView":35,"byteOffset":0,"componentType":5126,"count":256,"type":"VEC2"},{"bufferView":36,"byteOffset":0,"componentType":5125,"count":3816,"type":"SCALAR"},{"bufferView":37,"byteOffset":0,"componentType":5126,"count":1152,"max":[0.8941527009010315,0.47196394205093384,0.8941524624824524],"min":[-4.817963600158691,0.00620289146900177,-0.894149899482727],"type":"VEC3"},{"bufferView":38,"byteOffset":0,"componentType":5126,"count":1152,"type":"VEC3"},{"bufferView":39,"byteOffset":0,"componentType":5126,"count":1152,"type":"VEC2"},{"bufferView":40,"byteOffset":0,"componentType":5125,"count":3816,"type":"SCALAR"},{"bufferView":41,"byteOffset":0,"componentType":5126,"count":1152,"max":[0.8941527009010315,0.47196394205093384,4.69334602355957],"min":[-0.8941497206687927,0.00620289146900177,-0.894149899482727],"type":"VEC3"},{"bufferView":42,"byteOffset":0,"componentType":5126,"count":1152,"type":"VEC3"},{"bufferView":43,"byteOffset":0,"componentType":5126,"count":1152,"type":"VEC2"},{"bufferView":44,"byteOffset":0,"componentType":5125,"count":6,"type":"SCALAR"},{"bufferView":45,"byteOffset":0,"componentType":5126,"count":4,"max":[1.0423048734664917,0,1.0301798582077026],"min":[-1.0535839796066284,0,-1],"type":"VEC3"},{"bufferView":46,"byteOffset":0,"componentType":5126,"count":4,"type":"VEC3"},{"bufferView":47,"byteOffset":0,"componentType":5126,"count":4,"type":"VEC2"},{"bufferView":48,"byteOffset":0,"componentType":5125,"count":1146,"type":"SCALAR"},{"bufferView":49,"byteOffset":0,"componentType":5126,"count":328,"max":[1,1,1],"min":[-1.0000008344650269,-47.6136360168457,-1],"type":"VEC3"},{"bufferView":50,"byteOffset":0,"componentType":5126,"count":328,"type":"VEC3"},{"bufferView":51,"byteOffset":0,"componentType":5126,"count":328,"type":"VEC2"},{"bufferView":52,"byteOffset":0,"componentType":5125,"count":1596,"type":"SCALAR"},{"bufferView":53,"byteOffset":0,"componentType":5126,"count":341,"max":[1,1,1],"min":[-1.2571977376937866,-1,-1.024651050567627],"type":"VEC3"},{"bufferView":54,"byteOffset":0,"componentType":5126,"count":341,"type":"VEC3"},{"bufferView":55,"byteOffset":0,"componentType":5126,"count":341,"type":"VEC2"},{"bufferView":56,"byteOffset":0,"componentType":5125,"count":90,"type":"SCALAR"},{"bufferView":57,"byteOffset":0,"componentType":5126,"count":32,"max":[1,0,1],"min":[-1,0,-1],"type":"VEC3"},{"bufferView":58,"byteOffset":0,"componentType":5126,"count":32,"type":"VEC3"},{"bufferView":59,"byteOffset":0,"componentType":5126,"count":32,"type":"VEC2"},{"bufferView":60,"byteOffset":0,"componentType":5125,"count":90,"type":"SCALAR"},{"bufferView":61,"byteOffset":0,"componentType":5126,"count":32,"max":[1.5413917303085327,0.0022993385791778564,1.533762812614441],"min":[-1.525957465171814,0.002299278974533081,-1.5335861444473267],"type":"VEC3"},{"bufferView":62,"byteOffset":0,"componentType":5126,"count":32,"type":"VEC3"},{"bufferView":63,"byteOffset":0,"componentType":5126,"count":32,"type":"VEC2"},{"bufferView":64,"byteOffset":0,"componentType":5125,"count":9816,"type":"SCALAR"},{"bufferView":65,"byteOffset":0,"componentType":5126,"count":2448,"max":[20.12835693359375,1,1.0000020265579224],"min":[-1,0.701651930809021,-1],"type":"VEC3"},{"bufferView":66,"byteOffset":0,"componentType":5126,"count":2448,"type":"VEC3"},{"bufferView":67,"byteOffset":0,"componentType":5126,"count":2448,"type":"VEC2"}],"bufferViews":[{"buffer":0,"byteOffset":0,"byteLength":6408,"target":34963},{"buffer":0,"byteOffset":6408,"byteLength":11592,"target":34962},{"buffer":0,"byteOffset":18000,"byteLength":11592,"target":34962},{"buffer":0,"byteOffset":29592,"byteLength":7728,"target":34962},{"buffer":0,"byteOffset":37320,"byteLength":8004,"target":34963},{"buffer":0,"byteOffset":45324,"byteLength":7800,"target":34962},{"buffer":0,"byteOffset":53124,"byteLength":7800,"target":34962},{"buffer":0,"byteOffset":60924,"byteLength":5200,"target":34962},{"buffer":0,"byteOffset":66124,"byteLength":4536,"target":34963},{"buffer":0,"byteOffset":70660,"byteLength":7704,"target":34962},{"buffer":0,"byteOffset":78364,"byteLength":7704,"target":34962},{"buffer":0,"byteOffset":86068,"byteLength":5136,"target":34962},{"buffer":0,"byteOffset":91204,"byteLength":6120,"target":34963},{"buffer":0,"byteOffset":97324,"byteLength":6228,"target":34962},{"buffer":0,"byteOffset":103552,"byteLength":6228,"target":34962},{"buffer":0,"byteOffset":109780,"byteLength":4152,"target":34962},{"buffer":0,"byteOffset":113932,"byteLength":336,"target":34963},{"buffer":0,"byteOffset":114268,"byteLength":576,"target":34962},{"buffer":0,"byteOffset":114844,"byteLength":576,"target":34962},{"buffer":0,"byteOffset":115420,"byteLength":384,"target":34962},{"buffer":0,"byteOffset":115804,"byteLength":24,"target":34963},{"buffer":0,"byteOffset":115828,"byteLength":48,"target":34962},{"buffer":0,"byteOffset":115876,"byteLength":48,"target":34962},{"buffer":0,"byteOffset":115924,"byteLength":32,"target":34962},{"buffer":0,"byteOffset":115956,"byteLength":9168,"target":34963},{"buffer":0,"byteOffset":125124,"byteLength":5340,"target":34962},{"buffer":0,"byteOffset":130464,"byteLength":5340,"target":34962},{"buffer":0,"byteOffset":135804,"byteLength":3560,"target":34962},{"buffer":0,"byteOffset":139364,"byteLength":7200,"target":34963},{"buffer":0,"byteOffset":146564,"byteLength":4560,"target":34962},{"buffer":0,"byteOffset":151124,"byteLength":4560,"target":34962},{"buffer":0,"byteOffset":155684,"byteLength":3040,"target":34962},{"buffer":0,"byteOffset":158724,"byteLength":3024,"target":34963},{"buffer":0,"byteOffset":161748,"byteLength":3072,"target":34962},{"buffer":0,"byteOffset":164820,"byteLength":3072,"target":34962},{"buffer":0,"byteOffset":167892,"byteLength":2048,"target":34962},{"buffer":0,"byteOffset":169940,"byteLength":15264,"target":34963},{"buffer":0,"byteOffset":185204,"byteLength":13824,"target":34962},{"buffer":0,"byteOffset":199028,"byteLength":13824,"target":34962},{"buffer":0,"byteOffset":212852,"byteLength":9216,"target":34962},{"buffer":0,"byteOffset":222068,"byteLength":15264,"target":34963},{"buffer":0,"byteOffset":237332,"byteLength":13824,"target":34962},{"buffer":0,"byteOffset":251156,"byteLength":13824,"target":34962},{"buffer":0,"byteOffset":264980,"byteLength":9216,"target":34962},{"buffer":0,"byteOffset":274196,"byteLength":24,"target":34963},{"buffer":0,"byteOffset":274220,"byteLength":48,"target":34962},{"buffer":0,"byteOffset":274268,"byteLength":48,"target":34962},{"buffer":0,"byteOffset":274316,"byteLength":32,"target":34962},{"buffer":0,"byteOffset":274348,"byteLength":4584,"target":34963},{"buffer":0,"byteOffset":278932,"byteLength":3936,"target":34962},{"buffer":0,"byteOffset":282868,"byteLength":3936,"target":34962},{"buffer":0,"byteOffset":286804,"byteLength":2624,"target":34962},{"buffer":0,"byteOffset":289428,"byteLength":6384,"target":34963},{"buffer":0,"byteOffset":295812,"byteLength":4092,"target":34962},{"buffer":0,"byteOffset":299904,"byteLength":4092,"target":34962},{"buffer":0,"byteOffset":303996,"byteLength":2728,"target":34962},{"buffer":0,"byteOffset":306724,"byteLength":360,"target":34963},{"buffer":0,"byteOffset":307084,"byteLength":384,"target":34962},{"buffer":0,"byteOffset":307468,"byteLength":384,"target":34962},{"buffer":0,"byteOffset":307852,"byteLength":256,"target":34962},{"buffer":0,"byteOffset":308108,"byteLength":360,"target":34963},{"buffer":0,"byteOffset":308468,"byteLength":384,"target":34962},{"buffer":0,"byteOffset":308852,"byteLength":384,"target":34962},{"buffer":0,"byteOffset":309236,"byteLength":256,"target":34962},{"buffer":0,"byteOffset":309492,"byteLength":39264,"target":34963},{"buffer":0,"byteOffset":348756,"byteLength":29376,"target":34962},{"buffer":0,"byteOffset":378132,"byteLength":29376,"target":34962},{"buffer":0,"byteOffset":407508,"byteLength":19584,"target":34962}],"scene":0,"scenes":[{"nodes":[0],"name":"3DS"}],"extensionsUsed":["KHR_texture_transform","KHR_materials_clearcoat"],"buffers":[{"byteLength":427092,"uri":"3DS.bin"}]}