{"asset":{"version":"2.0","generator":"VECTARY"},"nodes":[{"translation":[0,0,0],"scale":[14.629625373000001,14.625829393,14.632963916000001],"rotation":[-2.7755575615628914e-16,0,0,0.9999999999999999],"name":"ds","children":[1,2,3,4,5,6,7,10,11,12,13,14,15,16]},{"translation":[0.1953371657845059,0.039153742225543145,-0.004227266802132136],"scale":[0.177764,0.4404039999999999,0.249962],"rotation":[9.467529900949048e-17,-5.798743254441981e-17,0.5223042970871323,0.8527591812723663],"name":"Plan","mesh":0},{"translation":[-0.007932834215494095,-0.17354925777445684,0.3175377331978678],"scale":[0.026414,0.026414,0.026949],"rotation":[1.1102231566505028e-16,0,0,1],"name":"Cercle","mesh":1},{"translation":[-0.05975483421549413,-0.17226825777445684,0.2663457331978677],"scale":[0.026414,0.026414,0.026949],"rotation":[1.1102231566505028e-16,0,0,1],"name":"Cercle.002","mesh":2},{"translation":[-0.09358483421549416,-0.16845525777445672,0.003951733197867808],"scale":[0.14699300000000004,0.171277,0.19577400000000003],"rotation":[1.1102231566505028e-16,0,0,1],"name":"Plan.001","mesh":3},{"translation":[0.11149916578450589,-0.16240425777445675,-0.00033626680213220397],"scale":[0.059326000000000004,0.4184880000000001,0.320803],"rotation":[9.467968404509588e-17,-5.798027254809073e-17,0.5222398055812023,0.8527986781571064],"name":"Plan.003","mesh":4},{"translation":[0.09245616578450586,-0.1540062577744567,-0.42329526680213214],"scale":[0.029496999999999995,0.02949699999999999,0.029496999999999995],"rotation":[0.5000747163157632,0.4999252724992442,0.499925211421854,0.5000747774114188],"name":"Cercle.006","mesh":5},{"translation":[-0.08509183421549407,-0.19594625777445676,0.0010527331978677618],"scale":[0.207167,0.023265,0.426964],"rotation":[1.1102231566505028e-16,0,0,1],"name":"Cube.009","children":[8,9]},{"translation":[0,0,0],"scale":[1,1,1],"rotation":[0,0,0,1],"name":"Cube.009","mesh":6},{"translation":[0,0,0],"scale":[1,1,1],"rotation":[0,0,0,1],"name":"Cube.009","mesh":7},{"translation":[-0.09365183421549408,-0.1755772577744568,0.0009977331978677946],"scale":[0.146993,0.171277,0.195774],"rotation":[1.1102231566505028e-16,0,0,1],"name":"Plan.004","mesh":8},{"translation":[-0.050035834215494096,-0.1686062577744567,-0.31436526680213217],"scale":[0.06785300000000001,0.004379,0.018153],"rotation":[7.850463775668641e-17,0.7071067317649852,7.850462678289423e-17,0.7071068306081064],"name":"Cube.011","mesh":9},{"translation":[-0.13319483421549408,-0.19646025777445678,-0.003636266802132181],"scale":[-0.171348,0.012361,0.198284],"rotation":[1.1102231566505028e-16,0,0,1],"name":"Cube.012","mesh":10},{"translation":[-0.2598488342154941,-0.1732612577744568,0.24460373319786782],"scale":[0.007528,0.007528,0.00768],"rotation":[1.1102231566505028e-16,0,0,1],"name":"Cercle.013","mesh":11},{"translation":[-0.22690883421549404,-0.1732612577744568,0.24460373319786782],"scale":[0.007528,0.007528,0.00768],"rotation":[1.1102231566505028e-16,0,0,1],"name":"Cercle.014","mesh":12},{"translation":[-0.3031108342154941,-0.19646025777445672,-0.2973832668021322],"scale":[0.000824,0.00642,0.036118],"rotation":[1.1102231566505028e-16,0,0,1],"name":"Cube.013","mesh":13},{"translation":[0.09494616578450596,-0.19330025777445678,-0.00647826680213219],"scale":[-0.02894,0.009625,0.089144],"rotation":[6.798156175656544e-33,-1.1102231566505028e-16,1,6.123233995736766e-17],"name":"Cube","mesh":14}],"materials":[{"pbrMetallicRoughness":{"baseColorFactor":[0.08021925873621505,0.08021925873621505,0.08021925873621505,1],"metallicFactor":0,"roughnessFactor":0.20642202},"name":"glossy turn off","emissiveFactor":[0,0,0],"extensions":{"KHR_materials_clearcoat":{"clearcoatFactor":0.31192660331726074,"clearcoatRoughnessFactor":0.029999999329447746}},"alphaMode":"OPAQUE","doubleSided":true},{"pbrMetallicRoughness":{"baseColorFactor":[0,0,0,1],"metallicFactor":0,"roughnessFactor":1},"name":"black 2","emissiveFactor":[0,0,0],"extensions":{},"alphaMode":"OPAQUE","doubleSided":true},{"pbrMetallicRoughness":{"baseColorFactor":[0,0,0,1],"metallicFactor":0,"roughnessFactor":1},"name":"black 3","emissiveFactor":[0,0,0],"extensions":{},"alphaMode":"OPAQUE","doubleSided":true},{"pbrMetallicRoughness":{"baseColorFactor":[0.08021925873621505,0.08021925873621505,0.08021925873621505,1],"metallicFactor":0,"roughnessFactor":0.20642202},"name":"glossy turn off 1","emissiveFactor":[0,0,0],"extensions":{"KHR_materials_clearcoat":{"clearcoatFactor":0.31192660331726074,"clearcoatRoughnessFactor":0.029999999329447746}},"alphaMode":"OPAQUE","doubleSided":true},{"pbrMetallicRoughness":{"baseColorFactor":[0,0,0,1],"metallicFactor":0,"roughnessFactor":1},"name":"black 4","emissiveFactor":[0,0,0],"extensions":{},"alphaMode":"OPAQUE","doubleSided":true},{"pbrMetallicRoughness":{"baseColorFactor":[0,0,0,1],"metallicFactor":0,"roughnessFactor":1},"name":"black 5","emissiveFactor":[0,0,0],"extensions":{},"alphaMode":"OPAQUE","doubleSided":true},{"pbrMetallicRoughness":{"baseColorFactor":[0,0,0,1],"metallicFactor":0,"roughnessFactor":1},"name":"black 6","emissiveFactor":[0,0,0],"extensions":{},"alphaMode":"OPAQUE","doubleSided":true},{"pbrMetallicRoughness":{"baseColorFactor":[0,0,0,1],"metallicFactor":0,"roughnessFactor":1},"name":"black 7","emissiveFactor":[0,0,0],"extensions":{},"alphaMode":"OPAQUE","doubleSided":true},{"pbrMetallicRoughness":{"baseColorFactor":[0.007155037004573032,0.007155037004573032,0.007155037004573032,1],"metallicFactor":0,"roughnessFactor":0.5},"name":"dark grey 2","emissiveFactor":[0,0,0],"extensions":{},"alphaMode":"OPAQUE","doubleSided":true},{"pbrMetallicRoughness":{"baseColorFactor":[0,0,0,1],"metallicFactor":0,"roughnessFactor":1},"name":"black 8","emissiveFactor":[0,0,0],"extensions":{},"alphaMode":"OPAQUE","doubleSided":true},{"pbrMetallicRoughness":{"baseColorFactor":[0,0,0,1],"metallicFactor":0,"roughnessFactor":1},"name":"black 9","emissiveFactor":[0,0,0],"extensions":{},"alphaMode":"OPAQUE","doubleSided":true},{"pbrMetallicRoughness":{"baseColorFactor":[0.007155037004573032,0.007155037004573032,0.007155037004573032,1],"metallicFactor":0,"roughnessFactor":0.5},"name":"dark grey 3","emissiveFactor":[0,0,0],"extensions":{},"alphaMode":"OPAQUE","doubleSided":true},{"pbrMetallicRoughness":{"baseColorFactor":[0.007155037004573032,0.007155037004573032,0.007155037004573032,1],"metallicFactor":0,"roughnessFactor":0.5},"name":"dark grey 4","emissiveFactor":[0,0,0],"extensions":{},"alphaMode":"OPAQUE","doubleSided":true},{"pbrMetallicRoughness":{"baseColorFactor":[0,0,0,1],"metallicFactor":0,"roughnessFactor":1},"name":"black 10","emissiveFactor":[0,0,0],"extensions":{},"alphaMode":"OPAQUE","doubleSided":true},{"pbrMetallicRoughness":{"baseColorFactor":[0.007155037004573032,0.007155037004573032,0.007155037004573032,1],"metallicFactor":0,"roughnessFactor":0.5},"name":"dark grey 5","emissiveFactor":[0,0,0],"extensions":{},"alphaMode":"OPAQUE","doubleSided":true}],"meshes":[{"primitives":[{"mode":4,"attributes":{"POSITION":1,"NORMAL":2,"TEXCOORD_0":3},"material":0,"indices":0}]},{"primitives":[{"mode":4,"attributes":{"POSITION":5,"NORMAL":6,"TEXCOORD_0":7},"material":1,"indices":4}]},{"primitives":[{"mode":4,"attributes":{"POSITION":9,"NORMAL":10,"TEXCOORD_0":11},"material":2,"indices":8}]},{"primitives":[{"mode":4,"attributes":{"POSITION":13,"NORMAL":14,"TEXCOORD_0":15},"material":3,"indices":12}]},{"primitives":[{"mode":4,"attributes":{"POSITION":17,"NORMAL":18,"TEXCOORD_0":19},"material":4,"indices":16}]},{"primitives":[{"mode":4,"attributes":{"POSITION":21,"NORMAL":22,"TEXCOORD_0":23},"material":5,"indices":20}]},{"primitives":[{"mode":4,"attributes":{"POSITION":25,"NORMAL":26,"TEXCOORD_0":27},"material":6,"indices":24}]},{"primitives":[{"mode":4,"attributes":{"POSITION":29,"NORMAL":30,"TEXCOORD_0":31},"material":7,"indices":28}]},{"primitives":[{"mode":4,"attributes":{"POSITION":33,"NORMAL":34,"TEXCOORD_0":35},"material":8,"indices":32}]},{"primitives":[{"mode":4,"attributes":{"POSITION":37,"NORMAL":38,"TEXCOORD_0":39},"material":9,"indices":36}]},{"primitives":[{"mode":4,"attributes":{"POSITION":41,"NORMAL":42,"TEXCOORD_0":43},"material":10,"indices":40}]},{"primitives":[{"mode":4,"attributes":{"POSITION":45,"NORMAL":46,"TEXCOORD_0":47},"material":11,"indices":44}]},{"primitives":[{"mode":4,"attributes":{"POSITION":45,"NORMAL":46,"TEXCOORD_0":47},"material":12,"indices":44}]},{"primitives":[{"mode":4,"attributes":{"POSITION":49,"NORMAL":50,"TEXCOORD_0":51},"material":13,"indices":48}]},{"primitives":[{"mode":4,"attributes":{"POSITION":41,"NORMAL":42,"TEXCOORD_0":43},"material":14,"indices":40}]}],"accessors":[{"bufferView":0,"byteOffset":0,"componentType":5125,"count":6,"type":"SCALAR"},{"bufferView":1,"byteOffset":0,"componentType":5126,"count":4,"max":[0.8941226601600647,0,0.7947818040847778],"min":[-1,-0.02179974876344204,-0.7625598907470703],"type":"VEC3"},{"bufferView":2,"byteOffset":0,"componentType":5126,"count":4,"type":"VEC3"},{"bufferView":3,"byteOffset":0,"componentType":5126,"count":4,"type":"VEC2"},{"bufferView":4,"byteOffset":0,"componentType":5125,"count":3816,"type":"SCALAR"},{"bufferView":5,"byteOffset":0,"componentType":5126,"count":1152,"max":[0.8941527009010315,0.47196394205093384,0.8941524624824524],"min":[-4.817967414855957,0.00620289146900177,-0.894149899482727],"type":"VEC3"},{"bufferView":6,"byteOffset":0,"componentType":5126,"count":1152,"type":"VEC3"},{"bufferView":7,"byteOffset":0,"componentType":5126,"count":1152,"type":"VEC2"},{"bufferView":8,"byteOffset":0,"componentType":5125,"count":3816,"type":"SCALAR"},{"bufferView":9,"byteOffset":0,"componentType":5126,"count":1152,"max":[0.8941527009010315,0.47196394205093384,4.693345069885254],"min":[-0.8941497206687927,0.00620289146900177,-0.894149899482727],"type":"VEC3"},{"bufferView":10,"byteOffset":0,"componentType":5126,"count":1152,"type":"VEC3"},{"bufferView":11,"byteOffset":0,"componentType":5126,"count":1152,"type":"VEC2"},{"bufferView":12,"byteOffset":0,"componentType":5125,"count":6,"type":"SCALAR"},{"bufferView":13,"byteOffset":0,"componentType":5126,"count":4,"max":[1.0423048734664917,0,1.0301798582077026],"min":[-1.300715446472168,0,-1],"type":"VEC3"},{"bufferView":14,"byteOffset":0,"componentType":5126,"count":4,"type":"VEC3"},{"bufferView":15,"byteOffset":0,"componentType":5126,"count":4,"type":"VEC2"},{"bufferView":16,"byteOffset":0,"componentType":5125,"count":6531,"type":"SCALAR"},{"bufferView":17,"byteOffset":0,"componentType":5126,"count":2886,"max":[7.127659797668457,0.1214635819196701,1.3330984115600586],"min":[-0.5477843284606934,-0.024383023381233215,-1.3331559896469116],"type":"VEC3"},{"bufferView":18,"byteOffset":0,"componentType":5126,"count":2886,"type":"VEC3"},{"bufferView":19,"byteOffset":0,"componentType":5126,"count":2886,"type":"VEC2"},{"bufferView":20,"byteOffset":0,"componentType":5125,"count":384,"type":"SCALAR"},{"bufferView":21,"byteOffset":0,"componentType":5126,"count":144,"max":[1,28.678234100341797,0.9990453124046326],"min":[-0.6634357571601868,0,-0.9990463852882385],"type":"VEC3"},{"bufferView":22,"byteOffset":0,"componentType":5126,"count":144,"type":"VEC3"},{"bufferView":23,"byteOffset":0,"componentType":5126,"count":144,"type":"VEC2"},{"bufferView":24,"byteOffset":0,"componentType":5125,"count":1014,"type":"SCALAR"},{"bufferView":25,"byteOffset":0,"componentType":5126,"count":604,"max":[1,1,0.9999999403953552],"min":[-1.0560848712921143,-1,-0.9999999403953552],"type":"VEC3"},{"bufferView":26,"byteOffset":0,"componentType":5126,"count":604,"type":"VEC3"},{"bufferView":27,"byteOffset":0,"componentType":5126,"count":604,"type":"VEC2"},{"bufferView":28,"byteOffset":0,"componentType":5125,"count":30,"type":"SCALAR"},{"bufferView":29,"byteOffset":0,"componentType":5126,"count":20,"max":[1,0.5274571776390076,0.1911480724811554],"min":[0.6200602650642395,-0.300017774105072,-0.2264239490032196],"type":"VEC3"},{"bufferView":30,"byteOffset":0,"componentType":5126,"count":20,"type":"VEC3"},{"bufferView":31,"byteOffset":0,"componentType":5126,"count":20,"type":"VEC2"},{"bufferView":32,"byteOffset":0,"componentType":5125,"count":60,"type":"SCALAR"},{"bufferView":33,"byteOffset":0,"componentType":5126,"count":40,"max":[1.0423048734664917,0.057075344026088715,1.0301798582077026],"min":[-1.300715446472168,0,-1],"type":"VEC3"},{"bufferView":34,"byteOffset":0,"componentType":5126,"count":40,"type":"VEC3"},{"bufferView":35,"byteOffset":0,"componentType":5126,"count":40,"type":"VEC2"},{"bufferView":36,"byteOffset":0,"componentType":5125,"count":216,"type":"SCALAR"},{"bufferView":37,"byteOffset":0,"componentType":5126,"count":96,"max":[1,1,3.6635446548461914],"min":[-1,-1,-3.663540840148926],"type":"VEC3"},{"bufferView":38,"byteOffset":0,"componentType":5126,"count":96,"type":"VEC3"},{"bufferView":39,"byteOffset":0,"componentType":5126,"count":96,"type":"VEC2"},{"bufferView":40,"byteOffset":0,"componentType":5125,"count":36,"type":"SCALAR"},{"bufferView":41,"byteOffset":0,"componentType":5126,"count":24,"max":[1,1,1],"min":[-1,-1,-1],"type":"VEC3"},{"bufferView":42,"byteOffset":0,"componentType":5126,"count":24,"type":"VEC3"},{"bufferView":43,"byteOffset":0,"componentType":5126,"count":24,"type":"VEC2"},{"bufferView":44,"byteOffset":0,"componentType":5125,"count":1524,"type":"SCALAR"},{"bufferView":45,"byteOffset":0,"componentType":5126,"count":288,"max":[1,0.4706473648548126,1],"min":[-1,0,-1],"type":"VEC3"},{"bufferView":46,"byteOffset":0,"componentType":5126,"count":288,"type":"VEC3"},{"bufferView":47,"byteOffset":0,"componentType":5126,"count":288,"type":"VEC2"},{"bufferView":48,"byteOffset":0,"componentType":5125,"count":36,"type":"SCALAR"},{"bufferView":49,"byteOffset":0,"componentType":5126,"count":24,"max":[1,1,-0.2773231863975525],"min":[-1,-1,-1],"type":"VEC3"},{"bufferView":50,"byteOffset":0,"componentType":5126,"count":24,"type":"VEC3"},{"bufferView":51,"byteOffset":0,"componentType":5126,"count":24,"type":"VEC2"}],"bufferViews":[{"buffer":0,"byteOffset":0,"byteLength":24,"target":34963},{"buffer":0,"byteOffset":24,"byteLength":48,"target":34962},{"buffer":0,"byteOffset":72,"byteLength":48,"target":34962},{"buffer":0,"byteOffset":120,"byteLength":32,"target":34962},{"buffer":0,"byteOffset":152,"byteLength":15264,"target":34963},{"buffer":0,"byteOffset":15416,"byteLength":13824,"target":34962},{"buffer":0,"byteOffset":29240,"byteLength":13824,"target":34962},{"buffer":0,"byteOffset":43064,"byteLength":9216,"target":34962},{"buffer":0,"byteOffset":52280,"byteLength":15264,"target":34963},{"buffer":0,"byteOffset":67544,"byteLength":13824,"target":34962},{"buffer":0,"byteOffset":81368,"byteLength":13824,"target":34962},{"buffer":0,"byteOffset":95192,"byteLength":9216,"target":34962},{"buffer":0,"byteOffset":104408,"byteLength":24,"target":34963},{"buffer":0,"byteOffset":104432,"byteLength":48,"target":34962},{"buffer":0,"byteOffset":104480,"byteLength":48,"target":34962},{"buffer":0,"byteOffset":104528,"byteLength":32,"target":34962},{"buffer":0,"byteOffset":104560,"byteLength":26124,"target":34963},{"buffer":0,"byteOffset":130684,"byteLength":34632,"target":34962},{"buffer":0,"byteOffset":165316,"byteLength":34632,"target":34962},{"buffer":0,"byteOffset":199948,"byteLength":23088,"target":34962},{"buffer":0,"byteOffset":223036,"byteLength":1536,"target":34963},{"buffer":0,"byteOffset":224572,"byteLength":1728,"target":34962},{"buffer":0,"byteOffset":226300,"byteLength":1728,"target":34962},{"buffer":0,"byteOffset":228028,"byteLength":1152,"target":34962},{"buffer":0,"byteOffset":229180,"byteLength":4056,"target":34963},{"buffer":0,"byteOffset":233236,"byteLength":7248,"target":34962},{"buffer":0,"byteOffset":240484,"byteLength":7248,"target":34962},{"buffer":0,"byteOffset":247732,"byteLength":4832,"target":34962},{"buffer":0,"byteOffset":252564,"byteLength":120,"target":34963},{"buffer":0,"byteOffset":252684,"byteLength":240,"target":34962},{"buffer":0,"byteOffset":252924,"byteLength":240,"target":34962},{"buffer":0,"byteOffset":253164,"byteLength":160,"target":34962},{"buffer":0,"byteOffset":253324,"byteLength":240,"target":34963},{"buffer":0,"byteOffset":253564,"byteLength":480,"target":34962},{"buffer":0,"byteOffset":254044,"byteLength":480,"target":34962},{"buffer":0,"byteOffset":254524,"byteLength":320,"target":34962},{"buffer":0,"byteOffset":254844,"byteLength":864,"target":34963},{"buffer":0,"byteOffset":255708,"byteLength":1152,"target":34962},{"buffer":0,"byteOffset":256860,"byteLength":1152,"target":34962},{"buffer":0,"byteOffset":258012,"byteLength":768,"target":34962},{"buffer":0,"byteOffset":258780,"byteLength":144,"target":34963},{"buffer":0,"byteOffset":258924,"byteLength":288,"target":34962},{"buffer":0,"byteOffset":259212,"byteLength":288,"target":34962},{"buffer":0,"byteOffset":259500,"byteLength":192,"target":34962},{"buffer":0,"byteOffset":259692,"byteLength":6096,"target":34963},{"buffer":0,"byteOffset":265788,"byteLength":3456,"target":34962},{"buffer":0,"byteOffset":269244,"byteLength":3456,"target":34962},{"buffer":0,"byteOffset":272700,"byteLength":2304,"target":34962},{"buffer":0,"byteOffset":275004,"byteLength":144,"target":34963},{"buffer":0,"byteOffset":275148,"byteLength":288,"target":34962},{"buffer":0,"byteOffset":275436,"byteLength":288,"target":34962},{"buffer":0,"byteOffset":275724,"byteLength":192,"target":34962}],"scene":0,"scenes":[{"nodes":[0],"name":"DS"}],"extensionsUsed":["KHR_texture_transform","KHR_materials_clearcoat"],"buffers":[{"byteLength":275916,"uri":"DS.bin"}]}