{"asset":{"version":"2.0","generator":"VECTARY"},"nodes":[{"translation":[0,0,0],"scale":[2.015035692,2.016138888,2.015159829],"rotation":[0,0,0,1],"name":"gameboy_advance","children":[1,2,3,4,5,6,7,8,9,10]},{"translation":[-0.4662930156810283,0.13869666827487914,-0.03374709185176217],"scale":[0.9410880000000003,0.564339,1.160507],"rotation":[0,0,0.7061836149696379,0.7080287437303758],"name":"Plan.005","mesh":0},{"translation":[-0.22494701568102832,0.08841966827487924,-2.068530091851762],"scale":[0.144484,1.507104,0.9198],"rotation":[0.05390848205879625,0,0,0.99854588054937],"name":"Cube.001","mesh":1},{"translation":[-0.2284390156810283,0.022515668274879275,9.081482379436068e-7],"scale":[0.201198,1.716204,3.07564],"rotation":[0,0,0,1],"name":"Cube.002","mesh":2},{"translation":[-0.3003440156810283,0.1474706682748792,-0.03377709185176192],"scale":[1.245531,1.119564,1.119564],"rotation":[0,0,0.7071068305519119,0.7071067318211797],"name":"Plan.006","mesh":3},{"translation":[-0.43749701568102833,0.0523456682748793,-2.1943470918517622],"scale":[0.068499,0.41111500000000006,0.117631],"rotation":[-0.7071068305519119,0,0,0.7071067318211797],"name":"Cube.006","mesh":4},{"translation":[-0.4276060156810283,0.23776366827487916,2.533528908148238],"scale":[0.23033499999999993,0.23033499999999993,0.230335],"rotation":[0,0,0.707106768845206,0.7071067935278889],"name":"Cercle","mesh":5},{"translation":[-0.4186100156810283,-0.09946533172512084,1.920277908148238],"scale":[0.23033499999999993,0.23033499999999993,0.230335],"rotation":[0,0,0.707106768845206,0.7071067935278889],"name":"Cercle.001","mesh":6},{"translation":[-0.4297710156810283,-1.0405553317251206,-1.972293091851762],"scale":[0.06958800000000001,0.15789400000000006,0.098487],"rotation":[0.15351559780374574,-0.15351557771870614,0.6902412195875824,0.6902412530491764],"name":"Cercle.002","mesh":7},{"translation":[-0.42980901568102836,-0.8083903317251208,-1.9127450918517621],"scale":[0.06958799999999997,0.145182,0.09848700000000002],"rotation":[0.15351559780374588,-0.15351558976568827,0.6902412169082301,0.6902412530491763],"name":"Cercle.003","mesh":8},{"translation":[-0.4357110156810283,-0.7739503317251207,2.0922689081482373],"scale":[0.018421999999999994,0.4267469999999999,0.10961300000000002],"rotation":[-0.1223140267762006,0.12231393741950876,0.6964476170248872,0.6964476263920234],"name":"Cercle.004","mesh":9}],"materials":[{"pbrMetallicRoughness":{"baseColorFactor":[0.08021925873621505,0.08021925873621505,0.08021925873621505,1],"metallicFactor":0,"roughnessFactor":0.11467888999999999},"name":"turn off","emissiveFactor":[0,0,0],"extensions":{"KHR_materials_clearcoat":{"clearcoatFactor":0.1834862232208252,"clearcoatRoughnessFactor":0.029999999329447746}},"alphaMode":"OPAQUE","doubleSided":true},{"pbrMetallicRoughness":{"baseColorFactor":[0.8045591138945669,0.8045591138945669,0.8045591138945669,1],"metallicFactor":0,"roughnessFactor":0.76605505},"name":"opaque greyish","emissiveFactor":[0,0,0],"extensions":{"KHR_materials_clearcoat":{"clearcoatFactor":0.22018349170684814,"clearcoatRoughnessFactor":0.029999999329447746}},"alphaMode":"OPAQUE","doubleSided":true},{"pbrMetallicRoughness":{"baseColorFactor":[0.051122050056493396,0.026548682828472916,0.2715774154383751,1],"metallicFactor":0.17431191999999998,"roughnessFactor":0.73853213},"name":"base purple","emissiveFactor":[0,0,0],"extensions":{},"alphaMode":"OPAQUE","doubleSided":true},{"pbrMetallicRoughness":{"baseColorFactor":[0,0,0,1],"metallicFactor":0,"roughnessFactor":0.5},"name":"black black","emissiveFactor":[0,0,0],"extensions":{},"alphaMode":"OPAQUE","doubleSided":true},{"pbrMetallicRoughness":{"baseColorFactor":[0.8045591138945669,0.8045591138945669,0.8045591138945669,1],"metallicFactor":0,"roughnessFactor":0.76605505},"name":"opaque greyish 1","emissiveFactor":[0,0,0],"extensions":{"KHR_materials_clearcoat":{"clearcoatFactor":0.22018349170684814,"clearcoatRoughnessFactor":0.029999999329447746}},"alphaMode":"OPAQUE","doubleSided":true},{"pbrMetallicRoughness":{"baseColorFactor":[0.8045591138945669,0.8045591138945669,0.8045591138945669,1],"metallicFactor":0,"roughnessFactor":0.76605505},"name":"opaque greyish 2","emissiveFactor":[0,0,0],"extensions":{"KHR_materials_clearcoat":{"clearcoatFactor":0.22018349170684814,"clearcoatRoughnessFactor":0.029999999329447746}},"alphaMode":"OPAQUE","doubleSided":true},{"pbrMetallicRoughness":{"baseColorFactor":[0.8045591138945669,0.8045591138945669,0.8045591138945669,1],"metallicFactor":0,"roughnessFactor":0.76605505},"name":"opaque greyish 3","emissiveFactor":[0,0,0],"extensions":{"KHR_materials_clearcoat":{"clearcoatFactor":0.22018349170684814,"clearcoatRoughnessFactor":0.029999999329447746}},"alphaMode":"OPAQUE","doubleSided":true},{"pbrMetallicRoughness":{"baseColorFactor":[0.051122050056493396,0.026548682828472916,0.2715774154383751,1],"metallicFactor":0.17431191999999998,"roughnessFactor":0.73853213},"name":"base purple 1","emissiveFactor":[0,0,0],"extensions":{},"alphaMode":"OPAQUE","doubleSided":true},{"pbrMetallicRoughness":{"baseColorFactor":[0.051122050056493396,0.026548682828472916,0.2715774154383751,1],"metallicFactor":0.17431191999999998,"roughnessFactor":0.73853213},"name":"base purple 2","emissiveFactor":[0,0,0],"extensions":{},"alphaMode":"OPAQUE","doubleSided":true},{"pbrMetallicRoughness":{"baseColorFactor":[0.051122050056493396,0.026548682828472916,0.2715774154383751,1],"metallicFactor":0.17431191999999998,"roughnessFactor":0.73853213},"name":"base purple 3","emissiveFactor":[0,0,0],"extensions":{},"alphaMode":"OPAQUE","doubleSided":true}],"meshes":[{"primitives":[{"mode":4,"attributes":{"POSITION":1,"NORMAL":2,"TEXCOORD_0":3},"material":0,"indices":0}]},{"primitives":[{"mode":4,"attributes":{"POSITION":5,"NORMAL":6,"TEXCOORD_0":7},"material":1,"indices":4}]},{"primitives":[{"mode":4,"attributes":{"POSITION":9,"NORMAL":10,"TEXCOORD_0":11},"material":2,"indices":8}]},{"primitives":[{"mode":4,"attributes":{"POSITION":13,"NORMAL":14,"TEXCOORD_0":15},"material":3,"indices":12}]},{"primitives":[{"mode":4,"attributes":{"POSITION":17,"NORMAL":18,"TEXCOORD_0":19},"material":4,"indices":16}]},{"primitives":[{"mode":4,"attributes":{"POSITION":21,"NORMAL":22,"TEXCOORD_0":23},"material":5,"indices":20}]},{"primitives":[{"mode":4,"attributes":{"POSITION":21,"NORMAL":22,"TEXCOORD_0":23},"material":6,"indices":20}]},{"primitives":[{"mode":4,"attributes":{"POSITION":25,"NORMAL":26,"TEXCOORD_0":27},"material":7,"indices":24}]},{"primitives":[{"mode":4,"attributes":{"POSITION":25,"NORMAL":26,"TEXCOORD_0":27},"material":8,"indices":24}]},{"primitives":[{"mode":4,"attributes":{"POSITION":29,"NORMAL":30,"TEXCOORD_0":31},"material":9,"indices":28}]}],"accessors":[{"bufferView":0,"byteOffset":0,"componentType":5125,"count":6,"type":"SCALAR"},{"bufferView":1,"byteOffset":0,"componentType":5126,"count":4,"max":[1,0,1],"min":[-1.160743236541748,-0.0006287636351771653,-1],"type":"VEC3"},{"bufferView":2,"byteOffset":0,"componentType":5126,"count":4,"type":"VEC3"},{"bufferView":3,"byteOffset":0,"componentType":5126,"count":4,"type":"VEC2"},{"bufferView":4,"byteOffset":0,"componentType":5125,"count":3528,"type":"SCALAR"},{"bufferView":5,"byteOffset":0,"componentType":5126,"count":664,"max":[0.9999999403953552,1.1763994693756104,5.727118015289307],"min":[-0.9999999403953552,-0.9999998807907104,-0.9999999403953552],"type":"VEC3"},{"bufferView":6,"byteOffset":0,"componentType":5126,"count":664,"type":"VEC3"},{"bufferView":7,"byteOffset":0,"componentType":5126,"count":664,"type":"VEC2"},{"bufferView":8,"byteOffset":0,"componentType":5125,"count":11727,"type":"SCALAR"},{"bufferView":9,"byteOffset":0,"componentType":5126,"count":2515,"max":[3.6503098011016846,1,0.9768519401550293],"min":[-1.000000238418579,-1.0262389183044434,-0.9768519401550293],"type":"VEC3"},{"bufferView":10,"byteOffset":0,"componentType":5126,"count":2515,"type":"VEC3"},{"bufferView":11,"byteOffset":0,"componentType":5126,"count":2515,"type":"VEC2"},{"bufferView":12,"byteOffset":0,"componentType":5125,"count":420,"type":"SCALAR"},{"bufferView":13,"byteOffset":0,"componentType":5126,"count":148,"max":[1,0.1287854015827179,1.3699064254760742],"min":[-1.310463786125183,0,-1.3699175119400024],"type":"VEC3"},{"bufferView":14,"byteOffset":0,"componentType":5126,"count":148,"type":"VEC3"},{"bufferView":15,"byteOffset":0,"componentType":5126,"count":148,"type":"VEC2"},{"bufferView":16,"byteOffset":0,"componentType":5125,"count":744,"type":"SCALAR"},{"bufferView":17,"byteOffset":0,"componentType":5126,"count":384,"max":[1,1,3.4949417114257812],"min":[-1,-1,-3.4949417114257812],"type":"VEC3"},{"bufferView":18,"byteOffset":0,"componentType":5126,"count":384,"type":"VEC3"},{"bufferView":19,"byteOffset":0,"componentType":5126,"count":384,"type":"VEC2"},{"bufferView":20,"byteOffset":0,"componentType":5125,"count":1716,"type":"SCALAR"},{"bufferView":21,"byteOffset":0,"componentType":5126,"count":320,"max":[1,0.20171184837818146,1],"min":[-1,0,-1],"type":"VEC3"},{"bufferView":22,"byteOffset":0,"componentType":5126,"count":320,"type":"VEC3"},{"bufferView":23,"byteOffset":0,"componentType":5126,"count":320,"type":"VEC2"},{"bufferView":24,"byteOffset":0,"componentType":5125,"count":384,"type":"SCALAR"},{"bufferView":25,"byteOffset":0,"componentType":5126,"count":132,"max":[1,0.01671256683766842,1],"min":[-1,-0.1287306398153305,-4.824721336364746],"type":"VEC3"},{"bufferView":26,"byteOffset":0,"componentType":5126,"count":132,"type":"VEC3"},{"bufferView":27,"byteOffset":0,"componentType":5126,"count":132,"type":"VEC2"},{"bufferView":28,"byteOffset":0,"componentType":5125,"count":1536,"type":"SCALAR"},{"bufferView":29,"byteOffset":0,"componentType":5126,"count":792,"max":[14.200000762939453,0.01671256683766842,1.8737082481384277],"min":[-1,-0.1287306398153305,-4.824721336364746],"type":"VEC3"},{"bufferView":30,"byteOffset":0,"componentType":5126,"count":792,"type":"VEC3"},{"bufferView":31,"byteOffset":0,"componentType":5126,"count":792,"type":"VEC2"}],"bufferViews":[{"buffer":0,"byteOffset":0,"byteLength":24,"target":34963},{"buffer":0,"byteOffset":24,"byteLength":48,"target":34962},{"buffer":0,"byteOffset":72,"byteLength":48,"target":34962},{"buffer":0,"byteOffset":120,"byteLength":32,"target":34962},{"buffer":0,"byteOffset":152,"byteLength":14112,"target":34963},{"buffer":0,"byteOffset":14264,"byteLength":7968,"target":34962},{"buffer":0,"byteOffset":22232,"byteLength":7968,"target":34962},{"buffer":0,"byteOffset":30200,"byteLength":5312,"target":34962},{"buffer":0,"byteOffset":35512,"byteLength":46908,"target":34963},{"buffer":0,"byteOffset":82420,"byteLength":30180,"target":34962},{"buffer":0,"byteOffset":112600,"byteLength":30180,"target":34962},{"buffer":0,"byteOffset":142780,"byteLength":20120,"target":34962},{"buffer":0,"byteOffset":162900,"byteLength":1680,"target":34963},{"buffer":0,"byteOffset":164580,"byteLength":1776,"target":34962},{"buffer":0,"byteOffset":166356,"byteLength":1776,"target":34962},{"buffer":0,"byteOffset":168132,"byteLength":1184,"target":34962},{"buffer":0,"byteOffset":169316,"byteLength":2976,"target":34963},{"buffer":0,"byteOffset":172292,"byteLength":4608,"target":34962},{"buffer":0,"byteOffset":176900,"byteLength":4608,"target":34962},{"buffer":0,"byteOffset":181508,"byteLength":3072,"target":34962},{"buffer":0,"byteOffset":184580,"byteLength":6864,"target":34963},{"buffer":0,"byteOffset":191444,"byteLength":3840,"target":34962},{"buffer":0,"byteOffset":195284,"byteLength":3840,"target":34962},{"buffer":0,"byteOffset":199124,"byteLength":2560,"target":34962},{"buffer":0,"byteOffset":201684,"byteLength":1536,"target":34963},{"buffer":0,"byteOffset":203220,"byteLength":1584,"target":34962},{"buffer":0,"byteOffset":204804,"byteLength":1584,"target":34962},{"buffer":0,"byteOffset":206388,"byteLength":1056,"target":34962},{"buffer":0,"byteOffset":207444,"byteLength":6144,"target":34963},{"buffer":0,"byteOffset":213588,"byteLength":9504,"target":34962},{"buffer":0,"byteOffset":223092,"byteLength":9504,"target":34962},{"buffer":0,"byteOffset":232596,"byteLength":6336,"target":34962}],"scene":0,"scenes":[{"nodes":[0],"name":"GameBoy_Advance"}],"extensionsUsed":["KHR_texture_transform","KHR_materials_clearcoat"],"buffers":[{"byteLength":238932,"uri":"GameBoy_Advance.bin"}]}