{"asset":{"version":"2.0","generator":"VECTARY"},"nodes":[{"translation":[0,0,0],"scale":[4.187759956,4.187903685999999,4.1918696540000004],"rotation":[0,0,0,1],"name":"gamecube_final","children":[1,4,5,6,7,8,9,10,11,12,13,14,15,16,17,18]},{"translation":[0.6496791746274915,0.15464299999999975,-0.09030900180590162],"scale":[1.40381,1.40381,1.40381],"rotation":[0,0,0,1],"name":"Cube.001","children":[2,3]},{"translation":[0,0,0],"scale":[1,1,1],"rotation":[0,0,0,1],"name":"Cube.001","mesh":0},{"translation":[0,0,0],"scale":[1,1,1],"rotation":[0,0,0,1],"name":"Cube.001","mesh":1},{"translation":[2.6608041746274913,-0.6301820000000001,-0.08591800180590159],"scale":[0.645207,0.645207,0.645207],"rotation":[0,0,0,0.9999999999999998],"name":"Cube.002","mesh":2},{"translation":[-1.3445928253725086,-0.3884510000000002,-0.8425120018059016],"scale":[1.250811,1.25081,1.250811],"rotation":[0,-0.5272025495674203,0,0.8497396493806864],"name":"Cercle","mesh":3},{"translation":[2.0617401746274915,-0.02752200000000015,-0.8288650018059016],"scale":[0.41621299999999994,0.416213,0.41621299999999994],"rotation":[6.123232820160119e-17,0.9999999999999816,6.123232820160118e-17,-1.919862177193749e-7],"name":"Cercle.001","mesh":4},{"translation":[1.4382091746274914,-0.6620260000000001,0.7868849981940982],"scale":[0.25755600000000006,0.25755600000000006,0.257555],"rotation":[0,0,-0.7395560727394972,0.6730949526434821],"name":"Cube","mesh":5},{"translation":[-0.1113898253725085,-0.7928770000000002,1.3064919981940983],"scale":[-0.220595,0.166333,0.075133],"rotation":[6.123233995736766e-17,1,6.123233995736765e-17,-3.749399456654644e-33],"name":"Cube.003","mesh":6},{"translation":[0.8438381746274916,-0.7928770000000002,1.3064919981940983],"scale":[-0.144485,0.160015,0.072279],"rotation":[6.123233995736766e-17,1,6.123233995736766e-17,-3.749399456654644e-33],"name":"Cube.004","mesh":7},{"translation":[0.6130941746274915,-0.5406320000000001,1.0976109981940985],"scale":[1.069942,0.730663,0.730663],"rotation":[0,0,0,1],"name":"Cercle.002","mesh":8},{"translation":[-0.2330848253725085,0.958821,-1.0112230018059014],"scale":[0.225397,0.225397,0.225397],"rotation":[0,0,0,1],"name":"Cercle.003","mesh":9},{"translation":[1.5730531746274916,0.8409030000000001,0.8617719981940986],"scale":[0.212347,0.212347,0.212347],"rotation":[0,0,0,0.9999999999999998],"name":"Cercle.004","mesh":10},{"translation":[1.5730531746274916,0.8385429999999997,-1.0241000018059014],"scale":[0.213339,0.213339,0.213339],"rotation":[0,0,0,1],"name":"Cercle.005","mesh":11},{"translation":[0.6462901746274915,0.958821,-0.07177800180590155],"scale":[0.674481,0.674481,0.674481],"rotation":[0,0,0,1],"name":"Cercle.006","mesh":12},{"translation":[1.5251121746274916,-0.3322760000000001,0.3529669981940984],"scale":[0.6972170000000001,0.045456,0.298505],"rotation":[0,0,-0.07277040021897345,0.9973487197825895],"name":"Cube.005","mesh":13},{"translation":[2.0150181746274916,0.04639399999999994,0.5799369981940985],"scale":[-0.001463,0.019331,0.00258],"rotation":[-0.7071067318211797,0.7071068305519119,4.3297805834531425e-17,4.329779978901768e-17],"name":"Cercle.009","mesh":14},{"translation":[2.0097961746274913,-0.8784230000000001,0.7758649981940984],"scale":[0.080398,0.080398,0.080398],"rotation":[0,0,0,1],"name":"Cube.007","mesh":15},{"translation":[2.0097961746274913,-0.8784230000000001,-0.9630610018059016],"scale":[0.080398,0.080398,0.080398],"rotation":[0,0,0,1],"name":"Cube.008","mesh":16}],"materials":[{"pbrMetallicRoughness":{"baseColorFactor":[0.04145189161146246,0.02201299491933654,0.31118049905798434,1],"metallicFactor":0,"roughnessFactor":0.72018349},"name":"plastic purple 4","emissiveFactor":[0,0,0],"extensions":{"KHR_materials_clearcoat":{"clearcoatFactor":0.036697253584861755,"clearcoatRoughnessFactor":0.029999999329447746}},"alphaMode":"OPAQUE","doubleSided":true},{"pbrMetallicRoughness":{"baseColorFactor":[0.04943345755590796,0.005028203456855535,0.23099812432326744,1],"metallicFactor":0,"roughnessFactor":0.5},"name":"darker plastic purple 4","emissiveFactor":[0,0,0],"extensions":{},"alphaMode":"OPAQUE","doubleSided":true},{"pbrMetallicRoughness":{"baseColorFactor":[0.8122414898984895,0.8277257944550337,0.9573695761995268,1],"metallicFactor":0,"roughnessFactor":0.81651378},"name":"white 4","emissiveFactor":[0,0,0],"extensions":{},"alphaMode":"OPAQUE","doubleSided":true},{"pbrMetallicRoughness":{"baseColorFactor":[0,0,0,1],"metallicFactor":0,"roughnessFactor":0.3440367},"name":"black plastic 4","emissiveFactor":[0,0,0],"extensions":{},"alphaMode":"OPAQUE","doubleSided":true},{"pbrMetallicRoughness":{"baseColorFactor":[0,0,0,1],"metallicFactor":0,"roughnessFactor":0.5},"name":"glossy black 4","emissiveFactor":[0,0,0],"extensions":{},"alphaMode":"OPAQUE","doubleSided":true},{"pbrMetallicRoughness":{"baseColorFactor":[0.8122414898984895,0.8277257944550337,0.9573695761995268,1],"metallicFactor":0,"roughnessFactor":0.81651378},"name":"white 5","emissiveFactor":[0,0,0],"extensions":{},"alphaMode":"OPAQUE","doubleSided":true},{"pbrMetallicRoughness":{"baseColorFactor":[0.04145189161146246,0.02201299491933654,0.31118049905798434,1],"metallicFactor":0,"roughnessFactor":0.72018349},"name":"plastic purple 5","emissiveFactor":[0,0,0],"extensions":{"KHR_materials_clearcoat":{"clearcoatFactor":0.036697253584861755,"clearcoatRoughnessFactor":0.029999999329447746}},"alphaMode":"OPAQUE","doubleSided":true},{"pbrMetallicRoughness":{"baseColorFactor":[0.04145189161146246,0.02201299491933654,0.31118049905798434,1],"metallicFactor":0,"roughnessFactor":0.72018349},"name":"plastic purple 6","emissiveFactor":[0,0,0],"extensions":{"KHR_materials_clearcoat":{"clearcoatFactor":0.036697253584861755,"clearcoatRoughnessFactor":0.029999999329447746}},"alphaMode":"OPAQUE","doubleSided":true},{"pbrMetallicRoughness":{"baseColorFactor":[0.04145189161146246,0.02201299491933654,0.31118049905798434,1],"metallicFactor":0,"roughnessFactor":0.72018349},"name":"plastic purple 7","emissiveFactor":[0,0,0],"extensions":{"KHR_materials_clearcoat":{"clearcoatFactor":0.036697253584861755,"clearcoatRoughnessFactor":0.029999999329447746}},"alphaMode":"OPAQUE","doubleSided":true},{"pbrMetallicRoughness":{"baseColorFactor":[0.8671355375209048,0.8671355375209048,0.8671355375209048,1],"metallicFactor":0,"roughnessFactor":0.2},"name":"Scenario","emissiveFactor":[0,0,0],"extensions":{},"alphaMode":"OPAQUE","doubleSided":false},{"pbrMetallicRoughness":{"baseColorFactor":[0.04145189161146246,0.02201299491933654,0.31118049905798434,1],"metallicFactor":0,"roughnessFactor":0.72018349},"name":"plastic purple 8","emissiveFactor":[0,0,0],"extensions":{"KHR_materials_clearcoat":{"clearcoatFactor":0.036697253584861755,"clearcoatRoughnessFactor":0.029999999329447746}},"alphaMode":"OPAQUE","doubleSided":true},{"pbrMetallicRoughness":{"baseColorFactor":[0.04145189161146246,0.02201299491933654,0.31118049905798434,1],"metallicFactor":0,"roughnessFactor":0.72018349},"name":"plastic purple 9","emissiveFactor":[0,0,0],"extensions":{"KHR_materials_clearcoat":{"clearcoatFactor":0.036697253584861755,"clearcoatRoughnessFactor":0.029999999329447746}},"alphaMode":"OPAQUE","doubleSided":true},{"pbrMetallicRoughness":{"baseColorFactor":[0,0,0,1],"metallicFactor":0,"roughnessFactor":0.5},"name":"glossy black 5","emissiveFactor":[0,0,0],"extensions":{},"alphaMode":"OPAQUE","doubleSided":true},{"pbrMetallicRoughness":{"baseColorFactor":[0,0,0,1],"metallicFactor":0,"roughnessFactor":0.5},"name":"opaque black 4","emissiveFactor":[0,0,0],"extensions":{},"alphaMode":"OPAQUE","doubleSided":true},{"pbrMetallicRoughness":{"baseColorFactor":[1,0.7226724536002546,0.03423020656508195,1],"metallicFactor":1,"roughnessFactor":0.45412844},"name":"gold shiny 4","emissiveFactor":[0,0,0],"extensions":{},"alphaMode":"OPAQUE","doubleSided":true},{"pbrMetallicRoughness":{"baseColorFactor":[0,0,0,1],"metallicFactor":0,"roughnessFactor":0.5},"name":"opaque black 5","emissiveFactor":[0,0,0],"extensions":{},"alphaMode":"OPAQUE","doubleSided":true},{"pbrMetallicRoughness":{"baseColorFactor":[0,0,0,1],"metallicFactor":0,"roughnessFactor":0.5},"name":"opaque black 6","emissiveFactor":[0,0,0],"extensions":{},"alphaMode":"OPAQUE","doubleSided":true}],"meshes":[{"primitives":[{"mode":4,"attributes":{"POSITION":1,"NORMAL":2,"TEXCOORD_0":3},"material":0,"indices":0}]},{"primitives":[{"mode":4,"attributes":{"POSITION":5,"NORMAL":6,"TEXCOORD_0":7},"material":1,"indices":4}]},{"primitives":[{"mode":4,"attributes":{"POSITION":9,"NORMAL":10,"TEXCOORD_0":11},"material":2,"indices":8}]},{"primitives":[{"mode":4,"attributes":{"POSITION":13,"NORMAL":14,"TEXCOORD_0":15},"material":3,"indices":12}]},{"primitives":[{"mode":4,"attributes":{"POSITION":17,"NORMAL":18,"TEXCOORD_0":19},"material":4,"indices":16}]},{"primitives":[{"mode":4,"attributes":{"POSITION":21,"NORMAL":22,"TEXCOORD_0":23},"material":5,"indices":20}]},{"primitives":[{"mode":4,"attributes":{"POSITION":25,"NORMAL":26,"TEXCOORD_0":27},"material":6,"indices":24}]},{"primitives":[{"mode":4,"attributes":{"POSITION":25,"NORMAL":26,"TEXCOORD_0":27},"material":7,"indices":24}]},{"primitives":[{"mode":4,"attributes":{"POSITION":29,"NORMAL":30,"TEXCOORD_0":31},"material":8,"indices":28}]},{"primitives":[{"mode":4,"attributes":{"POSITION":33,"NORMAL":34,"TEXCOORD_0":35},"material":9,"indices":32}]},{"primitives":[{"mode":4,"attributes":{"POSITION":37,"NORMAL":38,"TEXCOORD_0":39},"material":10,"indices":36}]},{"primitives":[{"mode":4,"attributes":{"POSITION":37,"NORMAL":38,"TEXCOORD_0":39},"material":11,"indices":36}]},{"primitives":[{"mode":4,"attributes":{"POSITION":33,"NORMAL":34,"TEXCOORD_0":35},"material":12,"indices":32}]},{"primitives":[{"mode":4,"attributes":{"POSITION":41,"NORMAL":42,"TEXCOORD_0":43},"material":13,"indices":40}]},{"primitives":[{"mode":4,"attributes":{"POSITION":45,"NORMAL":46,"TEXCOORD_0":47},"material":14,"indices":44}]},{"primitives":[{"mode":4,"attributes":{"POSITION":49,"NORMAL":50,"TEXCOORD_0":51},"material":15,"indices":48}]},{"primitives":[{"mode":4,"attributes":{"POSITION":49,"NORMAL":50,"TEXCOORD_0":51},"material":16,"indices":48}]}],"accessors":[{"bufferView":0,"byteOffset":0,"componentType":5125,"count":6249,"type":"SCALAR"},{"bufferView":1,"byteOffset":0,"componentType":5126,"count":2736,"max":[0.9999995827674866,0.5700033903121948,0.9999995827674866],"min":[-0.9999995827674866,-0.7754487991333008,-0.9999995827674866],"type":"VEC3"},{"bufferView":2,"byteOffset":0,"componentType":5126,"count":2736,"type":"VEC3"},{"bufferView":3,"byteOffset":0,"componentType":5126,"count":2736,"type":"VEC2"},{"bufferView":4,"byteOffset":0,"componentType":5125,"count":2487,"type":"SCALAR"},{"bufferView":5,"byteOffset":0,"componentType":5126,"count":1488,"max":[0.34310153126716614,0.2414681315422058,0.9999995827674866],"min":[-0.37340879440307617,-0.41977888345718384,0.35674819350242615],"type":"VEC3"},{"bufferView":6,"byteOffset":0,"componentType":5126,"count":1488,"type":"VEC3"},{"bufferView":7,"byteOffset":0,"componentType":5126,"count":1488,"type":"VEC2"},{"bufferView":8,"byteOffset":0,"componentType":5125,"count":2040,"type":"SCALAR"},{"bufferView":9,"byteOffset":0,"componentType":5126,"count":700,"max":[-0.8565752506256104,1.9137581586837769,1.726888656616211],"min":[-1.0002827644348145,-0.08653902262449265,-1.729405403137207],"type":"VEC3"},{"bufferView":10,"byteOffset":0,"componentType":5126,"count":700,"type":"VEC3"},{"bufferView":11,"byteOffset":0,"componentType":5126,"count":700,"type":"VEC2"},{"bufferView":12,"byteOffset":0,"componentType":5125,"count":840,"type":"SCALAR"},{"bufferView":13,"byteOffset":0,"componentType":5126,"count":261,"max":[1.6663984060287476,0.16883301734924316,1],"min":[-0.33360159397125244,0,-1],"type":"VEC3"},{"bufferView":14,"byteOffset":0,"componentType":5126,"count":261,"type":"VEC3"},{"bufferView":15,"byteOffset":0,"componentType":5126,"count":261,"type":"VEC2"},{"bufferView":16,"byteOffset":0,"componentType":5125,"count":1488,"type":"SCALAR"},{"bufferView":17,"byteOffset":0,"componentType":5126,"count":512,"max":[0.8213664293289185,0.35933932662010193,0.3593400716781616],"min":[-5.066394805908203e-7,-0.3593408763408661,-3.7852885723114014],"type":"VEC3"},{"bufferView":18,"byteOffset":0,"componentType":5126,"count":512,"type":"VEC3"},{"bufferView":19,"byteOffset":0,"componentType":5126,"count":512,"type":"VEC2"},{"bufferView":20,"byteOffset":0,"componentType":5125,"count":456,"type":"SCALAR"},{"bufferView":21,"byteOffset":0,"componentType":5126,"count":164,"max":[-0.9348651170730591,2.4706525802612305,-0.4936099648475647],"min":[-1.4472522735595703,-0.9999996423721313,-6.613099098205566],"type":"VEC3"},{"bufferView":22,"byteOffset":0,"componentType":5126,"count":164,"type":"VEC3"},{"bufferView":23,"byteOffset":0,"componentType":5126,"count":164,"type":"VEC2"},{"bufferView":24,"byteOffset":0,"componentType":5125,"count":36,"type":"SCALAR"},{"bufferView":25,"byteOffset":0,"componentType":5126,"count":24,"max":[1,1.0539894104003906,1],"min":[-1,-0.7842288017272949,-0.27913588285446167],"type":"VEC3"},{"bufferView":26,"byteOffset":0,"componentType":5126,"count":24,"type":"VEC3"},{"bufferView":27,"byteOffset":0,"componentType":5126,"count":24,"type":"VEC2"},{"bufferView":28,"byteOffset":0,"componentType":5125,"count":372,"type":"SCALAR"},{"bufferView":29,"byteOffset":0,"componentType":5126,"count":128,"max":[0.5426679849624634,0.07768905907869339,0.5426679849624634],"min":[-0.5426679849624634,2.7259113721811445e-7,-0.5426679849624634],"type":"VEC3"},{"bufferView":30,"byteOffset":0,"componentType":5126,"count":128,"type":"VEC3"},{"bufferView":31,"byteOffset":0,"componentType":5126,"count":128,"type":"VEC2"},{"bufferView":32,"byteOffset":0,"componentType":5125,"count":90,"type":"SCALAR"},{"bufferView":33,"byteOffset":0,"componentType":5126,"count":32,"max":[1,0,1],"min":[-1,0,-1],"type":"VEC3"},{"bufferView":34,"byteOffset":0,"componentType":5126,"count":32,"type":"VEC3"},{"bufferView":35,"byteOffset":0,"componentType":5126,"count":32,"type":"VEC2"},{"bufferView":36,"byteOffset":0,"componentType":5125,"count":372,"type":"SCALAR"},{"bufferView":37,"byteOffset":0,"componentType":5126,"count":128,"max":[1,0.4922749400138855,1],"min":[-1,0,-1],"type":"VEC3"},{"bufferView":38,"byteOffset":0,"componentType":5126,"count":128,"type":"VEC3"},{"bufferView":39,"byteOffset":0,"componentType":5126,"count":128,"type":"VEC2"},{"bufferView":40,"byteOffset":0,"componentType":5125,"count":2916,"type":"SCALAR"},{"bufferView":41,"byteOffset":0,"componentType":5126,"count":566,"max":[1.0017304420471191,1.383981466293335,1.0446070432662964],"min":[-1.0020856857299805,-1.320380449295044,-1.0185396671295166],"type":"VEC3"},{"bufferView":42,"byteOffset":0,"componentType":5126,"count":566,"type":"VEC3"},{"bufferView":43,"byteOffset":0,"componentType":5126,"count":566,"type":"VEC2"},{"bufferView":44,"byteOffset":0,"componentType":5125,"count":13776,"type":"SCALAR"},{"bufferView":45,"byteOffset":0,"componentType":5126,"count":2304,"max":[1.0000003576278687,0,542.800048828125],"min":[-1,-4.730362892150879,-1],"type":"VEC3"},{"bufferView":46,"byteOffset":0,"componentType":5126,"count":2304,"type":"VEC3"},{"bufferView":47,"byteOffset":0,"componentType":5126,"count":2304,"type":"VEC2"},{"bufferView":48,"byteOffset":0,"componentType":5125,"count":36,"type":"SCALAR"},{"bufferView":49,"byteOffset":0,"componentType":5126,"count":24,"max":[1,1,1],"min":[-1,-1,-1],"type":"VEC3"},{"bufferView":50,"byteOffset":0,"componentType":5126,"count":24,"type":"VEC3"},{"bufferView":51,"byteOffset":0,"componentType":5126,"count":24,"type":"VEC2"}],"bufferViews":[{"buffer":0,"byteOffset":0,"byteLength":24996,"target":34963},{"buffer":0,"byteOffset":24996,"byteLength":32832,"target":34962},{"buffer":0,"byteOffset":57828,"byteLength":32832,"target":34962},{"buffer":0,"byteOffset":90660,"byteLength":21888,"target":34962},{"buffer":0,"byteOffset":112548,"byteLength":9948,"target":34963},{"buffer":0,"byteOffset":122496,"byteLength":17856,"target":34962},{"buffer":0,"byteOffset":140352,"byteLength":17856,"target":34962},{"buffer":0,"byteOffset":158208,"byteLength":11904,"target":34962},{"buffer":0,"byteOffset":170112,"byteLength":8160,"target":34963},{"buffer":0,"byteOffset":178272,"byteLength":8400,"target":34962},{"buffer":0,"byteOffset":186672,"byteLength":8400,"target":34962},{"buffer":0,"byteOffset":195072,"byteLength":5600,"target":34962},{"buffer":0,"byteOffset":200672,"byteLength":3360,"target":34963},{"buffer":0,"byteOffset":204032,"byteLength":3132,"target":34962},{"buffer":0,"byteOffset":207164,"byteLength":3132,"target":34962},{"buffer":0,"byteOffset":210296,"byteLength":2088,"target":34962},{"buffer":0,"byteOffset":212384,"byteLength":5952,"target":34963},{"buffer":0,"byteOffset":218336,"byteLength":6144,"target":34962},{"buffer":0,"byteOffset":224480,"byteLength":6144,"target":34962},{"buffer":0,"byteOffset":230624,"byteLength":4096,"target":34962},{"buffer":0,"byteOffset":234720,"byteLength":1824,"target":34963},{"buffer":0,"byteOffset":236544,"byteLength":1968,"target":34962},{"buffer":0,"byteOffset":238512,"byteLength":1968,"target":34962},{"buffer":0,"byteOffset":240480,"byteLength":1312,"target":34962},{"buffer":0,"byteOffset":241792,"byteLength":144,"target":34963},{"buffer":0,"byteOffset":241936,"byteLength":288,"target":34962},{"buffer":0,"byteOffset":242224,"byteLength":288,"target":34962},{"buffer":0,"byteOffset":242512,"byteLength":192,"target":34962},{"buffer":0,"byteOffset":242704,"byteLength":1488,"target":34963},{"buffer":0,"byteOffset":244192,"byteLength":1536,"target":34962},{"buffer":0,"byteOffset":245728,"byteLength":1536,"target":34962},{"buffer":0,"byteOffset":247264,"byteLength":1024,"target":34962},{"buffer":0,"byteOffset":248288,"byteLength":360,"target":34963},{"buffer":0,"byteOffset":248648,"byteLength":384,"target":34962},{"buffer":0,"byteOffset":249032,"byteLength":384,"target":34962},{"buffer":0,"byteOffset":249416,"byteLength":256,"target":34962},{"buffer":0,"byteOffset":249672,"byteLength":1488,"target":34963},{"buffer":0,"byteOffset":251160,"byteLength":1536,"target":34962},{"buffer":0,"byteOffset":252696,"byteLength":1536,"target":34962},{"buffer":0,"byteOffset":254232,"byteLength":1024,"target":34962},{"buffer":0,"byteOffset":255256,"byteLength":11664,"target":34963},{"buffer":0,"byteOffset":266920,"byteLength":6792,"target":34962},{"buffer":0,"byteOffset":273712,"byteLength":6792,"target":34962},{"buffer":0,"byteOffset":280504,"byteLength":4528,"target":34962},{"buffer":0,"byteOffset":285032,"byteLength":55104,"target":34963},{"buffer":0,"byteOffset":340136,"byteLength":27648,"target":34962},{"buffer":0,"byteOffset":367784,"byteLength":27648,"target":34962},{"buffer":0,"byteOffset":395432,"byteLength":18432,"target":34962},{"buffer":0,"byteOffset":413864,"byteLength":144,"target":34963},{"buffer":0,"byteOffset":414008,"byteLength":288,"target":34962},{"buffer":0,"byteOffset":414296,"byteLength":288,"target":34962},{"buffer":0,"byteOffset":414584,"byteLength":192,"target":34962}],"scene":0,"scenes":[{"nodes":[0],"name":"GameCube"}],"extensionsUsed":["KHR_texture_transform","KHR_materials_clearcoat"],"buffers":[{"byteLength":414776,"uri":"GameCube.bin"}]}