{"asset":{"version":"2.0","generator":"VECTARY"},"nodes":[{"translation":[0,0,0],"scale":[6.958961755000001,6.9620677870000005,6.958645769],"rotation":[0,0,0,1],"name":"gameboy","children":[1,2,3,6,7,8,9,10]},{"translation":[-0.09598358573341366,0.733001994080424,0.007708114471435601],"scale":[1.237728,1.015972,0.890148],"rotation":[0,0,0,1],"name":"Cube","mesh":0},{"translation":[-0.5903345857334136,0.13220299408042463,-0.007723885528564289],"scale":[0.592888,1.179114,0.7254],"rotation":[0,0,-0.0024099482983776475,0.9999970960703832],"name":"Plan","mesh":1},{"translation":[0.32202541426658626,0.10203899408042455,0.39587611447143567],"scale":[-0.059751,0.040649,0.203033],"rotation":[0,0,0,1],"name":"Cube.001","children":[4,5]},{"translation":[0,0,0],"scale":[1,1,1],"rotation":[0,0,0,1],"name":"Cube.001","mesh":2},{"translation":[0,0,0],"scale":[1,1,1],"rotation":[0,0,0,1],"name":"Cube.001","mesh":3},{"translation":[0.29154741426658626,0.1138909940804243,-0.5827878855285643],"scale":[0.109591,0.010134,0.109591],"rotation":[0,0,0,1],"name":"Cylindre","mesh":4},{"translation":[0.5262464142665861,0.11339299408042441,-0.3418598855285643],"scale":[0.109591,0.009622,0.109591],"rotation":[0,0,0,1],"name":"Cylindre.001","mesh":5},{"translation":[-0.5973485857334135,0.13284199408042424,-0.029427885528564235],"scale":[0.516929,1.237728,0.502462],"rotation":[0,0,0,1],"name":"Plan.001","mesh":6},{"translation":[0.8657774142665862,0.12545299408042437,0.06421411447143577],"scale":[-0.027512,0.012852,0.10734700000000001],"rotation":[3.240103967213473e-17,0.9203186470849026,3.240103967213473e-17,-0.3911695129068913],"name":"Cube.003","mesh":7},{"translation":[0.9091034142665863,0.11685699408042455,0.27213411447143565],"scale":[-0.027512,0.012852,0.10734700000000001],"rotation":[3.240103967213473e-17,0.9203186470849026,3.240103967213473e-17,-0.3911695129068913],"name":"Cube.004","mesh":8}],"materials":[{"pbrMetallicRoughness":{"baseColorFactor":[0.9743002023888613,0.940600707035753,0.7011695015314021,1],"metallicFactor":0.38532111,"roughnessFactor":0.60091746},"name":"Material","emissiveFactor":[0,0,0],"extensions":{"KHR_materials_clearcoat":{"clearcoatFactor":0.05587156,"clearcoatRoughnessFactor":0.029999999329447746}},"alphaMode":"OPAQUE","doubleSided":true},{"pbrMetallicRoughness":{"baseColorFactor":[0.22331040834112742,0.22331040834112742,0.22331040834112742,1],"metallicFactor":0,"roughnessFactor":0.46330273},"name":"Matériau.004","emissiveFactor":[0,0,0],"extensions":{},"alphaMode":"OPAQUE","doubleSided":true},{"pbrMetallicRoughness":{"baseColorFactor":[0,0,0,1],"metallicFactor":0,"roughnessFactor":0.5},"name":"Matériau.003","emissiveFactor":[0,0,0],"extensions":{},"alphaMode":"OPAQUE","doubleSided":true},{"pbrMetallicRoughness":{"baseColorFactor":[0,0,0,1],"metallicFactor":0,"roughnessFactor":0.5},"name":"Matériau.002","emissiveFactor":[0,0,0],"extensions":{},"alphaMode":"OPAQUE","doubleSided":true},{"pbrMetallicRoughness":{"baseColorFactor":[0.7969165429079781,0.025371276904734584,0.08690125178766034,1],"metallicFactor":0,"roughnessFactor":0.5},"name":"Matériau 3","emissiveFactor":[0,0,0],"extensions":{},"alphaMode":"OPAQUE","doubleSided":true},{"pbrMetallicRoughness":{"baseColorFactor":[0.7969165429079781,0.025371276904734584,0.08690125178766034,1],"metallicFactor":0,"roughnessFactor":0.5},"name":"Matériau.001","emissiveFactor":[0,0,0],"extensions":{},"alphaMode":"OPAQUE","doubleSided":true},{"pbrMetallicRoughness":{"baseColorFactor":[0.19397216704809314,0.7969165429079781,0.07592611945626479,1],"metallicFactor":0,"roughnessFactor":1},"name":"Matériau.005","emissiveFactor":[0,0,0],"extensions":{"KHR_materials_transmission":{"transmissionFactor":0.8073394298553467},"KHR_materials_ior":{"ior":1.4500000476837158},"KHR_materials_volume":{"thicknessFactor":0.01,"attenuationDistance":0.01,"attenuationColor":[1,1,1]},"KHR_materials_clearcoat":{"clearcoatFactor":0.5688073635101318,"clearcoatRoughnessFactor":0.029999999329447746}},"alphaMode":"OPAQUE","doubleSided":true},{"pbrMetallicRoughness":{"baseColorFactor":[0.1572807278900734,0.1572807278900734,0.1572807278900734,1],"metallicFactor":0,"roughnessFactor":0.5},"name":"Matériau.006","emissiveFactor":[0,0,0],"extensions":{},"alphaMode":"OPAQUE","doubleSided":true},{"pbrMetallicRoughness":{"baseColorFactor":[0.1572807278900734,0.1572807278900734,0.1572807278900734,1],"metallicFactor":0,"roughnessFactor":0.5},"name":"Matériau.007","emissiveFactor":[0,0,0],"extensions":{},"alphaMode":"OPAQUE","doubleSided":true}],"meshes":[{"primitives":[{"mode":4,"attributes":{"POSITION":1,"NORMAL":2,"TEXCOORD_0":3,"TEXCOORD_1":4},"material":0,"indices":0}]},{"primitives":[{"mode":4,"attributes":{"POSITION":6,"NORMAL":7,"TEXCOORD_0":8},"material":1,"indices":5}]},{"primitives":[{"mode":4,"attributes":{"POSITION":10,"NORMAL":11,"TEXCOORD_0":12},"material":2,"indices":9}]},{"primitives":[{"mode":4,"attributes":{"POSITION":14,"NORMAL":15,"TEXCOORD_0":16},"material":3,"indices":13}]},{"primitives":[{"mode":4,"attributes":{"POSITION":18,"NORMAL":19,"TEXCOORD_0":20},"material":4,"indices":17}]},{"primitives":[{"mode":4,"attributes":{"POSITION":18,"NORMAL":19,"TEXCOORD_0":20},"material":5,"indices":17}]},{"primitives":[{"mode":4,"attributes":{"POSITION":22,"NORMAL":23,"TEXCOORD_0":24},"material":6,"indices":21}]},{"primitives":[{"mode":4,"attributes":{"POSITION":26,"NORMAL":27,"TEXCOORD_0":28},"material":7,"indices":25}]},{"primitives":[{"mode":4,"attributes":{"POSITION":26,"NORMAL":27,"TEXCOORD_0":28},"material":8,"indices":25}]}],"accessors":[{"bufferView":0,"byteOffset":0,"componentType":5125,"count":675,"type":"SCALAR"},{"bufferView":1,"byteOffset":0,"componentType":5126,"count":274,"max":[1.1565594673156738,-0.6048016548156738,1.002468228340149],"min":[-1.0014630556106567,-0.875495195388794,-1.0197869539260864],"type":"VEC3"},{"bufferView":2,"byteOffset":0,"componentType":5126,"count":274,"type":"VEC3"},{"bufferView":3,"byteOffset":0,"componentType":5126,"count":274,"type":"VEC2"},{"bufferView":4,"byteOffset":0,"componentType":5126,"count":274,"type":"VEC2"},{"bufferView":5,"byteOffset":0,"componentType":5125,"count":36,"type":"SCALAR"},{"bufferView":6,"byteOffset":0,"componentType":5126,"count":24,"max":[1.0226986408233643,-0.010919928550720215,1],"min":[-1,-0.03487778455018997,-1.0226986408233643],"type":"VEC3"},{"bufferView":7,"byteOffset":0,"componentType":5126,"count":24,"type":"VEC3"},{"bufferView":8,"byteOffset":0,"componentType":5126,"count":24,"type":"VEC2"},{"bufferView":9,"byteOffset":0,"componentType":5125,"count":36,"type":"SCALAR"},{"bufferView":10,"byteOffset":0,"componentType":5126,"count":24,"max":[1,1.3392117023468018,1.5330636501312256],"min":[-1,-0.6607882976531982,-0.4669364094734192],"type":"VEC3"},{"bufferView":11,"byteOffset":0,"componentType":5126,"count":24,"type":"VEC3"},{"bufferView":12,"byteOffset":0,"componentType":5126,"count":24,"type":"VEC2"},{"bufferView":13,"byteOffset":0,"componentType":5125,"count":36,"type":"SCALAR"},{"bufferView":14,"byteOffset":0,"componentType":5126,"count":24,"max":[3.474484443664551,1.334385871887207,0.8304869532585144],"min":[-3.3559439182281494,-0.665614128112793,0.20641940832138062],"type":"VEC3"},{"bufferView":15,"byteOffset":0,"componentType":5126,"count":24,"type":"VEC3"},{"bufferView":16,"byteOffset":0,"componentType":5126,"count":24,"type":"VEC2"},{"bufferView":17,"byteOffset":0,"componentType":5125,"count":372,"type":"SCALAR"},{"bufferView":18,"byteOffset":0,"componentType":5126,"count":130,"max":[1,1,1],"min":[-1,-1,-1],"type":"VEC3"},{"bufferView":19,"byteOffset":0,"componentType":5126,"count":130,"type":"VEC3"},{"bufferView":20,"byteOffset":0,"componentType":5126,"count":130,"type":"VEC2"},{"bufferView":21,"byteOffset":0,"componentType":5125,"count":6,"type":"SCALAR"},{"bufferView":22,"byteOffset":0,"componentType":5126,"count":4,"max":[1,0,1],"min":[-1,0,-1],"type":"VEC3"},{"bufferView":23,"byteOffset":0,"componentType":5126,"count":4,"type":"VEC3"},{"bufferView":24,"byteOffset":0,"componentType":5126,"count":4,"type":"VEC2"},{"bufferView":25,"byteOffset":0,"componentType":5125,"count":576,"type":"SCALAR"},{"bufferView":26,"byteOffset":0,"componentType":5126,"count":298,"max":[1,1,1.5330636501312256],"min":[-1,-1,-0.4669364094734192],"type":"VEC3"},{"bufferView":27,"byteOffset":0,"componentType":5126,"count":298,"type":"VEC3"},{"bufferView":28,"byteOffset":0,"componentType":5126,"count":298,"type":"VEC2"}],"bufferViews":[{"buffer":0,"byteOffset":0,"byteLength":2700,"target":34963},{"buffer":0,"byteOffset":2700,"byteLength":3288,"target":34962},{"buffer":0,"byteOffset":5988,"byteLength":3288,"target":34962},{"buffer":0,"byteOffset":9276,"byteLength":2192,"target":34962},{"buffer":0,"byteOffset":11468,"byteLength":2192,"target":34962},{"buffer":0,"byteOffset":13660,"byteLength":144,"target":34963},{"buffer":0,"byteOffset":13804,"byteLength":288,"target":34962},{"buffer":0,"byteOffset":14092,"byteLength":288,"target":34962},{"buffer":0,"byteOffset":14380,"byteLength":192,"target":34962},{"buffer":0,"byteOffset":14572,"byteLength":144,"target":34963},{"buffer":0,"byteOffset":14716,"byteLength":288,"target":34962},{"buffer":0,"byteOffset":15004,"byteLength":288,"target":34962},{"buffer":0,"byteOffset":15292,"byteLength":192,"target":34962},{"buffer":0,"byteOffset":15484,"byteLength":144,"target":34963},{"buffer":0,"byteOffset":15628,"byteLength":288,"target":34962},{"buffer":0,"byteOffset":15916,"byteLength":288,"target":34962},{"buffer":0,"byteOffset":16204,"byteLength":192,"target":34962},{"buffer":0,"byteOffset":16396,"byteLength":1488,"target":34963},{"buffer":0,"byteOffset":17884,"byteLength":1560,"target":34962},{"buffer":0,"byteOffset":19444,"byteLength":1560,"target":34962},{"buffer":0,"byteOffset":21004,"byteLength":1040,"target":34962},{"buffer":0,"byteOffset":22044,"byteLength":24,"target":34963},{"buffer":0,"byteOffset":22068,"byteLength":48,"target":34962},{"buffer":0,"byteOffset":22116,"byteLength":48,"target":34962},{"buffer":0,"byteOffset":22164,"byteLength":32,"target":34962},{"buffer":0,"byteOffset":22196,"byteLength":2304,"target":34963},{"buffer":0,"byteOffset":24500,"byteLength":3576,"target":34962},{"buffer":0,"byteOffset":28076,"byteLength":3576,"target":34962},{"buffer":0,"byteOffset":31652,"byteLength":2384,"target":34962}],"scene":0,"scenes":[{"nodes":[0],"name":"GameBoy"}],"extensionsUsed":["KHR_texture_transform","KHR_materials_ior","KHR_materials_volume","KHR_materials_transmission","KHR_materials_clearcoat"],"buffers":[{"byteLength":34036,"uri":"GameBoy.bin"}]}