{"asset":{"version":"2.0","generator":"VECTARY"},"nodes":[{"translation":[0,0,0],"scale":[2.299880033,2.3000077620000003,2.301867875],"rotation":[0,0,0,1],"name":"n64","children":[1,5,6,7,8,9,10]},{"translation":[-3.7737453001396304e-7,-0.4153580275470614,-0.18134120597124115],"scale":[3.399427,0.788813,2.539558],"rotation":[0,0,0,1],"name":"Cube","children":[2,3,4]},{"translation":[0,0,0],"scale":[1,1,1],"rotation":[0,0,0,1],"name":"Cube","mesh":0},{"translation":[0,0,0],"scale":[1,1,1],"rotation":[0,0,0,1],"name":"Cube","mesh":1},{"translation":[0,0,0],"scale":[1,1,1],"rotation":[0,0,0,1],"name":"Cube","mesh":2},{"translation":[-0.76275537737453,-0.45367102754706146,-0.24187220597124082],"scale":[0.788813,0.4445,0.637433],"rotation":[0,0,0,1],"name":"Cercle","mesh":3},{"translation":[0.0016336226254699826,0.23517197245293855,-1.2497252059712411],"scale":[1.582201,0.024201,0.240532],"rotation":[0,0,0,1],"name":"Cube.003","mesh":4},{"translation":[-3.7737453001396304e-7,0.1858159724529386,2.329679794028759],"scale":[0.4182139999999997,0.340431,0.038038],"rotation":[0,0,0.9999999999999969,-7.85398164894792e-8],"name":"Cube.004","mesh":5},{"translation":[-1.27061637737453,-0.29953102754706146,2.470065794028759],"scale":[0.159797,0.12913100000000005,0.15979699999999997],"rotation":[0.7071068305519116,0,0,0.70710673182118],"name":"Cercle.002","mesh":6},{"translation":[1.94970562262547,0.35101797245293864,1.224792794028759],"scale":[0.314444,0.314444,0.17732],"rotation":[0,0,0,1],"name":"Cercle.007","mesh":7},{"translation":[-1.96649437737453,0.3754319724529386,1.4486267940287592],"scale":[0.287281,0.508963,0.16687399999999994],"rotation":[0.7071068305519119,0,0,0.7071067318211797],"name":"Cercle.008","mesh":8}],"materials":[{"pbrMetallicRoughness":{"baseColorFactor":[0.006584957382581685,0.006584957382581685,0.006584957382581685,1],"metallicFactor":0,"roughnessFactor":0.33486238},"name":"glossy black 1","emissiveFactor":[0,0,0],"extensions":{},"alphaMode":"OPAQUE","doubleSided":true},{"pbrMetallicRoughness":{"baseColorFactor":[0.006584957382581685,0.006584957382581685,0.006584957382581685,1],"metallicFactor":0,"roughnessFactor":0.33486238},"name":"glossy black 2","emissiveFactor":[0,0,0],"extensions":{},"alphaMode":"OPAQUE","doubleSided":true},{"pbrMetallicRoughness":{"baseColorFactor":[0.006584957382581685,0.006584957382581685,0.006584957382581685,1],"metallicFactor":0,"roughnessFactor":0.33486238},"name":"glossy black 3","emissiveFactor":[0,0,0],"extensions":{},"alphaMode":"OPAQUE","doubleSided":true},{"pbrMetallicRoughness":{"baseColorFactor":[0.006584957382581685,0.006584957382581685,0.006584957382581685,1],"metallicFactor":0,"roughnessFactor":0.33486238},"name":"glossy black 6","emissiveFactor":[0,0,0],"extensions":{},"alphaMode":"OPAQUE","doubleSided":true},{"pbrMetallicRoughness":{"baseColorFactor":[0.2801243652610849,0.2801243652610849,0.2801243652610849,1],"metallicFactor":0,"roughnessFactor":0.36238532999999995},"name":"opaque grey","emissiveFactor":[0,0,0],"extensions":{},"alphaMode":"OPAQUE","doubleSided":true},{"pbrMetallicRoughness":{"baseColorFactor":[1,1,1,1],"baseColorTexture":{"index":0,"extensions":{"KHR_texture_transform":{"offset":[-1.03,0.01],"scale":[4,5],"rotation":-1.5707963267948966}},"texCoord":0},"metallicFactor":0,"roughnessFactor":0.2},"name":"Unity","emissiveFactor":[0,0,0],"extensions":{},"alphaMode":"OPAQUE","doubleSided":false},{"pbrMetallicRoughness":{"baseColorFactor":[0.2801243652610849,0.2801243652610849,0.2801243652610849,1],"metallicFactor":0,"roughnessFactor":0.36238532999999995},"name":"opaque grey 1","emissiveFactor":[0,0,0],"extensions":{},"alphaMode":"OPAQUE","doubleSided":true},{"pbrMetallicRoughness":{"baseColorFactor":[0.006584957382581685,0.006584957382581685,0.006584957382581685,1],"metallicFactor":0,"roughnessFactor":0.33486238},"name":"glossy black 7","emissiveFactor":[0,0,0],"extensions":{},"alphaMode":"OPAQUE","doubleSided":true},{"pbrMetallicRoughness":{"baseColorFactor":[0.006584957382581685,0.006584957382581685,0.006584957382581685,1],"metallicFactor":0,"roughnessFactor":0.33486238},"name":"glossy black 8","emissiveFactor":[0,0,0],"extensions":{},"alphaMode":"OPAQUE","doubleSided":true}],"meshes":[{"primitives":[{"mode":4,"attributes":{"POSITION":1,"NORMAL":2,"TEXCOORD_0":3,"TEXCOORD_1":4},"material":0,"indices":0}]},{"primitives":[{"mode":4,"attributes":{"POSITION":6,"NORMAL":7,"TEXCOORD_0":8,"TEXCOORD_1":9},"material":1,"indices":5}]},{"primitives":[{"mode":4,"attributes":{"POSITION":11,"NORMAL":12,"TEXCOORD_0":13,"TEXCOORD_1":14},"material":2,"indices":10}]},{"primitives":[{"mode":4,"attributes":{"POSITION":16,"NORMAL":17,"TEXCOORD_0":18},"material":3,"indices":15}]},{"primitives":[{"mode":4,"attributes":{"POSITION":20,"NORMAL":21,"TEXCOORD_0":22},"material":4,"indices":19}]},{"primitives":[{"mode":4,"attributes":{"POSITION":24,"NORMAL":25,"TEXCOORD_0":26},"material":5,"indices":23}]},{"primitives":[{"mode":4,"attributes":{"POSITION":28,"NORMAL":29,"TEXCOORD_0":30},"material":6,"indices":27}]},{"primitives":[{"mode":4,"attributes":{"POSITION":32,"NORMAL":33,"TEXCOORD_0":34},"material":7,"indices":31}]},{"primitives":[{"mode":4,"attributes":{"POSITION":36,"NORMAL":37,"TEXCOORD_0":38},"material":8,"indices":35}]}],"accessors":[{"bufferView":0,"byteOffset":0,"componentType":5125,"count":6705,"type":"SCALAR"},{"bufferView":1,"byteOffset":0,"componentType":5126,"count":2294,"max":[0.9999999403953552,1.351352334022522,1],"min":[-0.9999999403953552,-0.17720787227153778,-1],"type":"VEC3"},{"bufferView":2,"byteOffset":0,"componentType":5126,"count":2294,"type":"VEC3"},{"bufferView":3,"byteOffset":0,"componentType":5126,"count":2294,"type":"VEC2"},{"bufferView":4,"byteOffset":0,"componentType":5126,"count":2294,"type":"VEC2"},{"bufferView":5,"byteOffset":0,"componentType":5125,"count":336,"type":"SCALAR"},{"bufferView":6,"byteOffset":0,"componentType":5126,"count":224,"max":[0.9999999403953552,0.16527985036373138,0.09202732145786285],"min":[0.8889011740684509,-0.17720787227153778,-0.38425496220588684],"type":"VEC3"},{"bufferView":7,"byteOffset":0,"componentType":5126,"count":224,"type":"VEC3"},{"bufferView":8,"byteOffset":0,"componentType":5126,"count":224,"type":"VEC2"},{"bufferView":9,"byteOffset":0,"componentType":5126,"count":224,"type":"VEC2"},{"bufferView":10,"byteOffset":0,"componentType":5125,"count":3132,"type":"SCALAR"},{"bufferView":11,"byteOffset":0,"componentType":5126,"count":1121,"max":[0.6442641019821167,1.3501043319702148,0.17309436202049255],"min":[-0.5629284977912903,-0.17720787227153778,-1],"type":"VEC3"},{"bufferView":12,"byteOffset":0,"componentType":5126,"count":1121,"type":"VEC3"},{"bufferView":13,"byteOffset":0,"componentType":5126,"count":1121,"type":"VEC2"},{"bufferView":14,"byteOffset":0,"componentType":5126,"count":1121,"type":"VEC2"},{"bufferView":15,"byteOffset":0,"componentType":5125,"count":792,"type":"SCALAR"},{"bufferView":16,"byteOffset":0,"componentType":5126,"count":276,"max":[5.88498592376709,0.6008999347686768,4.64797306060791],"min":[-3.9510538578033447,-0.443048894405365,1.3682546615600586],"type":"VEC3"},{"bufferView":17,"byteOffset":0,"componentType":5126,"count":276,"type":"VEC3"},{"bufferView":18,"byteOffset":0,"componentType":5126,"count":276,"type":"VEC2"},{"bufferView":19,"byteOffset":0,"componentType":5125,"count":2916,"type":"SCALAR"},{"bufferView":20,"byteOffset":0,"componentType":5126,"count":555,"max":[1,1.9930729866027832,1],"min":[-1,0.0015115439891815186,-1],"type":"VEC3"},{"bufferView":21,"byteOffset":0,"componentType":5126,"count":555,"type":"VEC3"},{"bufferView":22,"byteOffset":0,"componentType":5126,"count":555,"type":"VEC2"},{"bufferView":23,"byteOffset":0,"componentType":5125,"count":2916,"type":"SCALAR"},{"bufferView":24,"byteOffset":0,"componentType":5126,"count":564,"max":[1.1165004968643188,1,1.1165004968643188],"min":[-1.1165004968643188,-1,-1.1165004968643188],"type":"VEC3"},{"bufferView":25,"byteOffset":0,"componentType":5126,"count":564,"type":"VEC3"},{"bufferView":26,"byteOffset":0,"componentType":5126,"count":564,"type":"VEC2"},{"bufferView":27,"byteOffset":0,"componentType":5125,"count":4512,"type":"SCALAR"},{"bufferView":28,"byteOffset":0,"componentType":5126,"count":1504,"max":[17.236417770385742,0.0023081302642822266,1.3585830926895142],"min":[-1.3335429430007935,-2.9435641765594482,-1.3156131505966187],"type":"VEC3"},{"bufferView":29,"byteOffset":0,"componentType":5126,"count":1504,"type":"VEC3"},{"bufferView":30,"byteOffset":0,"componentType":5126,"count":1504,"type":"VEC2"},{"bufferView":31,"byteOffset":0,"componentType":5125,"count":3456,"type":"SCALAR"},{"bufferView":32,"byteOffset":0,"componentType":5126,"count":612,"max":[1,0.30506956577301025,3.713317632675171],"min":[-1,0,-1],"type":"VEC3"},{"bufferView":33,"byteOffset":0,"componentType":5126,"count":612,"type":"VEC3"},{"bufferView":34,"byteOffset":0,"componentType":5126,"count":612,"type":"VEC2"},{"bufferView":35,"byteOffset":0,"componentType":5125,"count":3828,"type":"SCALAR"},{"bufferView":36,"byteOffset":0,"componentType":5126,"count":810,"max":[1.0114825963974,0.8779572248458862,0.14624126255512238],"min":[-1.0514463186264038,-0.7413323521614075,-1],"type":"VEC3"},{"bufferView":37,"byteOffset":0,"componentType":5126,"count":810,"type":"VEC3"},{"bufferView":38,"byteOffset":0,"componentType":5126,"count":810,"type":"VEC2"}],"bufferViews":[{"buffer":0,"byteOffset":0,"byteLength":26820,"target":34963},{"buffer":0,"byteOffset":26820,"byteLength":27528,"target":34962},{"buffer":0,"byteOffset":54348,"byteLength":27528,"target":34962},{"buffer":0,"byteOffset":81876,"byteLength":18352,"target":34962},{"buffer":0,"byteOffset":100228,"byteLength":18352,"target":34962},{"buffer":0,"byteOffset":118580,"byteLength":1344,"target":34963},{"buffer":0,"byteOffset":119924,"byteLength":2688,"target":34962},{"buffer":0,"byteOffset":122612,"byteLength":2688,"target":34962},{"buffer":0,"byteOffset":125300,"byteLength":1792,"target":34962},{"buffer":0,"byteOffset":127092,"byteLength":1792,"target":34962},{"buffer":0,"byteOffset":128884,"byteLength":12528,"target":34963},{"buffer":0,"byteOffset":141412,"byteLength":13452,"target":34962},{"buffer":0,"byteOffset":154864,"byteLength":13452,"target":34962},{"buffer":0,"byteOffset":168316,"byteLength":8968,"target":34962},{"buffer":0,"byteOffset":177284,"byteLength":8968,"target":34962},{"buffer":0,"byteOffset":186252,"byteLength":3168,"target":34963},{"buffer":0,"byteOffset":189420,"byteLength":3312,"target":34962},{"buffer":0,"byteOffset":192732,"byteLength":3312,"target":34962},{"buffer":0,"byteOffset":196044,"byteLength":2208,"target":34962},{"buffer":0,"byteOffset":198252,"byteLength":11664,"target":34963},{"buffer":0,"byteOffset":209916,"byteLength":6660,"target":34962},{"buffer":0,"byteOffset":216576,"byteLength":6660,"target":34962},{"buffer":0,"byteOffset":223236,"byteLength":4440,"target":34962},{"buffer":0,"byteOffset":227676,"byteLength":11664,"target":34963},{"buffer":0,"byteOffset":239340,"byteLength":6768,"target":34962},{"buffer":0,"byteOffset":246108,"byteLength":6768,"target":34962},{"buffer":0,"byteOffset":252876,"byteLength":4512,"target":34962},{"buffer":0,"byteOffset":257388,"byteLength":18048,"target":34963},{"buffer":0,"byteOffset":275436,"byteLength":18048,"target":34962},{"buffer":0,"byteOffset":293484,"byteLength":18048,"target":34962},{"buffer":0,"byteOffset":311532,"byteLength":12032,"target":34962},{"buffer":0,"byteOffset":323564,"byteLength":13824,"target":34963},{"buffer":0,"byteOffset":337388,"byteLength":7344,"target":34962},{"buffer":0,"byteOffset":344732,"byteLength":7344,"target":34962},{"buffer":0,"byteOffset":352076,"byteLength":4896,"target":34962},{"buffer":0,"byteOffset":356972,"byteLength":15312,"target":34963},{"buffer":0,"byteOffset":372284,"byteLength":9720,"target":34962},{"buffer":0,"byteOffset":382004,"byteLength":9720,"target":34962},{"buffer":0,"byteOffset":391724,"byteLength":6480,"target":34962}],"textures":[{"sampler":0,"source":0}],"images":[{"uri":"n64_logo.png","mimeType":"image/png"}],"samplers":[{"wrapS":10497,"wrapT":10497}],"scene":0,"scenes":[{"nodes":[0],"name":"N64"}],"extensionsUsed":["KHR_texture_transform"],"buffers":[{"byteLength":398204,"uri":"N64.bin"}]}