{"asset":{"version":"2.0","generator":"VECTARY"},"nodes":[{"translation":[0,0,0],"scale":[1,1,1],"rotation":[0,0,0,1],"name":"nes","children":[1,2,7,8,11,14]},{"translation":[-3.3962259999999995,-0.9412379999999997,5.73837],"scale":[0.567141,0.228229,0.401851],"rotation":[0,0,0,1],"name":"Cube.003","mesh":0},{"translation":[0,3.3306690738754696e-16,-0.09426500000000004],"scale":[6.739867,2.020129,6.168862],"rotation":[0,0,0,1],"name":"Cube.004","children":[3,4,5,6]},{"translation":[0,0,0],"scale":[1,1,1],"rotation":[0,0,0,1],"name":"Cube.004","mesh":1},{"translation":[0,0,0],"scale":[1,1,1],"rotation":[0,0,0,1],"name":"Cube.004","mesh":2},{"translation":[0,0,0],"scale":[1,1,1],"rotation":[0,0,0,1],"name":"Cube.004","mesh":3},{"translation":[0,0,0],"scale":[1,1,1],"rotation":[0,0,0,1],"name":"Cube.004","mesh":4},{"translation":[3.9915660000000006,-0.9658099999999996,5.782314999999999],"scale":[0.038977,0.175213,0.480812],"rotation":[0,0,0,1],"name":"Cube.008","mesh":5},{"translation":[3.6924960000000002,-0.4231309999999997,-5.432152],"scale":[0.165679,0.150147,0.165679],"rotation":[-0.7071068305519119,0,0,0.7071067318211797],"name":"Cercle","children":[9,10]},{"translation":[0,0,0],"scale":[1,1,1],"rotation":[0,0,0,1],"name":"Cercle","mesh":6},{"translation":[0,0,0],"scale":[1,1,1],"rotation":[0,0,0,1],"name":"Cercle","mesh":7},{"translation":[5.943682000000001,-0.38277699999999965,-4.860461000000001],"scale":[0.165679,0.133304,0.165679],"rotation":[-0.5,-0.4999999999999999,-0.5,0.5000000000000001],"name":"Cercle.002","children":[12,13]},{"translation":[0,0,0],"scale":[1,1,1],"rotation":[0,0,0,1],"name":"Cercle.002","mesh":8},{"translation":[0,0,0],"scale":[1,1,1],"rotation":[0,0,0,1],"name":"Cercle.002","mesh":9},{"translation":[5.943682000000001,-0.38277699999999965,-5.339286],"scale":[0.165679,0.133304,0.165679],"rotation":[-0.5,-0.4999999999999999,-0.5,0.5000000000000001],"name":"Cercle.003","children":[15,16]},{"translation":[0,0,0],"scale":[1,1,1],"rotation":[0,0,0,1],"name":"Cercle.003","mesh":10},{"translation":[0,0,0],"scale":[1,1,1],"rotation":[0,0,0,1],"name":"Cercle.003","mesh":11}],"materials":[{"pbrMetallicRoughness":{"baseColorFactor":[0.08021925873621505,0.08021925873621505,0.08021925873621505,1],"metallicFactor":0,"roughnessFactor":0.5},"name":"dark grey","emissiveFactor":[0,0,0],"extensions":{},"alphaMode":"OPAQUE","doubleSided":true},{"pbrMetallicRoughness":{"baseColorFactor":[0.598941789493296,0.6054842999109072,0.7011695015314021,1],"metallicFactor":0,"roughnessFactor":0.5},"name":"light grey","emissiveFactor":[0,0,0],"extensions":{},"alphaMode":"OPAQUE","doubleSided":true},{"pbrMetallicRoughness":{"baseColorFactor":[0.08021925873621505,0.08021925873621505,0.08021925873621505,1],"metallicFactor":0,"roughnessFactor":0.5},"name":"dark grey 1","emissiveFactor":[0,0,0],"extensions":{},"alphaMode":"OPAQUE","doubleSided":true},{"pbrMetallicRoughness":{"baseColorFactor":[0.011881334434813665,0.011881334434813665,0.011881334434813665,1],"metallicFactor":0,"roughnessFactor":0.5},"name":"black","emissiveFactor":[0,0,0],"extensions":{},"alphaMode":"OPAQUE","doubleSided":true},{"pbrMetallicRoughness":{"baseColorFactor":[0.7969165429079781,0.7969165429079781,0.7969165429079781,1],"metallicFactor":0,"roughnessFactor":0.5},"name":"Matériau","emissiveFactor":[0,0,0],"extensions":{},"alphaMode":"OPAQUE","doubleSided":true},{"pbrMetallicRoughness":{"baseColorFactor":[0.011881334434813665,0.011881334434813665,0.011881334434813665,1],"metallicFactor":0,"roughnessFactor":0.5},"name":"black 1","emissiveFactor":[0,0,0],"extensions":{},"alphaMode":"OPAQUE","doubleSided":true},{"pbrMetallicRoughness":{"baseColorFactor":[0.19397216704809314,0.19397216704809314,0.19397216704809314,1],"metallicFactor":1,"roughnessFactor":0.5},"name":"metal","emissiveFactor":[0,0,0],"extensions":{},"alphaMode":"OPAQUE","doubleSided":true},{"pbrMetallicRoughness":{"baseColorFactor":[0.8671355375209048,0.8671355375209048,0.8671355375209048,1],"metallicFactor":0,"roughnessFactor":0.5},"name":"white","emissiveFactor":[0,0,0],"extensions":{},"alphaMode":"OPAQUE","doubleSided":true},{"pbrMetallicRoughness":{"baseColorFactor":[0.19397216704809314,0.19397216704809314,0.19397216704809314,1],"metallicFactor":1,"roughnessFactor":0.5},"name":"metal 1","emissiveFactor":[0,0,0],"extensions":{},"alphaMode":"OPAQUE","doubleSided":true},{"pbrMetallicRoughness":{"baseColorFactor":[0.7969165429079781,0.0055217448502396585,0.005028203456855535,1],"metallicFactor":0,"roughnessFactor":0.5},"name":"red","emissiveFactor":[0,0,0],"extensions":{},"alphaMode":"OPAQUE","doubleSided":true},{"pbrMetallicRoughness":{"baseColorFactor":[0.19397216704809314,0.19397216704809314,0.19397216704809314,1],"metallicFactor":1,"roughnessFactor":0.5},"name":"metal 2","emissiveFactor":[0,0,0],"extensions":{},"alphaMode":"OPAQUE","doubleSided":true},{"pbrMetallicRoughness":{"baseColorFactor":[0.7969165429079781,0.6800203421720954,0.002262953160706434,1],"metallicFactor":0,"roughnessFactor":0.5},"name":"yellow","emissiveFactor":[0,0,0],"extensions":{},"alphaMode":"OPAQUE","doubleSided":true}],"meshes":[{"primitives":[{"mode":4,"attributes":{"POSITION":1,"NORMAL":2,"TEXCOORD_0":3},"material":0,"indices":0}]},{"primitives":[{"mode":4,"attributes":{"POSITION":5,"NORMAL":6,"TEXCOORD_0":7},"material":1,"indices":4}]},{"primitives":[{"mode":4,"attributes":{"POSITION":9,"NORMAL":10,"TEXCOORD_0":11},"material":2,"indices":8}]},{"primitives":[{"mode":4,"attributes":{"POSITION":13,"NORMAL":14,"TEXCOORD_0":15},"material":3,"indices":12}]},{"primitives":[{"mode":4,"attributes":{"POSITION":17,"NORMAL":18,"TEXCOORD_0":19},"material":4,"indices":16}]},{"primitives":[{"mode":4,"attributes":{"POSITION":21,"NORMAL":22,"TEXCOORD_0":23},"material":5,"indices":20}]},{"primitives":[{"mode":4,"attributes":{"POSITION":25,"NORMAL":26,"TEXCOORD_0":27},"material":6,"indices":24}]},{"primitives":[{"mode":4,"attributes":{"POSITION":29,"NORMAL":30,"TEXCOORD_0":31},"material":7,"indices":28}]},{"primitives":[{"mode":4,"attributes":{"POSITION":25,"NORMAL":26,"TEXCOORD_0":27},"material":8,"indices":24}]},{"primitives":[{"mode":4,"attributes":{"POSITION":29,"NORMAL":30,"TEXCOORD_0":31},"material":9,"indices":28}]},{"primitives":[{"mode":4,"attributes":{"POSITION":25,"NORMAL":26,"TEXCOORD_0":27},"material":10,"indices":24}]},{"primitives":[{"mode":4,"attributes":{"POSITION":29,"NORMAL":30,"TEXCOORD_0":31},"material":11,"indices":28}]}],"accessors":[{"bufferView":0,"byteOffset":0,"componentType":5125,"count":72,"type":"SCALAR"},{"bufferView":1,"byteOffset":0,"componentType":5126,"count":48,"max":[3.200000047683716,1,1],"min":[-1,-1,-1],"type":"VEC3"},{"bufferView":2,"byteOffset":0,"componentType":5126,"count":48,"type":"VEC3"},{"bufferView":3,"byteOffset":0,"componentType":5126,"count":48,"type":"VEC2"},{"bufferView":4,"byteOffset":0,"componentType":5125,"count":1176,"type":"SCALAR"},{"bufferView":5,"byteOffset":0,"componentType":5126,"count":572,"max":[1.002651333808899,1,1],"min":[-1.002651333808899,-0.9967228174209595,-1],"type":"VEC3"},{"bufferView":6,"byteOffset":0,"componentType":5126,"count":572,"type":"VEC3"},{"bufferView":7,"byteOffset":0,"componentType":5126,"count":572,"type":"VEC2"},{"bufferView":8,"byteOffset":0,"componentType":5125,"count":3057,"type":"SCALAR"},{"bufferView":9,"byteOffset":0,"componentType":5126,"count":985,"max":[1.002651333808899,0,1],"min":[-1.002651333808899,-1,-1],"type":"VEC3"},{"bufferView":10,"byteOffset":0,"componentType":5126,"count":985,"type":"VEC3"},{"bufferView":11,"byteOffset":0,"componentType":5126,"count":985,"type":"VEC2"},{"bufferView":12,"byteOffset":0,"componentType":5125,"count":1392,"type":"SCALAR"},{"bufferView":13,"byteOffset":0,"componentType":5126,"count":474,"max":[0.8337756991386414,1,1],"min":[0.5115511417388916,-0.976456344127655,-1],"type":"VEC3"},{"bufferView":14,"byteOffset":0,"componentType":5126,"count":474,"type":"VEC3"},{"bufferView":15,"byteOffset":0,"componentType":5126,"count":474,"type":"VEC2"},{"bufferView":16,"byteOffset":0,"componentType":5125,"count":24,"type":"SCALAR"},{"bufferView":17,"byteOffset":0,"componentType":5126,"count":16,"max":[-0.6252771615982056,-0.42166149616241455,1],"min":[-0.6612294912338257,-0.5416110754013062,0.9614567756652832],"type":"VEC3"},{"bufferView":18,"byteOffset":0,"componentType":5126,"count":16,"type":"VEC3"},{"bufferView":19,"byteOffset":0,"componentType":5126,"count":16,"type":"VEC2"},{"bufferView":20,"byteOffset":0,"componentType":5125,"count":72,"type":"SCALAR"},{"bufferView":21,"byteOffset":0,"componentType":5126,"count":48,"max":[31.39999771118164,1,1],"min":[-1,-1,-1],"type":"VEC3"},{"bufferView":22,"byteOffset":0,"componentType":5126,"count":48,"type":"VEC3"},{"bufferView":23,"byteOffset":0,"componentType":5126,"count":48,"type":"VEC2"},{"bufferView":24,"byteOffset":0,"componentType":5125,"count":1344,"type":"SCALAR"},{"bufferView":25,"byteOffset":0,"componentType":5126,"count":256,"max":[1,4.6644287109375,1],"min":[-1,0,-1],"type":"VEC3"},{"bufferView":26,"byteOffset":0,"componentType":5126,"count":256,"type":"VEC3"},{"bufferView":27,"byteOffset":0,"componentType":5126,"count":256,"type":"VEC2"},{"bufferView":28,"byteOffset":0,"componentType":5125,"count":1344,"type":"SCALAR"},{"bufferView":29,"byteOffset":0,"componentType":5126,"count":256,"max":[1,5.318509101867676,1],"min":[-1,4.6644287109375,-1],"type":"VEC3"},{"bufferView":30,"byteOffset":0,"componentType":5126,"count":256,"type":"VEC3"},{"bufferView":31,"byteOffset":0,"componentType":5126,"count":256,"type":"VEC2"}],"bufferViews":[{"buffer":0,"byteOffset":0,"byteLength":288,"target":34963},{"buffer":0,"byteOffset":288,"byteLength":576,"target":34962},{"buffer":0,"byteOffset":864,"byteLength":576,"target":34962},{"buffer":0,"byteOffset":1440,"byteLength":384,"target":34962},{"buffer":0,"byteOffset":1824,"byteLength":4704,"target":34963},{"buffer":0,"byteOffset":6528,"byteLength":6864,"target":34962},{"buffer":0,"byteOffset":13392,"byteLength":6864,"target":34962},{"buffer":0,"byteOffset":20256,"byteLength":4576,"target":34962},{"buffer":0,"byteOffset":24832,"byteLength":12228,"target":34963},{"buffer":0,"byteOffset":37060,"byteLength":11820,"target":34962},{"buffer":0,"byteOffset":48880,"byteLength":11820,"target":34962},{"buffer":0,"byteOffset":60700,"byteLength":7880,"target":34962},{"buffer":0,"byteOffset":68580,"byteLength":5568,"target":34963},{"buffer":0,"byteOffset":74148,"byteLength":5688,"target":34962},{"buffer":0,"byteOffset":79836,"byteLength":5688,"target":34962},{"buffer":0,"byteOffset":85524,"byteLength":3792,"target":34962},{"buffer":0,"byteOffset":89316,"byteLength":96,"target":34963},{"buffer":0,"byteOffset":89412,"byteLength":192,"target":34962},{"buffer":0,"byteOffset":89604,"byteLength":192,"target":34962},{"buffer":0,"byteOffset":89796,"byteLength":128,"target":34962},{"buffer":0,"byteOffset":89924,"byteLength":288,"target":34963},{"buffer":0,"byteOffset":90212,"byteLength":576,"target":34962},{"buffer":0,"byteOffset":90788,"byteLength":576,"target":34962},{"buffer":0,"byteOffset":91364,"byteLength":384,"target":34962},{"buffer":0,"byteOffset":91748,"byteLength":5376,"target":34963},{"buffer":0,"byteOffset":97124,"byteLength":3072,"target":34962},{"buffer":0,"byteOffset":100196,"byteLength":3072,"target":34962},{"buffer":0,"byteOffset":103268,"byteLength":2048,"target":34962},{"buffer":0,"byteOffset":105316,"byteLength":5376,"target":34963},{"buffer":0,"byteOffset":110692,"byteLength":3072,"target":34962},{"buffer":0,"byteOffset":113764,"byteLength":3072,"target":34962},{"buffer":0,"byteOffset":116836,"byteLength":2048,"target":34962}],"scene":0,"scenes":[{"nodes":[0],"name":"NES"}],"extensionsUsed":["KHR_texture_transform"],"buffers":[{"byteLength":118884,"uri":"NES.bin"}]}