{"asset":{"version":"2.0","generator":"VECTARY"},"nodes":[{"translation":[0,0,0],"scale":[3.8504843120000003,3.8475776489999998,3.845047617],"rotation":[0,0,0,1],"name":"snes","children":[1,2,6,7,10,11,12,13,14,15,16]},{"translation":[-0.22386248273044299,-0.12049551069228419,-0.0018967055436966973],"scale":[1.922081,0.492328,1.542379],"rotation":[0,0,0,1],"name":"Cube.001","mesh":0},{"translation":[-0.11414548273044292,-0.29132751069228424,0.0007572944563034589],"scale":[2.144656,0.289618,1.637491],"rotation":[0,0,0,1],"name":"Cube.004","children":[3,4,5]},{"translation":[0,0,0],"scale":[1,1,1],"rotation":[0,0,0,1],"name":"Cube.004","mesh":1},{"translation":[0,0,0],"scale":[1,1,1],"rotation":[0,0,0,1],"name":"Cube.004","mesh":2},{"translation":[0,0,0],"scale":[1,1,1],"rotation":[0,0,0,1],"name":"Cube.004","mesh":3},{"translation":[-0.436995482730443,0.3377164893077159,0.6880742944563032],"scale":[0.210827,0.119389,0.225963],"rotation":[0,0,-0.011845796175179519,0.9999298360950012],"name":"Cube.005","mesh":4},{"translation":[-0.297798482730443,-0.02697651069228428,-0.0018967055436966973],"scale":[1.639395,0.42774,1.340036],"rotation":[0,0,0,1],"name":"Cube.006","children":[8,9]},{"translation":[0,0,0],"scale":[1,1,1],"rotation":[0,0,0,1],"name":"Cube.006","mesh":5},{"translation":[0,0,0],"scale":[1,1,1],"rotation":[0,0,0,1],"name":"Cube.006","mesh":6},{"translation":[-0.794849482730443,0.3383074893077159,0.025902294456303432],"scale":[0.3924679999999998,0.21180300000000002,0.30203999999999986],"rotation":[-0.012229949609523116,-0.7070010304134753,-0.012229949609523116,0.7070009898574268],"name":"Cercle","mesh":7},{"translation":[-1.9053514827304432,-0.19444051069228413,-0.20595770554369675],"scale":[0.106096,0.077035,0.072877],"rotation":[0,0,-0.7071068305519119,0.7071067318211797],"name":"Cercle.001","mesh":8},{"translation":[-1.951215482730443,-0.1895235106922843,-0.7227107055436967],"scale":[0.058483,0.058483,0.058483],"rotation":[0,0,0.7071068305519119,0.7071067318211797],"name":"Cercle.002","mesh":9},{"translation":[-1.9365264827304434,-0.18935651069228426,-0.4282507055436966],"scale":[0.055512,0.442958,0.14242],"rotation":[0,0,0.7091814275933278,0.7050260298433595],"name":"Plan","mesh":10},{"translation":[-0.436995482730443,0.4379204893077159,-0.6473547055436968],"scale":[0.229464,0.003924,0.245938],"rotation":[0,0,-0.010564185461947411,0.9999441974357998],"name":"Cube.010","mesh":11},{"translation":[-0.429957482730443,0.4465314893077158,-0.40551970554369654],"scale":[0.069571,0.069571,0.069571],"rotation":[-0.7071068305519119,0,0,0.7071067318211797],"name":"Cercle.005","mesh":12},{"translation":[0.5408995172695571,0.42730248930771586,0.02201929445630335],"scale":[0.020803,0.445645,1.144727],"rotation":[0,0,-0.7071068305519119,0.7071067318211797],"name":"Cube.009","mesh":13}],"materials":[{"pbrMetallicRoughness":{"baseColorFactor":[0.5924380303208466,0.5924380303208466,0.5924380303208466,1],"metallicFactor":0,"roughnessFactor":0.79357803},"name":"plastic grey","emissiveFactor":[0,0,0],"extensions":{"KHR_materials_clearcoat":{"clearcoatFactor":0.03669724985957146,"clearcoatRoughnessFactor":0.029999999329447746}},"alphaMode":"OPAQUE","doubleSided":true},{"pbrMetallicRoughness":{"baseColorFactor":[0.5924380303208466,0.5924380303208466,0.5924380303208466,1],"metallicFactor":0,"roughnessFactor":0.79357803},"name":"plastic grey 1","emissiveFactor":[0,0,0],"extensions":{"KHR_materials_clearcoat":{"clearcoatFactor":0.03669724985957146,"clearcoatRoughnessFactor":0.029999999329447746}},"alphaMode":"OPAQUE","doubleSided":true},{"pbrMetallicRoughness":{"baseColorFactor":[0.5924380303208466,0.5924380303208466,0.5924380303208466,1],"metallicFactor":0,"roughnessFactor":0.79357803},"name":"plastic grey 2","emissiveFactor":[0,0,0],"extensions":{"KHR_materials_clearcoat":{"clearcoatFactor":0.03669724985957146,"clearcoatRoughnessFactor":0.029999999329447746}},"alphaMode":"OPAQUE","doubleSided":true},{"pbrMetallicRoughness":{"baseColorFactor":[0.5924380303208466,0.5924380303208466,0.5924380303208466,1],"metallicFactor":0,"roughnessFactor":0.79357803},"name":"plastic grey 3","emissiveFactor":[0,0,0],"extensions":{"KHR_materials_clearcoat":{"clearcoatFactor":0.03669724985957146,"clearcoatRoughnessFactor":0.029999999329447746}},"alphaMode":"OPAQUE","doubleSided":true},{"pbrMetallicRoughness":{"baseColorFactor":[0.04455262731642138,0.04455262731642138,0.04455262731642138,1],"metallicFactor":0.43119264,"roughnessFactor":1},"name":"very dark grey glossy ","emissiveFactor":[0,0,0],"extensions":{"KHR_materials_clearcoat":{"clearcoatFactor":0.11009174585342407,"clearcoatRoughnessFactor":0.029999999329447746}},"alphaMode":"OPAQUE","doubleSided":true},{"pbrMetallicRoughness":{"baseColorFactor":[0.6120655998656237,0.6186857274987796,0.7154654323350483,1],"metallicFactor":0.64220184,"roughnessFactor":0.5},"name":"plastic dark grey","emissiveFactor":[0,0,0],"extensions":{},"alphaMode":"OPAQUE","doubleSided":true},{"pbrMetallicRoughness":{"baseColorFactor":[0.6120655998656237,0.6186857274987796,0.7154654323350483,1],"metallicFactor":0.64220184,"roughnessFactor":0.5},"name":"plastic dark grey 1","emissiveFactor":[0,0,0],"extensions":{},"alphaMode":"OPAQUE","doubleSided":true},{"pbrMetallicRoughness":{"baseColorFactor":[0.6120655998656237,0.6186857274987796,0.7154654323350483,1],"metallicFactor":0.64220184,"roughnessFactor":0.5},"name":"plastic dark grey 2","emissiveFactor":[0,0,0],"extensions":{},"alphaMode":"OPAQUE","doubleSided":true},{"pbrMetallicRoughness":{"baseColorFactor":[0.5924380303208466,0.5924380303208466,0.5924380303208466,1],"metallicFactor":0,"roughnessFactor":0.79357803},"name":"plastic grey 4","emissiveFactor":[0,0,0],"extensions":{"KHR_materials_clearcoat":{"clearcoatFactor":0.03669724985957146,"clearcoatRoughnessFactor":0.029999999329447746}},"alphaMode":"OPAQUE","doubleSided":true},{"pbrMetallicRoughness":{"baseColorFactor":[0.5924380303208466,0.5924380303208466,0.5924380303208466,1],"metallicFactor":0,"roughnessFactor":0.79357803},"name":"plastic grey 5","emissiveFactor":[0,0,0],"extensions":{"KHR_materials_clearcoat":{"clearcoatFactor":0.03669724985957146,"clearcoatRoughnessFactor":0.029999999329447746}},"alphaMode":"OPAQUE","doubleSided":true},{"pbrMetallicRoughness":{"baseColorFactor":[0.5924380303208466,0.5924380303208466,0.5924380303208466,1],"metallicFactor":0,"roughnessFactor":0.79357803},"name":"plastic grey 6","emissiveFactor":[0,0,0],"extensions":{"KHR_materials_clearcoat":{"clearcoatFactor":0.03669724985957146,"clearcoatRoughnessFactor":0.029999999329447746}},"alphaMode":"OPAQUE","doubleSided":true},{"pbrMetallicRoughness":{"baseColorFactor":[0.04455262731642138,0.04455262731642138,0.04455262731642138,1],"metallicFactor":0.43119264,"roughnessFactor":1},"name":"very dark grey glossy  1","emissiveFactor":[0,0,0],"extensions":{"KHR_materials_clearcoat":{"clearcoatFactor":0.11009174585342407,"clearcoatRoughnessFactor":0.029999999329447746}},"alphaMode":"OPAQUE","doubleSided":true},{"pbrMetallicRoughness":{"baseColorFactor":[0.04455262731642138,0.04455262731642138,0.04455262731642138,1],"metallicFactor":0.43119264,"roughnessFactor":1},"name":"very dark grey glossy  2","emissiveFactor":[0,0,0],"extensions":{"KHR_materials_clearcoat":{"clearcoatFactor":0.11009174585342407,"clearcoatRoughnessFactor":0.029999999329447746}},"alphaMode":"OPAQUE","doubleSided":true},{"pbrMetallicRoughness":{"baseColorFactor":[0.6120655998656237,0.6186857274987796,0.7154654323350483,1],"metallicFactor":0.64220184,"roughnessFactor":0.5},"name":"plastic dark grey 3","emissiveFactor":[0,0,0],"extensions":{},"alphaMode":"OPAQUE","doubleSided":true}],"meshes":[{"primitives":[{"mode":4,"attributes":{"POSITION":1,"NORMAL":2,"TEXCOORD_0":3},"material":0,"indices":0}]},{"primitives":[{"mode":4,"attributes":{"POSITION":5,"NORMAL":6,"TEXCOORD_0":7},"material":1,"indices":4}]},{"primitives":[{"mode":4,"attributes":{"POSITION":9,"NORMAL":10,"TEXCOORD_0":11},"material":2,"indices":8}]},{"primitives":[{"mode":4,"attributes":{"POSITION":13,"NORMAL":14,"TEXCOORD_0":15},"material":3,"indices":12}]},{"primitives":[{"mode":4,"attributes":{"POSITION":17,"NORMAL":18,"TEXCOORD_0":19},"material":4,"indices":16}]},{"primitives":[{"mode":4,"attributes":{"POSITION":21,"NORMAL":22,"TEXCOORD_0":23},"material":5,"indices":20}]},{"primitives":[{"mode":4,"attributes":{"POSITION":25,"NORMAL":26,"TEXCOORD_0":27},"material":6,"indices":24}]},{"primitives":[{"mode":4,"attributes":{"POSITION":29,"NORMAL":30,"TEXCOORD_0":31},"material":7,"indices":28}]},{"primitives":[{"mode":4,"attributes":{"POSITION":33,"NORMAL":34,"TEXCOORD_0":35},"material":8,"indices":32}]},{"primitives":[{"mode":4,"attributes":{"POSITION":37,"NORMAL":38,"TEXCOORD_0":39},"material":9,"indices":36}]},{"primitives":[{"mode":4,"attributes":{"POSITION":41,"NORMAL":42,"TEXCOORD_0":43},"material":10,"indices":40}]},{"primitives":[{"mode":4,"attributes":{"POSITION":17,"NORMAL":18,"TEXCOORD_0":19},"material":11,"indices":16}]},{"primitives":[{"mode":4,"attributes":{"POSITION":45,"NORMAL":46,"TEXCOORD_0":47},"material":12,"indices":44}]},{"primitives":[{"mode":4,"attributes":{"POSITION":49,"NORMAL":50,"TEXCOORD_0":51},"material":13,"indices":48}]}],"accessors":[{"bufferView":0,"byteOffset":0,"componentType":5125,"count":480,"type":"SCALAR"},{"bufferView":1,"byteOffset":0,"componentType":5126,"count":179,"max":[1.1048896312713623,1.1574651002883911,1],"min":[-0.8927625417709351,-0.8197009563446045,-1],"type":"VEC3"},{"bufferView":2,"byteOffset":0,"componentType":5126,"count":179,"type":"VEC3"},{"bufferView":3,"byteOffset":0,"componentType":5126,"count":179,"type":"VEC2"},{"bufferView":4,"byteOffset":0,"componentType":5125,"count":6621,"type":"SCALAR"},{"bufferView":5,"byteOffset":0,"componentType":5126,"count":2199,"max":[0.9825261831283569,2.202237606048584,0.9942835569381714],"min":[-0.8734954595565796,-0.37123608589172363,-0.9952085018157959],"type":"VEC3"},{"bufferView":6,"byteOffset":0,"componentType":5126,"count":2199,"type":"VEC3"},{"bufferView":7,"byteOffset":0,"componentType":5126,"count":2199,"type":"VEC2"},{"bufferView":8,"byteOffset":0,"componentType":5125,"count":2964,"type":"SCALAR"},{"bufferView":9,"byteOffset":0,"componentType":5126,"count":811,"max":[0.9825261831283569,2.2005624771118164,0.9895411729812622],"min":[-0.8734954595565796,-0.37123608589172363,-0.9952085018157959],"type":"VEC3"},{"bufferView":10,"byteOffset":0,"componentType":5126,"count":811,"type":"VEC3"},{"bufferView":11,"byteOffset":0,"componentType":5126,"count":811,"type":"VEC2"},{"bufferView":12,"byteOffset":0,"componentType":5125,"count":1428,"type":"SCALAR"},{"bufferView":13,"byteOffset":0,"componentType":5126,"count":646,"max":[0.9825261831283569,2.1355233192443848,0.651871919631958],"min":[0.9464643001556396,0.6175410747528076,-0.637357234954834],"type":"VEC3"},{"bufferView":14,"byteOffset":0,"componentType":5126,"count":646,"type":"VEC3"},{"bufferView":15,"byteOffset":0,"componentType":5126,"count":646,"type":"VEC2"},{"bufferView":16,"byteOffset":0,"componentType":5125,"count":2292,"type":"SCALAR"},{"bufferView":17,"byteOffset":0,"componentType":5126,"count":445,"max":[1,1,1],"min":[-1,-1,-1],"type":"VEC3"},{"bufferView":18,"byteOffset":0,"componentType":5126,"count":445,"type":"VEC3"},{"bufferView":19,"byteOffset":0,"componentType":5126,"count":445,"type":"VEC2"},{"bufferView":20,"byteOffset":0,"componentType":5125,"count":1203,"type":"SCALAR"},{"bufferView":21,"byteOffset":0,"componentType":5126,"count":457,"max":[0.9999999403953552,1.1574651002883911,1],"min":[-0.763384222984314,-0.7135018706321716,-1],"type":"VEC3"},{"bufferView":22,"byteOffset":0,"componentType":5126,"count":457,"type":"VEC3"},{"bufferView":23,"byteOffset":0,"componentType":5126,"count":457,"type":"VEC2"},{"bufferView":24,"byteOffset":0,"componentType":5125,"count":3225,"type":"SCALAR"},{"bufferView":25,"byteOffset":0,"componentType":5126,"count":671,"max":[0.06372188031673431,1.1482839584350586,0.7097773551940918],"min":[-0.23353742063045502,0.530017614364624,-0.6652023792266846],"type":"VEC3"},{"bufferView":26,"byteOffset":0,"componentType":5126,"count":671,"type":"VEC3"},{"bufferView":27,"byteOffset":0,"componentType":5126,"count":671,"type":"VEC2"},{"bufferView":28,"byteOffset":0,"componentType":5125,"count":264,"type":"SCALAR"},{"bufferView":29,"byteOffset":0,"componentType":5126,"count":96,"max":[0.7220858335494995,0.8997979164123535,-0.45145654678344727],"min":[-0.7220858335494995,0.5416226387023926,-1.2158350944519043],"type":"VEC3"},{"bufferView":30,"byteOffset":0,"componentType":5126,"count":96,"type":"VEC3"},{"bufferView":31,"byteOffset":0,"componentType":5126,"count":96,"type":"VEC2"},{"bufferView":32,"byteOffset":0,"componentType":5125,"count":1224,"type":"SCALAR"},{"bufferView":33,"byteOffset":0,"componentType":5126,"count":412,"max":[1.0000019073486328,-9.5367431640625e-7,21.845378875732422],"min":[-0.9999980330467224,-1.1046242713928223,-15.632577896118164],"type":"VEC3"},{"bufferView":34,"byteOffset":0,"componentType":5126,"count":412,"type":"VEC3"},{"bufferView":35,"byteOffset":0,"componentType":5126,"count":412,"type":"VEC2"},{"bufferView":36,"byteOffset":0,"componentType":5125,"count":2607,"type":"SCALAR"},{"bufferView":37,"byteOffset":0,"componentType":5126,"count":666,"max":[1,0.6533972024917603,25.741151809692383],"min":[-1,0.0000019073486328125,-1.0000009536743164],"type":"VEC3"},{"bufferView":38,"byteOffset":0,"componentType":5126,"count":666,"type":"VEC3"},{"bufferView":39,"byteOffset":0,"componentType":5126,"count":666,"type":"VEC2"},{"bufferView":40,"byteOffset":0,"componentType":5125,"count":3123,"type":"SCALAR"},{"bufferView":41,"byteOffset":0,"componentType":5126,"count":774,"max":[0.9999988079071045,0.12683698534965515,7.024532794952393],"min":[-1.0000011920928955,0,-1],"type":"VEC3"},{"bufferView":42,"byteOffset":0,"componentType":5126,"count":774,"type":"VEC3"},{"bufferView":43,"byteOffset":0,"componentType":5126,"count":774,"type":"VEC2"},{"bufferView":44,"byteOffset":0,"componentType":5125,"count":372,"type":"SCALAR"},{"bufferView":45,"byteOffset":0,"componentType":5126,"count":128,"max":[1,6.987325668334961,1],"min":[-1,0,-1],"type":"VEC3"},{"bufferView":46,"byteOffset":0,"componentType":5126,"count":128,"type":"VEC3"},{"bufferView":47,"byteOffset":0,"componentType":5126,"count":128,"type":"VEC2"},{"bufferView":48,"byteOffset":0,"componentType":5125,"count":480,"type":"SCALAR"},{"bufferView":49,"byteOffset":0,"componentType":5126,"count":173,"max":[1,-0.5977400541305542,1],"min":[-1,-1.1893019676208496,-1],"type":"VEC3"},{"bufferView":50,"byteOffset":0,"componentType":5126,"count":173,"type":"VEC3"},{"bufferView":51,"byteOffset":0,"componentType":5126,"count":173,"type":"VEC2"}],"bufferViews":[{"buffer":0,"byteOffset":0,"byteLength":1920,"target":34963},{"buffer":0,"byteOffset":1920,"byteLength":2148,"target":34962},{"buffer":0,"byteOffset":4068,"byteLength":2148,"target":34962},{"buffer":0,"byteOffset":6216,"byteLength":1432,"target":34962},{"buffer":0,"byteOffset":7648,"byteLength":26484,"target":34963},{"buffer":0,"byteOffset":34132,"byteLength":26388,"target":34962},{"buffer":0,"byteOffset":60520,"byteLength":26388,"target":34962},{"buffer":0,"byteOffset":86908,"byteLength":17592,"target":34962},{"buffer":0,"byteOffset":104500,"byteLength":11856,"target":34963},{"buffer":0,"byteOffset":116356,"byteLength":9732,"target":34962},{"buffer":0,"byteOffset":126088,"byteLength":9732,"target":34962},{"buffer":0,"byteOffset":135820,"byteLength":6488,"target":34962},{"buffer":0,"byteOffset":142308,"byteLength":5712,"target":34963},{"buffer":0,"byteOffset":148020,"byteLength":7752,"target":34962},{"buffer":0,"byteOffset":155772,"byteLength":7752,"target":34962},{"buffer":0,"byteOffset":163524,"byteLength":5168,"target":34962},{"buffer":0,"byteOffset":168692,"byteLength":9168,"target":34963},{"buffer":0,"byteOffset":177860,"byteLength":5340,"target":34962},{"buffer":0,"byteOffset":183200,"byteLength":5340,"target":34962},{"buffer":0,"byteOffset":188540,"byteLength":3560,"target":34962},{"buffer":0,"byteOffset":192100,"byteLength":4812,"target":34963},{"buffer":0,"byteOffset":196912,"byteLength":5484,"target":34962},{"buffer":0,"byteOffset":202396,"byteLength":5484,"target":34962},{"buffer":0,"byteOffset":207880,"byteLength":3656,"target":34962},{"buffer":0,"byteOffset":211536,"byteLength":12900,"target":34963},{"buffer":0,"byteOffset":224436,"byteLength":8052,"target":34962},{"buffer":0,"byteOffset":232488,"byteLength":8052,"target":34962},{"buffer":0,"byteOffset":240540,"byteLength":5368,"target":34962},{"buffer":0,"byteOffset":245908,"byteLength":1056,"target":34963},{"buffer":0,"byteOffset":246964,"byteLength":1152,"target":34962},{"buffer":0,"byteOffset":248116,"byteLength":1152,"target":34962},{"buffer":0,"byteOffset":249268,"byteLength":768,"target":34962},{"buffer":0,"byteOffset":250036,"byteLength":4896,"target":34963},{"buffer":0,"byteOffset":254932,"byteLength":4944,"target":34962},{"buffer":0,"byteOffset":259876,"byteLength":4944,"target":34962},{"buffer":0,"byteOffset":264820,"byteLength":3296,"target":34962},{"buffer":0,"byteOffset":268116,"byteLength":10428,"target":34963},{"buffer":0,"byteOffset":278544,"byteLength":7992,"target":34962},{"buffer":0,"byteOffset":286536,"byteLength":7992,"target":34962},{"buffer":0,"byteOffset":294528,"byteLength":5328,"target":34962},{"buffer":0,"byteOffset":299856,"byteLength":12492,"target":34963},{"buffer":0,"byteOffset":312348,"byteLength":9288,"target":34962},{"buffer":0,"byteOffset":321636,"byteLength":9288,"target":34962},{"buffer":0,"byteOffset":330924,"byteLength":6192,"target":34962},{"buffer":0,"byteOffset":337116,"byteLength":1488,"target":34963},{"buffer":0,"byteOffset":338604,"byteLength":1536,"target":34962},{"buffer":0,"byteOffset":340140,"byteLength":1536,"target":34962},{"buffer":0,"byteOffset":341676,"byteLength":1024,"target":34962},{"buffer":0,"byteOffset":342700,"byteLength":1920,"target":34963},{"buffer":0,"byteOffset":344620,"byteLength":2076,"target":34962},{"buffer":0,"byteOffset":346696,"byteLength":2076,"target":34962},{"buffer":0,"byteOffset":348772,"byteLength":1384,"target":34962}],"scene":0,"scenes":[{"nodes":[0],"name":"SNES"}],"extensionsUsed":["KHR_texture_transform","KHR_materials_clearcoat"],"buffers":[{"byteLength":350156,"uri":"SNES.bin"}]}