{"asset":{"version":"2.0","generator":"VECTARY"},"nodes":[{"translation":[0,0,0],"scale":[1.906174068,1.9054119550000002,1.906266469],"rotation":[0,0,0,1],"name":"switch","children":[1,5,6,7,8,9,10,11,14,17,18,21,24,25]},{"translation":[-0.032057655088545176,-0.26779400000000037,0.0016894940655536317],"scale":[0.221482,1.387615,2.413172],"rotation":[0,0,0,1],"name":"Cube.001","children":[2,3,4]},{"translation":[0,0,0],"scale":[1,1,1],"rotation":[0,0,0,1],"name":"Cube.001","mesh":0},{"translation":[0,0,0],"scale":[1,1,1],"rotation":[0,0,0,1],"name":"Cube.001","mesh":1},{"translation":[0,0,0],"scale":[1,1,1],"rotation":[0,0,0,1],"name":"Cube.001","mesh":2},{"translation":[0.12786234491145482,0.8000819999999997,-2.8022705059344464],"scale":[0.5777209999999999,0.5777209999999999,0.577721],"rotation":[0,0,-0.7071068305519115,0.70710673182118],"name":"Cercle.001","mesh":3},{"translation":[0.15612834491145483,-0.5742030000000002,2.8247894940655542],"scale":[0.53633,0.53633,0.53633],"rotation":[0,0,-0.7071068305519119,0.7071067318211797],"name":"Cercle.004","mesh":4},{"translation":[0.23416234491145482,0.3871659999999996,2.8072794940655545],"scale":[0.207327,0.207327,0.207327],"rotation":[0,0,-0.707106768845206,0.7071067935278889],"name":"Cercle.006","mesh":5},{"translation":[0.2527563449114549,0.30638699999999947,-2.8221715059344463],"scale":[0.207327,0.207327,0.207327],"rotation":[0,0,-0.707106768845206,0.7071067935278889],"name":"Cercle.008","mesh":6},{"translation":[0.11194634491145483,0.8815839999999997,2.5508744940655537],"scale":[0.008119,0.07351399999999998,0.014265],"rotation":[0.7071068305519119,0,0,0.7071067318211797],"name":"Cube","mesh":7},{"translation":[0.10673534491145484,1.446145,-2.5262975059344464],"scale":[0.008119,0.07351399999999998,0.016928],"rotation":[0.7071068305519115,0,0,0.70710673182118],"name":"Cube.002","mesh":8},{"translation":[0.15661134491145484,-0.36235400000000034,-2.6676195059344465],"scale":[0.08065299999999997,0.08065299999999997,0.080653],"rotation":[0,0,-0.707106768845206,0.7071067935278889],"name":"Cercle","children":[12,13]},{"translation":[0,0,0],"scale":[1,1,1],"rotation":[0,0,0,1],"name":"Cercle","mesh":9},{"translation":[0,0,0],"scale":[1,1,1],"rotation":[0,0,0,1],"name":"Cercle","mesh":10},{"translation":[0.15793734491145478,-0.9347800000000004,2.6428014940655538],"scale":[0.09586899999999998,0.0015799999999999998,0.09204099999999998],"rotation":[0.5000000000000001,0.4999999999999999,-0.4999999999999999,0.5000000000000001],"name":"Cube.004","children":[15,16]},{"translation":[0,0,0],"scale":[1,1,1],"rotation":[0,0,0,1],"name":"Cube.004","mesh":11},{"translation":[0,0,0],"scale":[1,1,1],"rotation":[0,0,0,1],"name":"Cube.004","mesh":12},{"translation":[-0.036368655088545185,-1.4844100000000002,0.0016894940655536317],"scale":[0.030864,0.177442,0.132324],"rotation":[0,0,0,1],"name":"Cube.005","mesh":13},{"translation":[-0.05421065508854518,0.27759499999999976,-2.4130725059344464],"scale":[0.192606,1.387478,0.872486],"rotation":[0,0,0,1],"name":"Cube.006","children":[19,20]},{"translation":[0,0,0],"scale":[1,1,1],"rotation":[0,0,0,1],"name":"Cube.006","mesh":14},{"translation":[0,0,0],"scale":[1,1,1],"rotation":[0,0,0,1],"name":"Cube.006","mesh":15},{"translation":[0.0070573449114548215,-0.2775950000000003,2.413072494065553],"scale":[0.192606,1.387478,0.8724859999999997],"rotation":[6.123233514819074e-17,0.9999999999999969,6.123233514819074e-17,-7.853981633974476e-8],"name":"Cube.010","children":[22,23]},{"translation":[0,0,0],"scale":[1,1,1],"rotation":[0,0,0,1],"name":"Cube.010","mesh":16},{"translation":[0,0,0],"scale":[1,1,1],"rotation":[0,0,0,1],"name":"Cube.010","mesh":17},{"translation":[-0.05341865508854518,1.5762929999999993,-2.538089505934446],"scale":[0.2591109999999999,0.162459,0.15182499999999996],"rotation":[0.03876032733515173,0.7221934817646283,-0.2380386735374573,0.6482837355834892],"name":"Cube.003","mesh":18},{"translation":[-0.05341865508854518,0.9838169999999997,2.5513814940655544],"scale":[-0.2591109999999999,0.162459,0.15182499999999996],"rotation":[0.23803869898296542,0.6482838802977826,-0.038760327422284295,0.7221933434688143],"name":"Cube.007","mesh":19}],"materials":[{"pbrMetallicRoughness":{"baseColorFactor":[0.05284162552287903,0.05818717747368544,0.06381487094867724,1],"metallicFactor":1,"roughnessFactor":0.5},"name":"greyish black 1","emissiveFactor":[0,0,0],"extensions":{},"alphaMode":"OPAQUE","doubleSided":true},{"pbrMetallicRoughness":{"baseColorFactor":[0,0,0,1],"metallicFactor":1,"roughnessFactor":1},"name":"blackkk","emissiveFactor":[0,0,0],"extensions":{},"alphaMode":"OPAQUE","doubleSided":true},{"pbrMetallicRoughness":{"baseColorFactor":[0.028991186547107816,0.028991186547107816,0.028991186547107816,1],"metallicFactor":0,"roughnessFactor":0.15137615999999998},"name":"glossy black 9","emissiveFactor":[0,0,0],"extensions":{"KHR_materials_clearcoat":{"clearcoatFactor":0.3211008906364441,"clearcoatRoughnessFactor":0.029999999329447746}},"alphaMode":"OPAQUE","doubleSided":true},{"pbrMetallicRoughness":{"baseColorFactor":[0,0,0,1],"metallicFactor":1,"roughnessFactor":1},"name":"blackkk 1","emissiveFactor":[0,0,0],"extensions":{},"alphaMode":"OPAQUE","doubleSided":true},{"pbrMetallicRoughness":{"baseColorFactor":[0,0,0,1],"metallicFactor":1,"roughnessFactor":1},"name":"blackkk 2","emissiveFactor":[0,0,0],"extensions":{},"alphaMode":"OPAQUE","doubleSided":true},{"pbrMetallicRoughness":{"baseColorFactor":[0,0,0,1],"metallicFactor":1,"roughnessFactor":1},"name":"blackkk 3","emissiveFactor":[0,0,0],"extensions":{},"alphaMode":"OPAQUE","doubleSided":true},{"pbrMetallicRoughness":{"baseColorFactor":[0,0,0,1],"metallicFactor":1,"roughnessFactor":1},"name":"blackkk 4","emissiveFactor":[0,0,0],"extensions":{},"alphaMode":"OPAQUE","doubleSided":true},{"pbrMetallicRoughness":{"baseColorFactor":[0,0,0,1],"metallicFactor":1,"roughnessFactor":1},"name":"blackkk 5","emissiveFactor":[0,0,0],"extensions":{},"alphaMode":"OPAQUE","doubleSided":true},{"pbrMetallicRoughness":{"baseColorFactor":[0,0,0,1],"metallicFactor":1,"roughnessFactor":1},"name":"blackkk 6","emissiveFactor":[0,0,0],"extensions":{},"alphaMode":"OPAQUE","doubleSided":true},{"pbrMetallicRoughness":{"baseColorFactor":[0.05284162552287903,0.05818717747368544,0.06381487094867724,1],"metallicFactor":1,"roughnessFactor":0.5},"name":"greyish black 2","emissiveFactor":[0,0,0],"extensions":{},"alphaMode":"OPAQUE","doubleSided":true},{"pbrMetallicRoughness":{"baseColorFactor":[0,0,0,1],"metallicFactor":1,"roughnessFactor":1},"name":"blackkk 7","emissiveFactor":[0,0,0],"extensions":{},"alphaMode":"OPAQUE","doubleSided":true},{"pbrMetallicRoughness":{"baseColorFactor":[0,0,0,1],"metallicFactor":1,"roughnessFactor":1},"name":"blackkk 8","emissiveFactor":[0,0,0],"extensions":{},"alphaMode":"OPAQUE","doubleSided":true},{"pbrMetallicRoughness":{"baseColorFactor":[0,0,0,1],"metallicFactor":1,"roughnessFactor":1},"name":"blackkk 9","emissiveFactor":[0,0,0],"extensions":{},"alphaMode":"OPAQUE","doubleSided":true},{"pbrMetallicRoughness":{"baseColorFactor":[0.028991186547107816,0.028991186547107816,0.028991186547107816,1],"metallicFactor":0,"roughnessFactor":0.15137615999999998},"name":"glossy black 10","emissiveFactor":[0,0,0],"extensions":{"KHR_materials_clearcoat":{"clearcoatFactor":0.3211008906364441,"clearcoatRoughnessFactor":0.029999999329447746}},"alphaMode":"OPAQUE","doubleSided":true},{"pbrMetallicRoughness":{"baseColorFactor":[0.05284162552287903,0.05818717747368544,0.06381487094867724,1],"metallicFactor":1,"roughnessFactor":0.5},"name":"greyish black 3","emissiveFactor":[0,0,0],"extensions":{},"alphaMode":"OPAQUE","doubleSided":true},{"pbrMetallicRoughness":{"baseColorFactor":[0.7893137424155858,0,0.0055217448502396585,1],"metallicFactor":0.23853211000000002,"roughnessFactor":0.5},"name":"opaque red","emissiveFactor":[0,0,0],"extensions":{},"alphaMode":"OPAQUE","doubleSided":true},{"pbrMetallicRoughness":{"baseColorFactor":[0.05284162552287903,0.05818717747368544,0.06381487094867724,1],"metallicFactor":1,"roughnessFactor":0.5},"name":"greyish black 4","emissiveFactor":[0,0,0],"extensions":{},"alphaMode":"OPAQUE","doubleSided":true},{"pbrMetallicRoughness":{"baseColorFactor":[0,0.5417983559501369,0.7667436168621613,1],"metallicFactor":0.23853213,"roughnessFactor":0.5},"name":"opaque blue","emissiveFactor":[0,0,0],"extensions":{},"alphaMode":"OPAQUE","doubleSided":true},{"pbrMetallicRoughness":{"baseColorFactor":[0,0,0,1],"metallicFactor":1,"roughnessFactor":1},"name":"blackkk 10","emissiveFactor":[0,0,0],"extensions":{},"alphaMode":"OPAQUE","doubleSided":true},{"pbrMetallicRoughness":{"baseColorFactor":[0,0,0,1],"metallicFactor":1,"roughnessFactor":1},"name":"blackkk 11","emissiveFactor":[0,0,0],"extensions":{},"alphaMode":"OPAQUE","doubleSided":true}],"meshes":[{"primitives":[{"mode":4,"attributes":{"POSITION":1,"NORMAL":2,"TEXCOORD_0":3},"material":0,"indices":0}]},{"primitives":[{"mode":4,"attributes":{"POSITION":5,"NORMAL":6,"TEXCOORD_0":7},"material":1,"indices":4}]},{"primitives":[{"mode":4,"attributes":{"POSITION":9,"NORMAL":10,"TEXCOORD_0":11},"material":2,"indices":8}]},{"primitives":[{"mode":4,"attributes":{"POSITION":13,"NORMAL":14,"TEXCOORD_0":15},"material":3,"indices":12}]},{"primitives":[{"mode":4,"attributes":{"POSITION":13,"NORMAL":14,"TEXCOORD_0":15},"material":4,"indices":12}]},{"primitives":[{"mode":4,"attributes":{"POSITION":17,"NORMAL":18,"TEXCOORD_0":19},"material":5,"indices":16}]},{"primitives":[{"mode":4,"attributes":{"POSITION":17,"NORMAL":18,"TEXCOORD_0":19},"material":6,"indices":16}]},{"primitives":[{"mode":4,"attributes":{"POSITION":21,"NORMAL":22,"TEXCOORD_0":23},"material":7,"indices":20}]},{"primitives":[{"mode":4,"attributes":{"POSITION":25,"NORMAL":26,"TEXCOORD_0":27},"material":8,"indices":24}]},{"primitives":[{"mode":4,"attributes":{"POSITION":29,"NORMAL":30,"TEXCOORD_0":31},"material":9,"indices":28}]},{"primitives":[{"mode":4,"attributes":{"POSITION":33,"NORMAL":34,"TEXCOORD_0":35},"material":10,"indices":32}]},{"primitives":[{"mode":4,"attributes":{"POSITION":37,"NORMAL":38,"TEXCOORD_0":39},"material":11,"indices":36}]},{"primitives":[{"mode":4,"attributes":{"POSITION":41,"NORMAL":42,"TEXCOORD_0":43},"material":12,"indices":40}]},{"primitives":[{"mode":4,"attributes":{"POSITION":45,"NORMAL":46,"TEXCOORD_0":47},"material":13,"indices":44}]},{"primitives":[{"mode":4,"attributes":{"POSITION":49,"NORMAL":50,"TEXCOORD_0":51},"material":14,"indices":48}]},{"primitives":[{"mode":4,"attributes":{"POSITION":53,"NORMAL":54,"TEXCOORD_0":55},"material":15,"indices":52}]},{"primitives":[{"mode":4,"attributes":{"POSITION":49,"NORMAL":50,"TEXCOORD_0":51},"material":16,"indices":48}]},{"primitives":[{"mode":4,"attributes":{"POSITION":53,"NORMAL":54,"TEXCOORD_0":55},"material":17,"indices":52}]},{"primitives":[{"mode":4,"attributes":{"POSITION":57,"NORMAL":58,"TEXCOORD_0":59},"material":18,"indices":56}]},{"primitives":[{"mode":4,"attributes":{"POSITION":57,"NORMAL":58,"TEXCOORD_0":59},"material":19,"indices":56}]}],"accessors":[{"bufferView":0,"byteOffset":0,"componentType":5125,"count":2640,"type":"SCALAR"},{"bufferView":1,"byteOffset":0,"componentType":5126,"count":543,"max":[0.6709392666816711,0.9999997615814209,1],"min":[-0.6709392666816711,-1.000000238418579,-1],"type":"VEC3"},{"bufferView":2,"byteOffset":0,"componentType":5126,"count":543,"type":"VEC3"},{"bufferView":3,"byteOffset":0,"componentType":5126,"count":543,"type":"VEC2"},{"bufferView":4,"byteOffset":0,"componentType":5125,"count":102,"type":"SCALAR"},{"bufferView":5,"byteOffset":0,"componentType":5126,"count":36,"max":[0.7449736595153809,0.9808722138404846,0.9429856538772583],"min":[0.7449731826782227,-0.9727456569671631,-0.926122784614563],"type":"VEC3"},{"bufferView":6,"byteOffset":0,"componentType":5126,"count":36,"type":"VEC3"},{"bufferView":7,"byteOffset":0,"componentType":5126,"count":36,"type":"VEC2"},{"bufferView":8,"byteOffset":0,"componentType":5125,"count":6,"type":"SCALAR"},{"bufferView":9,"byteOffset":0,"componentType":5126,"count":4,"max":[0.8288236260414124,0.8443495035171509,0.8661520481109619],"min":[0.8288230299949646,-0.8102265000343323,-0.8491705656051636],"type":"VEC3"},{"bufferView":10,"byteOffset":0,"componentType":5126,"count":4,"type":"VEC3"},{"bufferView":11,"byteOffset":0,"componentType":5126,"count":4,"type":"VEC2"},{"bufferView":12,"byteOffset":0,"componentType":5125,"count":7632,"type":"SCALAR"},{"bufferView":13,"byteOffset":0,"componentType":5126,"count":1408,"max":[0.17554950714111328,0.027712170034646988,0.5359047055244446],"min":[-0.8652809262275696,-0.0031894806306809187,-0.5361252427101135],"type":"VEC3"},{"bufferView":14,"byteOffset":0,"componentType":5126,"count":1408,"type":"VEC3"},{"bufferView":15,"byteOffset":0,"componentType":5126,"count":1408,"type":"VEC2"},{"bufferView":16,"byteOffset":0,"componentType":5125,"count":2664,"type":"SCALAR"},{"bufferView":17,"byteOffset":0,"componentType":5126,"count":1536,"max":[1,0.17637214064598083,1],"min":[-1,-1.1704740524291992,-1],"type":"VEC3"},{"bufferView":18,"byteOffset":0,"componentType":5126,"count":1536,"type":"VEC3"},{"bufferView":19,"byteOffset":0,"componentType":5126,"count":1536,"type":"VEC2"},{"bufferView":20,"byteOffset":0,"componentType":5125,"count":36,"type":"SCALAR"},{"bufferView":21,"byteOffset":0,"componentType":5126,"count":24,"max":[1,1,1],"min":[-1,-1,-1],"type":"VEC3"},{"bufferView":22,"byteOffset":0,"componentType":5126,"count":24,"type":"VEC3"},{"bufferView":23,"byteOffset":0,"componentType":5126,"count":24,"type":"VEC2"},{"bufferView":24,"byteOffset":0,"componentType":5125,"count":72,"type":"SCALAR"},{"bufferView":25,"byteOffset":0,"componentType":5126,"count":48,"max":[1,1,4.3427910804748535],"min":[-1,-1,-4.342838764190674],"type":"VEC3"},{"bufferView":26,"byteOffset":0,"componentType":5126,"count":48,"type":"VEC3"},{"bufferView":27,"byteOffset":0,"componentType":5126,"count":48,"type":"VEC2"},{"bufferView":28,"byteOffset":0,"componentType":5125,"count":666,"type":"SCALAR"},{"bufferView":29,"byteOffset":0,"componentType":5126,"count":224,"max":[1,0.12220040708780289,1],"min":[-1,0,-1],"type":"VEC3"},{"bufferView":30,"byteOffset":0,"componentType":5126,"count":224,"type":"VEC3"},{"bufferView":31,"byteOffset":0,"componentType":5126,"count":224,"type":"VEC2"},{"bufferView":32,"byteOffset":0,"componentType":5125,"count":90,"type":"SCALAR"},{"bufferView":33,"byteOffset":0,"componentType":5126,"count":32,"max":[0.8835722804069519,0.10143259167671204,0.883572518825531],"min":[-0.883572518825531,0.10143259167671204,-0.8835722804069519],"type":"VEC3"},{"bufferView":34,"byteOffset":0,"componentType":5126,"count":32,"type":"VEC3"},{"bufferView":35,"byteOffset":0,"componentType":5126,"count":32,"type":"VEC2"},{"bufferView":36,"byteOffset":0,"componentType":5125,"count":138,"type":"SCALAR"},{"bufferView":37,"byteOffset":0,"componentType":5126,"count":56,"max":[1,1,1.0000001192092896],"min":[-1,-1,-1.0000001192092896],"type":"VEC3"},{"bufferView":38,"byteOffset":0,"componentType":5126,"count":56,"type":"VEC3"},{"bufferView":39,"byteOffset":0,"componentType":5126,"count":56,"type":"VEC2"},{"bufferView":40,"byteOffset":0,"componentType":5125,"count":282,"type":"SCALAR"},{"bufferView":41,"byteOffset":0,"componentType":5126,"count":160,"max":[0.7319523692131042,1,0.8621403574943542],"min":[-0.7137352824211121,-0.16824722290039062,-0.8621403574943542],"type":"VEC3"},{"bufferView":42,"byteOffset":0,"componentType":5126,"count":160,"type":"VEC3"},{"bufferView":43,"byteOffset":0,"componentType":5126,"count":160,"type":"VEC2"},{"bufferView":44,"byteOffset":0,"componentType":5125,"count":2910,"type":"SCALAR"},{"bufferView":45,"byteOffset":0,"componentType":5126,"count":552,"max":[1,1,1],"min":[-1,-1,-1],"type":"VEC3"},{"bufferView":46,"byteOffset":0,"componentType":5126,"count":552,"type":"VEC3"},{"bufferView":47,"byteOffset":0,"componentType":5126,"count":552,"type":"VEC2"},{"bufferView":48,"byteOffset":0,"componentType":5125,"count":396,"type":"SCALAR"},{"bufferView":49,"byteOffset":0,"componentType":5126,"count":144,"max":[0.6034178733825684,0.8809744119644165,0.040290236473083496],"min":[-0.35214653611183167,-0.8677572011947632,-0.009257668629288673],"type":"VEC3"},{"bufferView":50,"byteOffset":0,"componentType":5126,"count":144,"type":"VEC3"},{"bufferView":51,"byteOffset":0,"componentType":5126,"count":144,"type":"VEC2"},{"bufferView":52,"byteOffset":0,"componentType":5125,"count":1572,"type":"SCALAR"},{"bufferView":53,"byteOffset":0,"componentType":5126,"count":314,"max":[1,1.0000001192092896,2.842170943040401e-14],"min":[-0.7519065737724304,-1.0000001192092896,-1],"type":"VEC3"},{"bufferView":54,"byteOffset":0,"componentType":5126,"count":314,"type":"VEC3"},{"bufferView":55,"byteOffset":0,"componentType":5126,"count":314,"type":"VEC2"},{"bufferView":56,"byteOffset":0,"componentType":5125,"count":135168,"type":"SCALAR"},{"bufferView":57,"byteOffset":0,"componentType":5126,"count":90109,"max":[2.1785061359405518,0.6332390904426575,0.7848689556121826],"min":[-0.4211493134498596,-0.8709948062896729,-0.9153966307640076],"type":"VEC3"},{"bufferView":58,"byteOffset":0,"componentType":5126,"count":90109,"type":"VEC3"},{"bufferView":59,"byteOffset":0,"componentType":5126,"count":90109,"type":"VEC2"}],"bufferViews":[{"buffer":0,"byteOffset":0,"byteLength":10560,"target":34963},{"buffer":0,"byteOffset":10560,"byteLength":6516,"target":34962},{"buffer":0,"byteOffset":17076,"byteLength":6516,"target":34962},{"buffer":0,"byteOffset":23592,"byteLength":4344,"target":34962},{"buffer":0,"byteOffset":27936,"byteLength":408,"target":34963},{"buffer":0,"byteOffset":28344,"byteLength":432,"target":34962},{"buffer":0,"byteOffset":28776,"byteLength":432,"target":34962},{"buffer":0,"byteOffset":29208,"byteLength":288,"target":34962},{"buffer":0,"byteOffset":29496,"byteLength":24,"target":34963},{"buffer":0,"byteOffset":29520,"byteLength":48,"target":34962},{"buffer":0,"byteOffset":29568,"byteLength":48,"target":34962},{"buffer":0,"byteOffset":29616,"byteLength":32,"target":34962},{"buffer":0,"byteOffset":29648,"byteLength":30528,"target":34963},{"buffer":0,"byteOffset":60176,"byteLength":16896,"target":34962},{"buffer":0,"byteOffset":77072,"byteLength":16896,"target":34962},{"buffer":0,"byteOffset":93968,"byteLength":11264,"target":34962},{"buffer":0,"byteOffset":105232,"byteLength":10656,"target":34963},{"buffer":0,"byteOffset":115888,"byteLength":18432,"target":34962},{"buffer":0,"byteOffset":134320,"byteLength":18432,"target":34962},{"buffer":0,"byteOffset":152752,"byteLength":12288,"target":34962},{"buffer":0,"byteOffset":165040,"byteLength":144,"target":34963},{"buffer":0,"byteOffset":165184,"byteLength":288,"target":34962},{"buffer":0,"byteOffset":165472,"byteLength":288,"target":34962},{"buffer":0,"byteOffset":165760,"byteLength":192,"target":34962},{"buffer":0,"byteOffset":165952,"byteLength":288,"target":34963},{"buffer":0,"byteOffset":166240,"byteLength":576,"target":34962},{"buffer":0,"byteOffset":166816,"byteLength":576,"target":34962},{"buffer":0,"byteOffset":167392,"byteLength":384,"target":34962},{"buffer":0,"byteOffset":167776,"byteLength":2664,"target":34963},{"buffer":0,"byteOffset":170440,"byteLength":2688,"target":34962},{"buffer":0,"byteOffset":173128,"byteLength":2688,"target":34962},{"buffer":0,"byteOffset":175816,"byteLength":1792,"target":34962},{"buffer":0,"byteOffset":177608,"byteLength":360,"target":34963},{"buffer":0,"byteOffset":177968,"byteLength":384,"target":34962},{"buffer":0,"byteOffset":178352,"byteLength":384,"target":34962},{"buffer":0,"byteOffset":178736,"byteLength":256,"target":34962},{"buffer":0,"byteOffset":178992,"byteLength":552,"target":34963},{"buffer":0,"byteOffset":179544,"byteLength":672,"target":34962},{"buffer":0,"byteOffset":180216,"byteLength":672,"target":34962},{"buffer":0,"byteOffset":180888,"byteLength":448,"target":34962},{"buffer":0,"byteOffset":181336,"byteLength":1128,"target":34963},{"buffer":0,"byteOffset":182464,"byteLength":1920,"target":34962},{"buffer":0,"byteOffset":184384,"byteLength":1920,"target":34962},{"buffer":0,"byteOffset":186304,"byteLength":1280,"target":34962},{"buffer":0,"byteOffset":187584,"byteLength":11640,"target":34963},{"buffer":0,"byteOffset":199224,"byteLength":6624,"target":34962},{"buffer":0,"byteOffset":205848,"byteLength":6624,"target":34962},{"buffer":0,"byteOffset":212472,"byteLength":4416,"target":34962},{"buffer":0,"byteOffset":216888,"byteLength":1584,"target":34963},{"buffer":0,"byteOffset":218472,"byteLength":1728,"target":34962},{"buffer":0,"byteOffset":220200,"byteLength":1728,"target":34962},{"buffer":0,"byteOffset":221928,"byteLength":1152,"target":34962},{"buffer":0,"byteOffset":223080,"byteLength":6288,"target":34963},{"buffer":0,"byteOffset":229368,"byteLength":3768,"target":34962},{"buffer":0,"byteOffset":233136,"byteLength":3768,"target":34962},{"buffer":0,"byteOffset":236904,"byteLength":2512,"target":34962},{"buffer":0,"byteOffset":239416,"byteLength":540672,"target":34963},{"buffer":0,"byteOffset":780088,"byteLength":1081308,"target":34962},{"buffer":0,"byteOffset":1861396,"byteLength":1081308,"target":34962},{"buffer":0,"byteOffset":2942704,"byteLength":720872,"target":34962}],"scene":0,"scenes":[{"nodes":[0],"name":"Switch"}],"extensionsUsed":["KHR_texture_transform","KHR_materials_clearcoat"],"buffers":[{"byteLength":3663576,"uri":"Switch.bin"}]}