{"asset":{"version":"2.0","generator":"VECTARY"},"nodes":[{"translation":[0,0,0],"scale":[1.317521429,1.317705047,1.318915112],"rotation":[0,0,0,1],"name":"wii","children":[1,6,9,10,11,12,13,14,15,16,17,18,19,20,21]},{"translation":[-1.1011370491483385,0.07439449999999871,-0.6912870668704159],"scale":[0.516457,3.420849,3.402503],"rotation":[0,-1.3877795563920182e-17,0,1],"name":"Cube.001","children":[2,3,4,5]},{"translation":[0,0,0],"scale":[1,1,1],"rotation":[0,0,0,1],"name":"Cube.001","mesh":0},{"translation":[0,0,0],"scale":[1,1,1],"rotation":[0,0,0,1],"name":"Cube.001","mesh":1},{"translation":[0,0,0],"scale":[1,1,1],"rotation":[0,0,0,1],"name":"Cube.001","mesh":2},{"translation":[0,0,0],"scale":[1,1,1],"rotation":[0,0,0,1],"name":"Cube.001","mesh":3},{"translation":[-1.1011370491483385,-2.422394500000001,-0.6756860668704157],"scale":[0.719896,1.072849,4.073027],"rotation":[0,-1.3877795563920182e-17,0,1],"name":"Cube.002","children":[7,8]},{"translation":[0,0,0],"scale":[1,1,1],"rotation":[0,0,0,1],"name":"Cube.002","mesh":4},{"translation":[0,0,0],"scale":[1,1,1],"rotation":[0,0,0,1],"name":"Cube.002","mesh":5},{"translation":[-0.8082250491483385,0.5974154999999987,2.619592933129584],"scale":[2.1291210000000005,2.1291210000000005,2.1291209999999996],"rotation":[-0.5058131338102225,-0.4941184372635629,0.5058131941781802,-0.49411846374787777],"name":"Cercle","mesh":6},{"translation":[-1.4707920491483384,2.6069924999999987,2.8681209331295845],"scale":[0.178847,0.080881,0.072654],"rotation":[0.7071068305519119,-9.813082666086065e-18,9.81308403625098e-18,0.7071067318211797],"name":"Cube.005","mesh":7},{"translation":[-1.4707920491483384,2.298013499999999,2.8681209331295845],"scale":[0.166891,0.075473,0.06779699999999997],"rotation":[0.7071068305519119,-9.813082666086065e-18,9.813084036250983e-18,0.7071067318211797],"name":"Cube.003","mesh":8},{"translation":[-1.4707920491483384,-1.4344405000000011,2.8681209331295845],"scale":[0.15758,0.071263,0.064014],"rotation":[0.7071068305519119,-9.813082666086065e-18,9.813084036250983e-18,0.7071067318211797],"name":"Cube.004","mesh":9},{"translation":[-0.5992410491483384,1.0516834999999987,-0.8133500668704157],"scale":[-0.007686,2.206819,2.859763],"rotation":[0,-1.3877795563920182e-17,0,1],"name":"Cube.009","mesh":10},{"translation":[-1.4488300491483386,0.8099994999999992,2.9138379331295843],"scale":[0.004888,1.0960700000000005,0.19641700000000004],"rotation":[0.0005586888007087508,0.7068876042723349,-0.00024827944734040486,0.7073256259674597],"name":"Cube.010","mesh":11},{"translation":[0.5826439508516615,-0.3436335000000009,-0.20741506687041508],"scale":[0.764157,0.764157,0.649943],"rotation":[-1.1532113084864667e-18,-1.3829798024264187e-17,0.08309758586476171,0.9965414147056051],"name":"Cube.007","mesh":12},{"translation":[0.3244749508516616,1.1749214999999993,0.1125199331295841],"scale":[0.09890500000000005,0.337795,0.039226],"rotation":[-1.1532111877987117e-18,-1.3829798034327854e-17,0.08309757716829728,0.996541415430768],"name":"Cube.008","mesh":13},{"translation":[0.8123269508516616,-1.858458500000001,0.041081933129584434],"scale":[0.20252699999999993,0.20252699999999998,0.20252699999999998],"rotation":[0.5398196597927362,-0.45672198696352223,-0.45672243543972896,0.5398188385850843],"name":"Cercle.001","mesh":14},{"translation":[0.9006959508516618,-2.384660500000001,0.04108193312958444],"scale":[0.20252699999999993,0.20252699999999998,0.20252699999999998],"rotation":[0.5398196597927362,-0.45672198696352223,-0.45672243543972896,0.5398188385850843],"name":"Cercle.002","mesh":15},{"translation":[0.25724795085166147,-0.438594500000001,0.04108193312958442],"scale":[0.15447199999999994,0.15447199999999997,0.15447199999999997],"rotation":[0.5398196597927362,-0.45672198696352223,-0.4567224354397289,0.5398188385850843],"name":"Cercle.003","mesh":16},{"translation":[-0.23587404914833834,1.8712804999999986,0.08629993312958462],"scale":[0.13037,0.13037,0.13036999999999999],"rotation":[0.539819640928033,-0.45672193331287236,-0.45672221586329104,0.5398190886178509],"name":"Cercle.004","mesh":17},{"translation":[0.4761849508516616,0.43506349999999927,-0.07567806687041577],"scale":[0.20421700000000004,0.20421699999999995,0.20421700000000004],"rotation":[0.7046611920715684,0.05875886646520446,0.058758866465204444,0.704661192071569],"name":"Cube.011","mesh":18}],"materials":[{"pbrMetallicRoughness":{"baseColorFactor":[0.9743002023888613,0.9828262550537913,1,1],"metallicFactor":0,"roughnessFactor":0.14678898},"name":"glossy plastic white","emissiveFactor":[0,0,0],"extensions":{"KHR_materials_clearcoat":{"clearcoatFactor":0.24770641326904297,"clearcoatRoughnessFactor":0.029999999329447746}},"alphaMode":"OPAQUE","doubleSided":true},{"pbrMetallicRoughness":{"baseColorFactor":[0.9743002023888613,0.9828262550537913,1,1],"metallicFactor":0,"roughnessFactor":0.14678898},"name":"glossy plastic white 1","emissiveFactor":[0,0,0],"extensions":{"KHR_materials_clearcoat":{"clearcoatFactor":0.24770641326904297,"clearcoatRoughnessFactor":0.029999999329447746}},"alphaMode":"OPAQUE","doubleSided":true},{"pbrMetallicRoughness":{"baseColorFactor":[0.9743002023888613,0.9828262550537913,1,1],"metallicFactor":0,"roughnessFactor":0.14678898},"name":"glossy plastic white 2","emissiveFactor":[0,0,0],"extensions":{"KHR_materials_clearcoat":{"clearcoatFactor":0.24770641326904297,"clearcoatRoughnessFactor":0.029999999329447746}},"alphaMode":"OPAQUE","doubleSided":true},{"pbrMetallicRoughness":{"baseColorFactor":[0.9743002023888613,0.9828262550537913,1,1],"metallicFactor":0,"roughnessFactor":0.14678898},"name":"glossy plastic white 3","emissiveFactor":[0,0,0],"extensions":{"KHR_materials_clearcoat":{"clearcoatFactor":0.24770641326904297,"clearcoatRoughnessFactor":0.029999999329447746}},"alphaMode":"OPAQUE","doubleSided":true},{"pbrMetallicRoughness":{"baseColorFactor":[0.20471011883667684,0.20471011883667684,0.20471011883667684,1],"metallicFactor":0.38532114,"roughnessFactor":0.50458717},"name":"grey base","emissiveFactor":[0,0,0],"extensions":{},"alphaMode":"OPAQUE","doubleSided":true},{"pbrMetallicRoughness":{"baseColorFactor":[0.20471011883667684,0.20471011883667684,0.20471011883667684,1],"metallicFactor":0.38532114,"roughnessFactor":0.50458717},"name":"grey base 1","emissiveFactor":[0,0,0],"extensions":{},"alphaMode":"OPAQUE","doubleSided":true},{"pbrMetallicRoughness":{"baseColorFactor":[0.7154654323350483,0.7154654323350483,0.7154654323350483,1],"metallicFactor":0.12844038,"roughnessFactor":0.16972476},"name":"cd texture","emissiveFactor":[0,0,0],"extensions":{"KHR_materials_transmission":{"transmissionFactor":0.03},"KHR_materials_ior":{"ior":0},"KHR_materials_volume":{"thicknessFactor":0.01,"attenuationDistance":0.01,"attenuationColor":[1,1,1]}},"alphaMode":"OPAQUE","doubleSided":true},{"pbrMetallicRoughness":{"baseColorFactor":[0.9573695761995268,0.9573695761995268,0.9573695761995268,1],"metallicFactor":0,"roughnessFactor":0.5},"name":"glossy darker white","emissiveFactor":[0,0,0],"extensions":{"KHR_materials_clearcoat":{"clearcoatFactor":0.4954128563404083,"clearcoatRoughnessFactor":0.029999999329447746}},"alphaMode":"OPAQUE","doubleSided":true},{"pbrMetallicRoughness":{"baseColorFactor":[0.9573695761995268,0.9573695761995268,0.9573695761995268,1],"metallicFactor":0,"roughnessFactor":0.5},"name":"glossy darker white 1","emissiveFactor":[0,0,0],"extensions":{"KHR_materials_clearcoat":{"clearcoatFactor":0.4954128563404083,"clearcoatRoughnessFactor":0.029999999329447746}},"alphaMode":"OPAQUE","doubleSided":true},{"pbrMetallicRoughness":{"baseColorFactor":[0.9573695761995268,0.9573695761995268,0.9573695761995268,1],"metallicFactor":0,"roughnessFactor":0.5},"name":"glossy darker white 2","emissiveFactor":[0,0,0],"extensions":{"KHR_materials_clearcoat":{"clearcoatFactor":0.4954128563404083,"clearcoatRoughnessFactor":0.029999999329447746}},"alphaMode":"OPAQUE","doubleSided":true},{"pbrMetallicRoughness":{"baseColorFactor":[0.9573695761995268,0.9573695761995268,0.9573695761995268,1],"metallicFactor":0,"roughnessFactor":0.5},"name":"glossy darker white 3","emissiveFactor":[0,0,0],"extensions":{"KHR_materials_clearcoat":{"clearcoatFactor":0.4954128563404083,"clearcoatRoughnessFactor":0.029999999329447746}},"alphaMode":"OPAQUE","doubleSided":true},{"pbrMetallicRoughness":{"baseColorFactor":[0.9573695761995268,0.9573695761995268,0.9573695761995268,1],"metallicFactor":0,"roughnessFactor":0.5},"name":"glossy darker white 4","emissiveFactor":[0,0,0],"extensions":{"KHR_materials_clearcoat":{"clearcoatFactor":0.4954128563404083,"clearcoatRoughnessFactor":0.029999999329447746}},"alphaMode":"OPAQUE","doubleSided":true},{"pbrMetallicRoughness":{"baseColorFactor":[0.9743002023888613,0.9828262550537913,1,1],"metallicFactor":0,"roughnessFactor":0.14678898},"name":"glossy plastic white 4","emissiveFactor":[0,0,0],"extensions":{"KHR_materials_clearcoat":{"clearcoatFactor":0.24770641326904297,"clearcoatRoughnessFactor":0.029999999329447746}},"alphaMode":"OPAQUE","doubleSided":true},{"pbrMetallicRoughness":{"baseColorFactor":[0.9573695761995268,0.9573695761995268,0.9573695761995268,1],"metallicFactor":0,"roughnessFactor":0.5},"name":"glossy darker white 5","emissiveFactor":[0,0,0],"extensions":{"KHR_materials_clearcoat":{"clearcoatFactor":0.4954128563404083,"clearcoatRoughnessFactor":0.029999999329447746}},"alphaMode":"OPAQUE","doubleSided":true},{"pbrMetallicRoughness":{"baseColorFactor":[0.9573695761995268,0.9573695761995268,0.9573695761995268,1],"metallicFactor":0,"roughnessFactor":0.5},"name":"glossy darker white 6","emissiveFactor":[0,0,0],"extensions":{"KHR_materials_clearcoat":{"clearcoatFactor":0.4954128563404083,"clearcoatRoughnessFactor":0.029999999329447746}},"alphaMode":"OPAQUE","doubleSided":true},{"pbrMetallicRoughness":{"baseColorFactor":[0.9573695761995268,0.9573695761995268,0.9573695761995268,1],"metallicFactor":0,"roughnessFactor":0.5},"name":"glossy darker white 7","emissiveFactor":[0,0,0],"extensions":{"KHR_materials_clearcoat":{"clearcoatFactor":0.4954128563404083,"clearcoatRoughnessFactor":0.029999999329447746}},"alphaMode":"OPAQUE","doubleSided":true},{"pbrMetallicRoughness":{"baseColorFactor":[0.9573695761995268,0.9573695761995268,0.9573695761995268,1],"metallicFactor":0,"roughnessFactor":0.5},"name":"glossy darker white 8","emissiveFactor":[0,0,0],"extensions":{"KHR_materials_clearcoat":{"clearcoatFactor":0.4954128563404083,"clearcoatRoughnessFactor":0.029999999329447746}},"alphaMode":"OPAQUE","doubleSided":true},{"pbrMetallicRoughness":{"baseColorFactor":[0.9573695761995268,0.9573695761995268,0.9573695761995268,1],"metallicFactor":0,"roughnessFactor":0.5},"name":"glossy darker white 9","emissiveFactor":[0,0,0],"extensions":{"KHR_materials_clearcoat":{"clearcoatFactor":0.4954128563404083,"clearcoatRoughnessFactor":0.029999999329447746}},"alphaMode":"OPAQUE","doubleSided":true},{"pbrMetallicRoughness":{"baseColorFactor":[0.7969165429079781,0.7969165429079781,0.7969165429079781,1],"metallicFactor":0,"roughnessFactor":0.3119266},"name":"reflect glossy","emissiveFactor":[0,0,0],"extensions":{"KHR_materials_clearcoat":{"clearcoatFactor":1,"clearcoatRoughnessFactor":0.029999999329447746}},"alphaMode":"OPAQUE","doubleSided":true}],"meshes":[{"primitives":[{"mode":4,"attributes":{"POSITION":1,"NORMAL":2,"TEXCOORD_0":3},"material":0,"indices":0}]},{"primitives":[{"mode":4,"attributes":{"POSITION":5,"NORMAL":6,"TEXCOORD_0":7},"material":1,"indices":4}]},{"primitives":[{"mode":4,"attributes":{"POSITION":9,"NORMAL":10,"TEXCOORD_0":11},"material":2,"indices":8}]},{"primitives":[{"mode":4,"attributes":{"POSITION":13,"NORMAL":14,"TEXCOORD_0":15},"material":3,"indices":12}]},{"primitives":[{"mode":4,"attributes":{"POSITION":17,"NORMAL":18,"TEXCOORD_0":19},"material":4,"indices":16}]},{"primitives":[{"mode":4,"attributes":{"POSITION":21,"NORMAL":22,"TEXCOORD_0":23},"material":5,"indices":20}]},{"primitives":[{"mode":4,"attributes":{"POSITION":25,"NORMAL":26,"TEXCOORD_0":27},"material":6,"indices":24}]},{"primitives":[{"mode":4,"attributes":{"POSITION":29,"NORMAL":30,"TEXCOORD_0":31},"material":7,"indices":28}]},{"primitives":[{"mode":4,"attributes":{"POSITION":29,"NORMAL":30,"TEXCOORD_0":31},"material":8,"indices":28}]},{"primitives":[{"mode":4,"attributes":{"POSITION":29,"NORMAL":30,"TEXCOORD_0":31},"material":9,"indices":28}]},{"primitives":[{"mode":4,"attributes":{"POSITION":33,"NORMAL":34,"TEXCOORD_0":35},"material":10,"indices":32}]},{"primitives":[{"mode":4,"attributes":{"POSITION":37,"NORMAL":38,"TEXCOORD_0":39},"material":11,"indices":36}]},{"primitives":[{"mode":4,"attributes":{"POSITION":41,"NORMAL":42,"TEXCOORD_0":43},"material":12,"indices":40}]},{"primitives":[{"mode":4,"attributes":{"POSITION":45,"NORMAL":46,"TEXCOORD_0":47},"material":13,"indices":44}]},{"primitives":[{"mode":4,"attributes":{"POSITION":49,"NORMAL":50,"TEXCOORD_0":51},"material":14,"indices":48}]},{"primitives":[{"mode":4,"attributes":{"POSITION":49,"NORMAL":50,"TEXCOORD_0":51},"material":15,"indices":48}]},{"primitives":[{"mode":4,"attributes":{"POSITION":53,"NORMAL":54,"TEXCOORD_0":55},"material":16,"indices":52}]},{"primitives":[{"mode":4,"attributes":{"POSITION":49,"NORMAL":50,"TEXCOORD_0":51},"material":17,"indices":48}]},{"primitives":[{"mode":4,"attributes":{"POSITION":57,"NORMAL":58,"TEXCOORD_0":59},"material":18,"indices":56}]}],"accessors":[{"bufferView":0,"byteOffset":0,"componentType":5125,"count":1965,"type":"SCALAR"},{"bufferView":1,"byteOffset":0,"componentType":5126,"count":463,"max":[1,1,1.0594679117202759],"min":[-1.0883365869522095,-0.9999996423721313,-1],"type":"VEC3"},{"bufferView":2,"byteOffset":0,"componentType":5126,"count":463,"type":"VEC3"},{"bufferView":3,"byteOffset":0,"componentType":5126,"count":463,"type":"VEC2"},{"bufferView":4,"byteOffset":0,"componentType":5125,"count":30,"type":"SCALAR"},{"bufferView":5,"byteOffset":0,"componentType":5126,"count":20,"max":[1,0.9269991517066956,0.817518413066864],"min":[0.9237792491912842,-0.7866489291191101,-0.8989858031272888],"type":"VEC3"},{"bufferView":6,"byteOffset":0,"componentType":5126,"count":20,"type":"VEC3"},{"bufferView":7,"byteOffset":0,"componentType":5126,"count":20,"type":"VEC2"},{"bufferView":8,"byteOffset":0,"componentType":5125,"count":30,"type":"SCALAR"},{"bufferView":9,"byteOffset":0,"componentType":5126,"count":20,"max":[-0.34837132692337036,0.762873649597168,1.0594679117202759],"min":[-1.083132266998291,0.7178103923797607,1.0208964347839355],"type":"VEC3"},{"bufferView":10,"byteOffset":0,"componentType":5126,"count":20,"type":"VEC3"},{"bufferView":11,"byteOffset":0,"componentType":5126,"count":20,"type":"VEC2"},{"bufferView":12,"byteOffset":0,"componentType":5125,"count":1569,"type":"SCALAR"},{"bufferView":13,"byteOffset":0,"componentType":5126,"count":1045,"max":[-0.28328967094421387,0.5385197401046753,1.0594679117202759],"min":[-1.0631654262542725,-0.11850917339324951,1.056502103805542],"type":"VEC3"},{"bufferView":14,"byteOffset":0,"componentType":5126,"count":1045,"type":"VEC3"},{"bufferView":15,"byteOffset":0,"componentType":5126,"count":1045,"type":"VEC2"},{"bufferView":16,"byteOffset":0,"componentType":5125,"count":210,"type":"SCALAR"},{"bufferView":17,"byteOffset":0,"componentType":5126,"count":106,"max":[1.0000001192092896,0.5329512357711792,1.0000001192092896],"min":[-1.0000001192092896,-1,-1.0000001192092896],"type":"VEC3"},{"bufferView":18,"byteOffset":0,"componentType":5126,"count":106,"type":"VEC3"},{"bufferView":19,"byteOffset":0,"componentType":5126,"count":106,"type":"VEC2"},{"bufferView":20,"byteOffset":0,"componentType":5125,"count":30,"type":"SCALAR"},{"bufferView":21,"byteOffset":0,"componentType":5126,"count":20,"max":[0.812099039554596,0.5329512357711792,0.9413041472434998],"min":[-0.812099039554596,-0.975003719329834,-0.9499759078025818],"type":"VEC3"},{"bufferView":22,"byteOffset":0,"componentType":5126,"count":20,"type":"VEC3"},{"bufferView":23,"byteOffset":0,"componentType":5126,"count":20,"type":"VEC2"},{"bufferView":24,"byteOffset":0,"componentType":5125,"count":192,"type":"SCALAR"},{"bufferView":25,"byteOffset":0,"componentType":5126,"count":64,"max":[1,0,0.9999999403953552],"min":[-0.9999998211860657,0,-0.9999999403953552],"type":"VEC3"},{"bufferView":26,"byteOffset":0,"componentType":5126,"count":64,"type":"VEC3"},{"bufferView":27,"byteOffset":0,"componentType":5126,"count":64,"type":"VEC2"},{"bufferView":28,"byteOffset":0,"componentType":5125,"count":132,"type":"SCALAR"},{"bufferView":29,"byteOffset":0,"componentType":5126,"count":72,"max":[1,1,1],"min":[-1,-1,-1],"type":"VEC3"},{"bufferView":30,"byteOffset":0,"componentType":5126,"count":72,"type":"VEC3"},{"bufferView":31,"byteOffset":0,"componentType":5126,"count":72,"type":"VEC2"},{"bufferView":32,"byteOffset":0,"componentType":5125,"count":36,"type":"SCALAR"},{"bufferView":33,"byteOffset":0,"componentType":5126,"count":24,"max":[1,0.9748013019561768,1],"min":[-1,-1.6529474258422852,-1],"type":"VEC3"},{"bufferView":34,"byteOffset":0,"componentType":5126,"count":24,"type":"VEC3"},{"bufferView":35,"byteOffset":0,"componentType":5126,"count":24,"type":"VEC2"},{"bufferView":36,"byteOffset":0,"componentType":5125,"count":2916,"type":"SCALAR"},{"bufferView":37,"byteOffset":0,"componentType":5126,"count":552,"max":[1,1,1],"min":[-1,-1,-1],"type":"VEC3"},{"bufferView":38,"byteOffset":0,"componentType":5126,"count":552,"type":"VEC3"},{"bufferView":39,"byteOffset":0,"componentType":5126,"count":552,"type":"VEC2"},{"bufferView":40,"byteOffset":0,"componentType":5125,"count":3684,"type":"SCALAR"},{"bufferView":41,"byteOffset":0,"componentType":5126,"count":717,"max":[1,3.498335599899292,0.3924168646335602],"min":[-1,-4.01021671295166,-1.6161978244781494],"type":"VEC3"},{"bufferView":42,"byteOffset":0,"componentType":5126,"count":717,"type":"VEC3"},{"bufferView":43,"byteOffset":0,"componentType":5126,"count":717,"type":"VEC2"},{"bufferView":44,"byteOffset":0,"componentType":5125,"count":72,"type":"SCALAR"},{"bufferView":45,"byteOffset":0,"componentType":5126,"count":48,"max":[3.415348768234253,1,1],"min":[-3.415348768234253,-1,-1.0000009536743164],"type":"VEC3"},{"bufferView":46,"byteOffset":0,"componentType":5126,"count":48,"type":"VEC3"},{"bufferView":47,"byteOffset":0,"componentType":5126,"count":48,"type":"VEC2"},{"bufferView":48,"byteOffset":0,"componentType":5125,"count":2676,"type":"SCALAR"},{"bufferView":49,"byteOffset":0,"componentType":5126,"count":448,"max":[0.7834708094596863,0.1994032859802246,0.7834703922271729],"min":[-0.7834699749946594,0,-0.7834703922271729],"type":"VEC3"},{"bufferView":50,"byteOffset":0,"componentType":5126,"count":448,"type":"VEC3"},{"bufferView":51,"byteOffset":0,"componentType":5126,"count":448,"type":"VEC2"},{"bufferView":52,"byteOffset":0,"componentType":5125,"count":8028,"type":"SCALAR"},{"bufferView":53,"byteOffset":0,"componentType":5126,"count":1344,"max":[0.7834709882736206,0.1994032859802246,0.7834703922271729],"min":[-0.7834699749946594,0,-5.484292030334473],"type":"VEC3"},{"bufferView":54,"byteOffset":0,"componentType":5126,"count":1344,"type":"VEC3"},{"bufferView":55,"byteOffset":0,"componentType":5126,"count":1344,"type":"VEC2"},{"bufferView":56,"byteOffset":0,"componentType":5125,"count":1920,"type":"SCALAR"},{"bufferView":57,"byteOffset":0,"componentType":5126,"count":369,"max":[0.9166667461395264,0.9665617942810059,0.9166667461395264],"min":[-0.9166667461395264,0.5833069682121277,-0.9166667461395264],"type":"VEC3"},{"bufferView":58,"byteOffset":0,"componentType":5126,"count":369,"type":"VEC3"},{"bufferView":59,"byteOffset":0,"componentType":5126,"count":369,"type":"VEC2"}],"bufferViews":[{"buffer":0,"byteOffset":0,"byteLength":7860,"target":34963},{"buffer":0,"byteOffset":7860,"byteLength":5556,"target":34962},{"buffer":0,"byteOffset":13416,"byteLength":5556,"target":34962},{"buffer":0,"byteOffset":18972,"byteLength":3704,"target":34962},{"buffer":0,"byteOffset":22676,"byteLength":120,"target":34963},{"buffer":0,"byteOffset":22796,"byteLength":240,"target":34962},{"buffer":0,"byteOffset":23036,"byteLength":240,"target":34962},{"buffer":0,"byteOffset":23276,"byteLength":160,"target":34962},{"buffer":0,"byteOffset":23436,"byteLength":120,"target":34963},{"buffer":0,"byteOffset":23556,"byteLength":240,"target":34962},{"buffer":0,"byteOffset":23796,"byteLength":240,"target":34962},{"buffer":0,"byteOffset":24036,"byteLength":160,"target":34962},{"buffer":0,"byteOffset":24196,"byteLength":6276,"target":34963},{"buffer":0,"byteOffset":30472,"byteLength":12540,"target":34962},{"buffer":0,"byteOffset":43012,"byteLength":12540,"target":34962},{"buffer":0,"byteOffset":55552,"byteLength":8360,"target":34962},{"buffer":0,"byteOffset":63912,"byteLength":840,"target":34963},{"buffer":0,"byteOffset":64752,"byteLength":1272,"target":34962},{"buffer":0,"byteOffset":66024,"byteLength":1272,"target":34962},{"buffer":0,"byteOffset":67296,"byteLength":848,"target":34962},{"buffer":0,"byteOffset":68144,"byteLength":120,"target":34963},{"buffer":0,"byteOffset":68264,"byteLength":240,"target":34962},{"buffer":0,"byteOffset":68504,"byteLength":240,"target":34962},{"buffer":0,"byteOffset":68744,"byteLength":160,"target":34962},{"buffer":0,"byteOffset":68904,"byteLength":768,"target":34963},{"buffer":0,"byteOffset":69672,"byteLength":768,"target":34962},{"buffer":0,"byteOffset":70440,"byteLength":768,"target":34962},{"buffer":0,"byteOffset":71208,"byteLength":512,"target":34962},{"buffer":0,"byteOffset":71720,"byteLength":528,"target":34963},{"buffer":0,"byteOffset":72248,"byteLength":864,"target":34962},{"buffer":0,"byteOffset":73112,"byteLength":864,"target":34962},{"buffer":0,"byteOffset":73976,"byteLength":576,"target":34962},{"buffer":0,"byteOffset":74552,"byteLength":144,"target":34963},{"buffer":0,"byteOffset":74696,"byteLength":288,"target":34962},{"buffer":0,"byteOffset":74984,"byteLength":288,"target":34962},{"buffer":0,"byteOffset":75272,"byteLength":192,"target":34962},{"buffer":0,"byteOffset":75464,"byteLength":11664,"target":34963},{"buffer":0,"byteOffset":87128,"byteLength":6624,"target":34962},{"buffer":0,"byteOffset":93752,"byteLength":6624,"target":34962},{"buffer":0,"byteOffset":100376,"byteLength":4416,"target":34962},{"buffer":0,"byteOffset":104792,"byteLength":14736,"target":34963},{"buffer":0,"byteOffset":119528,"byteLength":8604,"target":34962},{"buffer":0,"byteOffset":128132,"byteLength":8604,"target":34962},{"buffer":0,"byteOffset":136736,"byteLength":5736,"target":34962},{"buffer":0,"byteOffset":142472,"byteLength":288,"target":34963},{"buffer":0,"byteOffset":142760,"byteLength":576,"target":34962},{"buffer":0,"byteOffset":143336,"byteLength":576,"target":34962},{"buffer":0,"byteOffset":143912,"byteLength":384,"target":34962},{"buffer":0,"byteOffset":144296,"byteLength":10704,"target":34963},{"buffer":0,"byteOffset":155000,"byteLength":5376,"target":34962},{"buffer":0,"byteOffset":160376,"byteLength":5376,"target":34962},{"buffer":0,"byteOffset":165752,"byteLength":3584,"target":34962},{"buffer":0,"byteOffset":169336,"byteLength":32112,"target":34963},{"buffer":0,"byteOffset":201448,"byteLength":16128,"target":34962},{"buffer":0,"byteOffset":217576,"byteLength":16128,"target":34962},{"buffer":0,"byteOffset":233704,"byteLength":10752,"target":34962},{"buffer":0,"byteOffset":244456,"byteLength":7680,"target":34963},{"buffer":0,"byteOffset":252136,"byteLength":4428,"target":34962},{"buffer":0,"byteOffset":256564,"byteLength":4428,"target":34962},{"buffer":0,"byteOffset":260992,"byteLength":2952,"target":34962}],"scene":0,"scenes":[{"nodes":[0],"name":"Wii"}],"extensionsUsed":["KHR_texture_transform","KHR_materials_ior","KHR_materials_volume","KHR_materials_transmission","KHR_materials_clearcoat"],"buffers":[{"byteLength":263944,"uri":"Wii.bin"}]}